<svg width="163" height="163" viewBox="0 0 163 163" fill="none" xmlns="http://www.w3.org/2000/svg">
<path d="M161.665 89.0466L152.233 88.4636L152.348 86.6042L160.001 87.0772L160.207 83.7491L152.554 83.276L152.668 81.4166L162.1 81.9996L161.665 89.0466Z" fill="#363636"/>
<path d="M151.665 98.8476C150.929 97.7249 150.696 96.4932 150.968 95.1524C151.24 93.8117 151.933 92.7677 153.049 92.0203C154.172 91.2836 155.408 91.052 156.757 91.3255C158.107 91.599 159.151 92.2926 159.889 93.4065C160.635 94.531 160.872 95.7636 160.6 97.1043C160.328 98.4451 159.63 99.4882 158.506 100.234C157.39 100.981 156.158 101.218 154.808 100.944C153.458 100.671 152.411 99.972 151.665 98.8476ZM154.033 93.5558C153.352 94.0147 152.926 94.6676 152.754 95.5144C152.582 96.3612 152.721 97.1284 153.169 97.8162C153.626 98.5057 154.296 98.9399 155.178 99.1186C156.06 99.2973 156.846 99.1581 157.535 98.701C158.225 98.2438 158.656 97.5918 158.827 96.745C158.999 95.8983 158.856 95.1301 158.399 94.4406C157.942 93.751 157.272 93.3169 156.39 93.1382C155.508 92.9594 154.722 93.0986 154.033 93.5558Z" fill="#363636"/>
<path d="M152.841 107.272C152.101 107.973 151.25 108.16 150.286 107.835C149.484 107.565 148.938 107.044 148.648 106.272C148.357 105.499 148.373 104.636 148.695 103.681C149.255 102.017 150.334 101.142 151.931 101.053L152.275 102.864C151.313 102.844 150.674 103.303 150.358 104.241C150.194 104.727 150.171 105.133 150.29 105.458C150.408 105.782 150.642 106.004 150.992 106.122C151.342 106.24 151.662 106.205 151.953 106.018C152.241 105.84 152.464 105.516 152.622 105.047L152.997 103.934L154.571 104.465L154.286 105.309C154.137 105.752 154.114 106.129 154.218 106.44C154.331 106.753 154.554 106.966 154.886 107.078C155.219 107.19 155.515 107.171 155.774 107.022C156.043 106.874 156.247 106.592 156.388 106.174C156.647 105.406 156.452 104.743 155.805 104.183L157.18 102.979C158.247 104.013 158.533 105.263 158.038 106.73C157.739 107.617 157.256 108.262 156.589 108.664C155.921 109.065 155.195 109.134 154.411 108.87C153.609 108.599 153.086 108.067 152.841 107.272Z" fill="#363636"/>
<path d="M149.399 115.283C148.616 115.831 147.789 115.901 146.916 115.493C146.191 115.154 145.716 114.619 145.491 113.888C145.267 113.157 145.33 112.416 145.681 111.666L147.379 108.034L155.939 112.037L154.361 115.412C154.018 116.146 153.502 116.655 152.813 116.939C152.128 117.234 151.435 117.218 150.734 116.891C150.024 116.559 149.58 116.023 149.399 115.283ZM152.783 114.675L153.573 112.987L151.689 112.106L150.9 113.794C150.778 114.055 150.767 114.313 150.866 114.568C150.962 114.831 151.144 115.026 151.413 115.151C151.682 115.277 151.946 115.297 152.206 115.209C152.465 115.122 152.658 114.944 152.783 114.675ZM147.258 112.404C147.125 112.689 147.108 112.969 147.208 113.245C147.316 113.524 147.516 113.732 147.81 113.869C148.095 114.002 148.375 114.019 148.651 113.919C148.934 113.823 149.142 113.633 149.276 113.347L150.185 111.403L148.167 110.459L147.258 112.404Z" fill="#363636"/>
<path d="M140.612 122.927C140.326 121.615 140.551 120.382 141.285 119.227C142.02 118.073 143.042 117.347 144.351 117.05C145.663 116.765 146.9 116.992 148.062 117.731C149.224 118.47 149.95 119.492 150.24 120.796C150.532 122.113 150.312 123.349 149.577 124.503C148.843 125.657 147.817 126.381 146.5 126.674C145.191 126.971 143.955 126.75 142.793 126.011C141.632 125.272 140.904 124.244 140.612 122.927ZM144.719 118.836C143.919 119.02 143.287 119.477 142.823 120.206C142.359 120.935 142.213 121.701 142.385 122.503C142.565 123.311 143.034 123.956 143.794 124.439C144.553 124.923 145.336 125.074 146.144 124.895C146.952 124.715 147.587 124.261 148.051 123.532C148.515 122.803 148.657 122.035 148.477 121.227C148.298 120.42 147.829 119.774 147.069 119.291C146.31 118.808 145.526 118.656 144.719 118.836Z" fill="#363636"/>
<path d="M141.871 134.476L140.671 135.884L133.477 129.757L134.676 128.349L137.657 130.887L139.932 128.215L136.952 125.676L138.16 124.258L145.354 130.385L144.146 131.803L141.289 129.37L139.013 132.042L141.871 134.476Z" fill="#363636"/>
<path d="M128.007 134.98L131.886 139.244L131.003 132.255L132.051 131.301L138.41 138.291L137.032 139.545L133.144 135.271L134.037 142.27L132.988 143.224L126.629 136.234L128.007 134.98Z" fill="#363636"/>
<path d="M125.331 148.885L124.299 147.433L126.378 145.955L121.936 139.705L123.454 138.625L127.897 144.875L129.965 143.405L130.998 144.857L125.331 148.885Z" fill="#363636"/>
<path d="M118.861 149.098C118.066 149.54 117.249 149.644 116.409 149.412C115.569 149.179 114.932 148.673 114.499 147.895C114.065 147.116 113.971 146.308 114.216 145.472C114.461 144.635 114.981 143.995 115.775 143.553L118.854 141.84L123.449 150.098L121.821 151.004L120.312 148.29L118.861 149.098ZM116.622 145.075C116.276 145.268 116.055 145.546 115.958 145.908C115.861 146.271 115.913 146.633 116.115 146.995C116.312 147.349 116.59 147.581 116.949 147.69C117.313 147.807 117.668 147.769 118.014 147.576L119.465 146.769L118.073 144.268L116.622 145.075Z" fill="#363636"/>
<path d="M102.323 149.355L103.414 150.778L106.974 149.548L106.954 147.755L108.856 147.098L108.815 157.11L106.634 157.864L100.409 150.016L102.323 149.355ZM106.981 151.388L104.531 152.234L107.017 155.46L106.981 151.388Z" fill="#363636"/>
<path d="M92.4248 153.517L91.4324 153.718L90.7192 150.198L92.5451 149.828L92.9044 151.601L98.0248 150.564L97.6656 148.791L99.4914 148.421L100.205 151.94L99.3049 152.123C98.9381 152.941 98.8941 154.038 99.173 155.414L100.06 159.793L93.9477 161.032L92.4248 153.517ZM97.3467 152.519L94.2506 153.147L95.4277 158.955L97.8887 158.457L97.3417 155.757C97.07 154.417 97.0717 153.337 97.3467 152.519Z" fill="#363636"/>
<path d="M81.355 162.089L80.8448 152.653L82.6916 152.553L83.0225 158.673L85.4412 154.148L85.6569 154.136L88.5487 158.36L88.2185 152.254L90.0788 152.153L90.589 161.589L88.6748 161.693L85.724 157.378L83.2692 161.985L81.355 162.089Z" fill="#363636"/>
<path d="M73.0483 152.109L72.5376 157.851L77.0824 152.468L78.4943 152.594L77.6572 162.007L75.8015 161.842L76.3133 156.086L71.7674 161.483L70.3555 161.357L71.1926 151.944L73.0483 152.109Z" fill="#363636"/>
<path d="M61.8716 159.708L60.0678 159.299L62.156 150.083L63.9598 150.491L63.0947 154.31L66.5179 155.085L67.383 151.267L69.2 151.679L67.1117 160.895L65.2948 160.483L66.1241 156.823L62.7009 156.048L61.8716 159.708Z" fill="#363636"/>
<path d="M54.9674 147.647L52.9828 153.059L58.7698 149.041L60.1007 149.529L56.8473 158.401L55.0982 157.76L57.0874 152.335L51.2958 156.366L49.9649 155.878L53.2183 147.005L54.9674 147.647Z" fill="#363636"/>
<path d="M47.5193 143.986C48.7744 144.654 49.589 145.623 49.9631 146.893C50.3371 148.163 50.1984 149.41 49.547 150.633C48.8913 151.864 47.9343 152.675 46.6762 153.066C45.4138 153.464 44.155 153.329 42.8999 152.661C42.1452 152.259 41.5453 151.71 41.1002 151.014C40.6428 150.322 40.3962 149.579 40.3602 148.785L42.216 148.718C42.2237 149.201 42.3633 149.647 42.6346 150.057C42.9017 150.475 43.2735 150.81 43.7502 151.064C44.5604 151.495 45.3512 151.59 46.1224 151.348C46.8856 151.102 47.483 150.574 47.9145 149.764C48.3417 148.961 48.4445 148.175 48.2227 147.404C47.993 146.629 47.4729 146.026 46.6627 145.595C46.186 145.341 45.7021 145.216 45.2108 145.219C44.7073 145.226 44.259 145.36 43.8658 145.619L42.8856 144.042C43.5646 143.629 44.317 143.413 45.1429 143.394C45.9646 143.382 46.7567 143.58 47.5193 143.986Z" fill="#363636"/>
<path d="M31.767 145.34L32.7941 143.883L34.8792 145.354L39.2987 139.088L40.8212 140.161L36.4016 146.428L38.4756 147.891L37.4485 149.347L31.767 145.34Z" fill="#363636"/>
<path d="M27.328 141.588C26.649 140.984 26.2809 140.246 26.2239 139.376C26.1669 138.506 26.4346 137.738 27.0269 137.073C27.6193 136.407 28.3508 136.052 29.2216 136.008C30.0924 135.964 30.8672 136.244 31.5463 136.848L32.7867 137.952L34.8509 135.633L36.2426 136.871L29.9601 143.93L27.328 141.588ZM30.3885 138.149C30.0927 137.886 29.7575 137.768 29.3831 137.796C29.0026 137.831 28.6778 138 28.4085 138.303C28.1333 138.612 28.0034 138.954 28.0189 139.329C28.0343 139.704 28.19 140.024 28.4858 140.287L29.7262 141.391L31.6289 139.253L30.3885 138.149Z" fill="#363636"/>
<path d="M26.038 126.755L25.1387 128.306L27.6325 131.129L29.2827 130.428L30.6145 131.935L21.3426 135.713L19.8141 133.983L24.6973 125.238L26.038 126.755ZM25.9341 131.837L24.2179 129.894L22.1825 133.422L25.9341 131.837Z" fill="#363636"/>
<path d="M12.5651 124.322L14.0325 123.311L15.4802 125.412L21.7945 121.061L22.8515 122.595L16.5372 126.946L17.9771 129.036L16.5097 130.047L12.5651 124.322Z" fill="#363636"/>
<path d="M14.9687 111.643C16.2482 112.05 17.205 112.86 17.839 114.072C18.4731 115.284 18.5925 116.532 18.1973 117.815C17.7899 119.095 16.9762 120.054 15.756 120.692C14.5358 121.33 13.2881 121.449 12.0127 121.05C10.7252 120.647 9.76443 119.839 9.13039 118.627C8.49634 117.415 8.38092 116.165 8.7841 114.877C9.17931 113.594 9.987 112.633 11.2072 111.995C12.4273 111.357 13.6812 111.239 14.9687 111.643ZM16.4659 117.243C16.7052 116.458 16.6246 115.682 16.2241 114.917C15.8237 114.151 15.2327 113.643 14.4511 113.391C13.6616 113.144 12.8681 113.229 12.0706 113.646C11.2731 114.063 10.7508 114.666 10.5035 115.456C10.2563 116.245 10.3329 117.023 10.7334 117.789C11.1338 118.554 11.7288 119.061 12.5183 119.308C13.3078 119.555 14.1013 119.47 14.8988 119.053C15.6963 118.636 16.2187 118.033 16.4659 117.243Z" fill="#363636"/>
<path d="M4.9557 108.702C4.64597 107.847 4.67299 107.024 5.03677 106.231C5.40055 105.439 6.00128 104.891 6.83896 104.588C7.67664 104.284 8.48897 104.32 9.27594 104.695C10.0629 105.07 10.6113 105.685 10.921 106.54L11.4868 108.101L14.406 107.043L15.0408 108.795L6.15629 112.015L4.9557 108.702ZM9.28372 107.133C9.14878 106.761 8.90993 106.498 8.56715 106.345C8.21592 106.194 7.84992 106.188 7.46915 106.326C7.07993 106.467 6.80286 106.707 6.63795 107.044C6.47304 107.381 6.45805 107.736 6.59298 108.109L7.15878 109.67L9.84951 108.694L9.28372 107.133Z" fill="#363636"/>
<path d="M1.86834 98.0029L1.44282 96.1891L8.75392 97.3859C10.7141 97.7026 11.8433 98.7134 12.1416 100.418L10.4461 100.816C10.3748 100.315 10.2166 99.9362 9.97145 99.6795C9.7155 99.4159 9.36236 99.2307 8.91202 99.1237L3.19113 103.641L2.76561 101.828L6.73624 98.7745L1.86834 98.0029Z" fill="#363636"/>
<path d="M0.381229 73.6656L9.81744 74.1758L9.71685 76.0361L2.06004 75.6221L1.87999 78.9517L9.53681 79.3657L9.43622 81.226L0 80.7158L0.381229 73.6656Z" fill="#363636"/>
<path d="M10.23 64.0953C10.9795 65.2095 11.2262 66.4385 10.9698 67.7822C10.7135 69.126 10.0319 70.1779 8.92487 70.938C7.81071 71.6875 6.57733 71.9333 5.22471 71.6753C3.87209 71.4173 2.82018 70.7356 2.06897 69.6303C1.3106 68.5145 1.05958 67.2846 1.31588 65.9409C1.57219 64.5971 2.25827 63.546 3.37411 62.7877C4.48112 62.0276 5.71093 61.7766 7.06355 62.0346C8.41616 62.2926 9.47165 62.9795 10.23 64.0953ZM7.92369 69.4139C8.5991 68.9472 9.01774 68.2895 9.17962 67.4408C9.3415 66.5921 9.19434 65.8264 8.73814 65.1439C8.27311 64.4596 7.59856 64.0332 6.7145 63.8646C5.83043 63.6959 5.04628 63.8442 4.36203 64.3092C3.67779 64.7742 3.25473 65.4311 3.09285 66.2798C2.93097 67.1285 3.08255 67.895 3.54758 68.5792C4.01262 69.2635 4.68717 69.6899 5.57123 69.8585C6.45529 70.0271 7.23945 69.8789 7.92369 69.4139Z" fill="#363636"/>
<path d="M8.94373 55.7018C9.67526 54.993 10.5247 54.7956 11.492 55.1095C12.2967 55.3707 12.8487 55.8857 13.1479 56.6546C13.4472 57.4236 13.4412 58.2874 13.1301 59.2462C12.5883 60.9155 11.5195 61.8034 9.92368 61.91L9.55926 60.1027C10.5213 60.1122 11.1552 59.6461 11.4608 58.7044C11.6191 58.2165 11.6373 57.8108 11.5152 57.4873C11.3931 57.1638 11.1565 56.9451 10.8055 56.8312C10.4546 56.7173 10.1347 56.7554 9.84586 56.9455C9.55984 57.1271 9.34043 57.4533 9.18763 57.9241L8.82508 59.0413L7.24567 58.5287L7.52071 57.6812C7.66518 57.2361 7.68353 56.8588 7.57577 56.5494C7.45945 56.2373 7.23436 56.027 6.9005 55.9187C6.56664 55.8103 6.27082 55.8326 6.01303 55.9855C5.74669 56.1356 5.54545 56.4204 5.40932 56.8398C5.15928 57.6103 5.36091 58.2718 6.01422 58.8245L4.65347 60.0435C3.57522 59.0217 3.27501 57.7747 3.75287 56.3023C4.0418 55.412 4.51764 54.7621 5.18039 54.3527C5.84314 53.9433 6.56829 53.8664 7.35586 54.122C8.16054 54.3831 8.68983 54.9098 8.94373 55.7018Z" fill="#363636"/>
<path d="M12.2867 47.6433C13.0634 47.0866 13.8901 47.0074 14.767 47.4055C15.4963 47.7367 15.9773 48.2665 16.21 48.9949C16.4426 49.7232 16.3878 50.4644 16.0454 51.2183L14.3877 54.869L5.78324 50.9619L7.32378 47.5692C7.65868 46.8317 8.16907 46.3172 8.85497 46.0257C9.53638 45.7223 10.2295 45.7306 10.9342 46.0506C11.6472 46.3744 12.098 46.9053 12.2867 47.6433ZM8.90946 48.2893L8.13919 49.9856L10.0322 50.8452L10.8024 49.1489C10.9215 48.8866 10.93 48.6285 10.8278 48.3746C10.7294 48.1124 10.545 47.92 10.2746 47.7972C10.0041 47.6744 9.73972 47.6581 9.48129 47.7483C9.22287 47.8385 9.03225 48.0189 8.90946 48.2893ZM14.4598 50.4982C14.59 50.2114 14.6037 49.931 14.5008 49.6569C14.3897 49.3791 14.1866 49.1733 13.8916 49.0393C13.6048 48.9091 13.3244 48.8954 13.0503 48.9983C12.7681 49.0975 12.5618 49.2905 12.4316 49.5773L11.5441 51.5317L13.5723 52.4527L14.4598 50.4982Z" fill="#363636"/>
<path d="M21.1221 39.6856C21.4169 40.9957 21.2014 42.2304 20.4755 43.39C19.7497 44.5495 18.7331 45.2829 17.4259 45.5901C16.1159 45.8849 14.8773 45.667 13.7101 44.9363C12.5429 44.2057 11.8096 43.1891 11.51 41.8867C11.2076 40.5719 11.4193 39.3347 12.1452 38.1752C12.871 37.0156 13.8914 36.2846 15.2062 35.9822C16.5134 35.675 17.7506 35.8867 18.9178 36.6174C20.0849 37.348 20.8197 38.3708 21.1221 39.6856ZM17.0451 43.8068C17.8438 43.6166 18.4723 43.1553 18.9307 42.423C19.3892 41.6906 19.5295 40.9237 19.3517 40.1222C19.1662 39.3159 18.6921 38.674 17.9292 38.1965C17.1664 37.7189 16.3818 37.5729 15.5756 37.7583C14.7693 37.9438 14.1369 38.4027 13.6785 39.135C13.22 39.8674 13.0835 40.6367 13.269 41.4429C13.4544 42.2492 13.9286 42.8911 14.6915 43.3687C15.4543 43.8462 16.2389 43.9922 17.0451 43.8068Z" fill="#363636"/>
<path d="M19.5687 28.3645L20.7524 26.9434L28.0135 32.9915L26.8298 34.4126L23.8217 31.907L21.5752 34.6039L24.5834 37.1096L23.391 38.541L16.13 32.4929L17.3223 31.0615L20.206 33.4634L22.4524 30.7665L19.5687 28.3645Z" fill="#363636"/>
<path d="M33.5198 27.6061L29.6098 23.3704L30.5438 30.3532L29.5023 31.3146L23.0925 24.3708L24.4614 23.1072L28.3805 27.3528L27.4373 20.3601L28.4789 19.3986L34.8887 26.3425L33.5198 27.6061Z" fill="#363636"/>
<path d="M35.9388 13.7435L36.9871 15.1846L34.9237 16.6855L39.4344 22.8864L37.9279 23.9823L33.4172 17.7814L31.3647 19.2744L30.3165 17.8333L35.9388 13.7435Z" fill="#363636"/>
<path d="M42.2818 13.5163C43.0711 13.0655 43.8872 12.9519 44.7299 13.1754C45.5727 13.3989 46.215 13.8976 46.6568 14.6713C47.0986 15.445 47.2017 16.2516 46.9659 17.091C46.7301 17.9304 46.2175 18.5755 45.4281 19.0262L42.3684 20.7735L37.6823 12.5672L39.3001 11.6434L40.8398 14.3397L42.2818 13.5163ZM44.5645 17.5139C44.9084 17.3176 45.1268 17.0374 45.2195 16.6735C45.3123 16.3097 45.256 15.9479 45.0507 15.5884C44.8499 15.2367 44.5692 15.0084 44.2087 14.9033C43.8437 14.7905 43.4892 14.8322 43.1453 15.0286L41.7034 15.852L43.1226 18.3373L44.5645 17.5139Z" fill="#363636"/>
<path d="M58.9573 12.9868L57.8552 11.5724L54.3046 12.8292L54.3376 14.6219L52.4414 15.293L52.4063 5.28099L54.5825 4.51074L60.8662 12.3111L58.9573 12.9868ZM54.2835 10.9893L56.7269 10.1244L54.2169 6.9171L54.2835 10.9893Z" fill="#363636"/>
<path d="M68.9334 8.68189L69.9242 8.47323L70.6642 11.9872L68.8412 12.3711L68.4684 10.6009L63.3561 11.6776L63.7289 13.4477L61.9058 13.8317L61.1658 10.3178L62.0641 10.1286C62.4247 9.30765 62.4603 8.21025 62.1709 6.83639L61.2501 2.46381L67.3532 1.17848L68.9334 8.68189ZM64.0192 9.71683L67.1104 9.06582L65.8891 3.26653L63.432 3.784L63.9995 6.47888C64.2814 7.81752 64.288 8.89683 64.0192 9.71683Z" fill="#363636"/>
<path d="M79.6408 0L80.2601 9.42968L78.4146 9.5509L78.0129 3.43508L75.6467 7.98744L75.4312 8.0016L72.4907 3.81131L72.8915 9.91366L71.0325 10.0358L70.4132 0.606075L72.326 0.480436L75.3266 4.76149L77.7279 0.125639L79.6408 0Z" fill="#363636"/>
<path d="M88.188 9.87465L88.6544 4.12905L84.1513 9.54697L82.7384 9.43228L83.503 0.0132585L85.3599 0.163993L84.8924 5.92305L89.3966 0.491677L90.8095 0.606367L90.0449 10.0254L88.188 9.87465Z" fill="#363636"/>
<path d="M99.2326 2.12668L101.041 2.51473L99.0582 11.7544L97.2499 11.3663L98.0713 7.53848L94.6394 6.80204L93.818 10.6299L91.9965 10.239L93.9792 0.999361L95.8007 1.39024L95.0133 5.05971L98.4452 5.79615L99.2326 2.12668Z" fill="#363636"/>
<path d="M106.395 14.1413L108.338 8.71443L102.582 12.7757L101.247 12.2977L104.434 3.40113L106.188 4.02934L104.239 9.46894L110.001 5.39501L111.335 5.87299L108.148 14.7695L106.395 14.1413Z" fill="#363636"/>
<path d="M113.893 17.7172C112.633 17.0581 111.811 16.0951 111.427 14.8281C111.044 13.561 111.174 12.3135 111.816 11.0853C112.462 9.84919 113.413 9.03126 114.669 8.63151C115.928 8.22378 117.188 8.34946 118.448 9.00853C119.205 9.4048 119.809 9.94923 120.26 10.6418C120.722 11.3306 120.974 12.0719 121.016 12.8657L119.161 12.9465C119.149 12.4632 119.007 12.0178 118.732 11.6102C118.462 11.1947 118.088 10.8618 117.609 10.6115C116.796 10.186 116.004 10.0971 115.235 10.3447C114.474 10.5965 113.88 11.1291 113.455 11.9425C113.033 12.748 112.937 13.5352 113.164 14.3043C113.399 15.0774 113.924 15.6768 114.737 16.1023C115.216 16.3525 115.701 16.4741 116.192 16.467C116.695 16.4561 117.143 16.3193 117.534 16.0567L118.526 17.6267C117.85 18.0451 117.099 18.2669 116.273 18.2921C115.452 18.3093 114.658 18.1176 113.893 17.7172Z" fill="#363636"/>
<path d="M129.326 15.9817L128.315 17.4491L126.214 16.0015L121.863 22.3158L120.329 21.2588L124.68 14.9445L122.59 13.5045L123.601 12.0371L129.326 15.9817Z" fill="#363636"/>
<path d="M134.064 19.8546C134.749 20.4515 135.125 21.1846 135.192 22.0539C135.258 22.9233 134.999 23.694 134.414 24.366C133.829 25.038 133.101 25.4009 132.231 25.4547C131.361 25.5085 130.583 25.237 129.897 24.6401L128.645 23.5497L126.606 25.8916L125.201 24.6683L131.406 17.541L134.064 19.8546ZM131.041 23.3266C131.34 23.5866 131.676 23.7005 132.05 23.6683C132.43 23.6292 132.753 23.457 133.019 23.1515C133.291 22.8393 133.417 22.4957 133.397 22.1206C133.378 21.7456 133.219 21.4281 132.92 21.1681L131.668 20.0777L129.788 22.2363L131.041 23.3266Z" fill="#363636"/>
<path d="M135.581 34.744L136.469 33.1864L133.954 30.3819L132.309 31.0952L130.967 29.5975L140.211 25.752L141.752 27.4709L136.932 36.2518L135.581 34.744ZM135.648 29.6617L137.378 31.5917L139.388 28.0493L135.648 29.6617Z" fill="#363636"/>
<path d="M149.015 36.9334L147.559 37.9605L146.088 35.8755L139.822 40.2951L138.748 38.7726L145.014 34.353L143.552 32.279L145.008 31.2519L149.015 36.9334Z" fill="#363636"/>
<path d="M146.846 49.8206C145.563 49.4227 144.601 48.62 143.958 47.4125C143.315 46.2051 143.186 44.9582 143.572 43.672C143.97 42.3895 144.776 41.4246 145.992 40.7774C147.207 40.1302 148.454 40.0015 149.732 40.3915C151.023 40.7851 151.989 41.5857 152.632 42.7931C153.275 44.0006 153.4 45.2496 153.006 46.54C152.621 47.8262 151.82 48.793 150.605 49.4402C149.389 50.0874 148.136 50.2142 146.846 49.8206ZM145.307 44.2314C145.074 45.0184 145.16 45.7933 145.566 46.5559C145.972 47.3185 146.567 47.8226 147.35 48.0683C148.142 48.3097 148.935 48.2188 149.729 47.7958C150.523 47.3728 151.041 46.7656 151.283 45.9743C151.524 45.183 151.442 44.406 151.036 43.6434C150.629 42.8808 150.031 42.3788 149.239 42.1374C148.448 41.896 147.655 41.9868 146.861 42.4099C146.066 42.8329 145.549 43.44 145.307 44.2314Z" fill="#363636"/>
<path d="M156.816 52.4655C157.136 53.3166 157.118 54.1403 156.763 54.9367C156.408 55.7331 155.814 56.2878 154.98 56.6009C154.145 56.9139 153.333 56.8872 152.542 56.5208C151.75 56.1543 151.195 55.5456 150.876 54.6945L150.293 53.1399L147.385 54.2307L146.731 52.4864L155.579 49.1666L156.816 52.4655ZM152.506 54.0827C152.645 54.4535 152.887 54.7136 153.232 54.8631C153.585 55.0095 153.951 55.0115 154.33 54.8692C154.718 54.7238 154.992 54.4815 155.153 54.1423C155.314 53.803 155.325 53.448 155.186 53.0773L154.603 51.5226L151.923 52.5281L152.506 54.0827Z" fill="#363636"/>
<path d="M160.02 63.0854L160.467 64.8942L153.142 63.7809C151.179 63.4867 150.038 62.4888 149.72 60.7874L151.411 60.3703C151.488 60.8704 151.651 61.2475 151.899 61.5014C152.158 61.762 152.513 61.9432 152.964 62.045L158.633 57.4624L159.08 59.2712L155.144 62.3694L160.02 63.0854Z" fill="#363636"/>
</svg>
