<svg width="1440" height="691" viewBox="0 0 1440 691" fill="none" xmlns="http://www.w3.org/2000/svg">
<path d="M1521.44 106.793L1521.44 106.794C1523.3 108.977 1524.89 111.379 1526.4 113.826C1526.96 114.727 1527.51 115.631 1528.05 116.532C1528.99 118.09 1529.93 119.64 1530.91 121.155L1531.13 121.496L1530.79 121.713C1530.33 122 1529.87 122.294 1529.4 122.588L1529.4 122.589L1529.4 122.591C1528.93 122.885 1528.47 123.179 1528.01 123.467L1527.73 123.644L1527.5 123.398C1527.09 122.946 1526.91 122.48 1526.88 122.013C1526.84 121.568 1526.93 121.136 1527.01 120.766L1527.01 120.761C1527.17 119.99 1527.29 119.412 1526.76 118.777L1526.76 118.775C1489.78 74.0297 1448.43 34.9131 1402.41 2.0511L1401.4 1.32559H1402.65H1408.94H1409.07L1409.18 1.40357C1450.24 31.6627 1487.57 67.055 1521.44 106.793Z" stroke="#896441" stroke-width="0.8"/>
<path d="M1525.44 407.279L1525.44 407.279C1527.86 457.143 1522.08 506.161 1514.16 555.155C1506.87 600.451 1498.9 645.573 1488.38 690.121L1488.31 690.429H1487.99H1482.51H1482.01L1482.13 689.935C1496.75 629.13 1508.31 567.329 1516.62 505.215C1529.67 407.44 1519.4 312.921 1480.36 222.172C1444.47 138.778 1387.67 71.5154 1317.93 14.3924L1317.93 14.3922C1312.8 10.1799 1307.61 6.07168 1302.39 2.01497L1301.47 1.29922H1302.64H1308.43H1308.57L1308.68 1.38508C1335.1 22.21 1360.21 44.818 1383.56 69.8377C1472.33 164.92 1519.12 277.51 1525.44 407.279Z" stroke="#896441" stroke-width="0.8"/>
<path d="M1526.38 189.261L1526.38 189.262C1527.44 191.751 1528.2 194.36 1528.86 196.988C1529.12 197.984 1529.36 198.98 1529.6 199.973C1529.99 201.611 1530.38 203.243 1530.83 204.863L1530.95 205.278L1530.52 205.362C1530.13 205.441 1529.74 205.513 1529.36 205.585L1529.35 205.586C1528.97 205.658 1528.58 205.729 1528.19 205.807L1527.89 205.868L1527.75 205.589C1525.11 200.099 1523.33 194.57 1521.57 189.088C1521.48 188.801 1521.38 188.515 1521.29 188.229C1519.43 182.458 1517.54 176.741 1514.62 171.119L1514.62 171.118C1482.39 108.845 1430.75 65.6133 1373.53 27.6379L1373.53 27.6377C1367.1 23.3648 1359.8 19.1033 1352.48 14.8411L1352.11 14.6287C1344.92 10.44 1337.72 6.25047 1331.37 2.0595L1330.25 1.32559H1331.59H1339.77H1339.88L1339.98 1.38778C1356.58 11.9128 1373.16 22.4922 1389.5 33.4126L1389.27 33.7451L1389.5 33.4126C1448.82 73.0796 1497.79 122.381 1526.38 189.261Z" stroke="#896441" stroke-width="0.8"/>
<path d="M1413.81 690.192L1413.71 690.428H1413.45H1407.97H1407.38L1407.6 689.881C1408.16 688.464 1409.17 687.061 1410.15 685.718L1410.28 685.536C1411.23 684.237 1412.15 682.993 1412.69 681.775C1446.2 605.83 1463.84 521.269 1463.92 414.157L1463.92 414.151C1465.57 305.366 1416.57 193.365 1317.19 104.261C1277.13 68.3489 1236.26 35.2883 1193.84 2.04042L1192.93 1.32559H1194.08H1200.88H1201.01L1201.12 1.40739C1252.53 40.5716 1303.9 79.8623 1348.5 127.199L1348.21 127.474L1348.5 127.199C1412.53 195.169 1452.93 274.495 1465.29 367.476C1480.27 480.244 1459.99 587.243 1413.81 690.192Z" stroke="#896441" stroke-width="0.8"/>
<path d="M1389.05 518.883C1389.15 505.307 1389.25 491.707 1390.24 478.141C1389.61 467.129 1389.11 456.115 1388.61 445.112C1386.29 393.642 1383.98 342.435 1368.33 293.033C1334.41 185.89 1268.56 103.897 1168.91 50.3818C1152.21 41.4167 1136.25 30.3045 1125.79 14.804C1122.7 10.2599 1119.46 5.97784 1116.03 1.93128L1115.48 1.27285H1116.34H1123.34H1123.54L1123.66 1.43695C1124.58 2.69588 1125.48 3.95747 1126.35 5.27298C1139.2 24.363 1156.78 37.2851 1177.03 48.7387C1275.32 104.267 1341.07 186.743 1373.53 294.682C1390.95 352.609 1393.14 412.628 1395.33 472.594C1395.44 475.512 1395.54 478.431 1395.65 481.349L1395.65 481.368L1395.65 481.387C1395.18 489.747 1394.79 498.119 1394.4 506.493C1393.55 524.981 1392.69 543.479 1390.9 561.883L1390.51 561.845L1390.9 561.884C1386.26 609.344 1373.76 652.177 1353.15 690.192L1353.04 690.401H1352.8H1346.61H1345.93L1346.26 689.807C1365.67 654.833 1381.36 615.69 1386.62 572.504C1388.52 556.885 1388.85 541.17 1389 525.413C1389.02 523.237 1389.03 521.06 1389.05 518.883Z" stroke="#896441" stroke-width="0.8"/>
<path d="M1257.63 674.014L1257.28 673.822L1257.63 674.014C1254.53 679.68 1251.22 685.085 1247.7 690.253L1247.58 690.428H1247.37H1240.31H1239.6L1239.97 689.82C1274.45 633.267 1307.75 576.003 1324.17 511.191C1350.07 408.914 1330.62 314.225 1274.51 226.47C1230.6 157.833 1168.25 105.324 1104.71 55.6331C1082.01 37.8812 1059.43 19.9724 1036.88 1.98556L1035.98 1.27285H1037.13H1044.68H1044.82L1044.92 1.35696C1050.85 5.95695 1056.77 10.5512 1062.7 15.1455C1089.63 36.0186 1116.56 56.8954 1143.02 78.3347L1142.77 78.6455L1143.02 78.3347C1206.92 130.138 1264.08 188.146 1301.11 262.94C1339.17 339.803 1351.61 420.352 1332.13 504.598C1318.77 562.43 1290.58 613.868 1262.39 665.309C1260.8 668.21 1259.22 671.111 1257.63 674.014Z" stroke="#896441" stroke-width="0.8"/>
<path d="M1113.1 114.903L1113.1 114.903C1132.3 129.614 1149.82 146.663 1167.2 163.579C1168.5 164.837 1169.79 166.093 1171.08 167.348C1288.95 281.893 1316.51 494.137 1202.97 639.038C1188.54 657.454 1173.29 674.804 1156.49 690.296L1156.38 690.401H1156.22H1147.83H1146.77L1147.57 689.701C1171.56 668.568 1193.93 643.589 1212.82 616.466L1213.15 616.694L1212.82 616.466C1307.36 480.725 1285.7 275.663 1159.07 160.994L1159.34 160.697L1159.07 160.994C1157.11 159.217 1155.15 157.439 1153.19 155.661C1134.26 138.487 1115.32 121.301 1095.27 105.534C1056.81 75.2773 1020.58 40.0155 990.533 1.92056L990.022 1.27285H990.847H998.189H998.377L998.497 1.41825C1032.86 43.0583 1069.81 81.7821 1113.1 114.903Z" stroke="#896441" stroke-width="0.8"/>
<path d="M-4.36961 240.276L-4.36957 240.277C0.167025 259.783 4.80424 279.375 11.1428 298.31C30.5938 356.365 18.308 408.726 -15.6533 457.585L-15.9818 457.357L-15.6534 457.585C-17.633 460.43 -19.5495 463.343 -21.4698 466.261C-25.1974 471.925 -28.9395 477.612 -33.186 482.873L-33.4973 482.622L-33.1861 482.873C-73.5156 532.83 -77.6325 588.34 -57.3213 646.777C-52.0821 661.843 -46.136 676.175 -39.4831 689.827L-39.2028 690.402H-39.8427H-45.8474H-46.1003L-46.2087 690.174C-53.4012 675.025 -59.7267 658.985 -65.1595 642.135C-83.761 584.553 -76.6938 529.954 -37.7966 480.776L-37.7965 480.776C-27.4988 467.773 -17.1249 453.413 -8.40353 439.265C16.2091 399.333 21.6496 357.012 7.99383 310.934C2.18201 291.344 -2.15748 271.589 -6.5205 251.727C-7.71223 246.302 -8.9057 240.868 -10.1314 235.428C-21.1989 186.329 -28.7965 136.793 -16.1071 86.8994L-16.1071 86.8993C-8.12519 55.5706 4.45194 27.177 20.9413 1.43172L21.0593 1.24746H21.2781H28.3578H29.1031L28.6911 1.86857C12.718 25.9488 0.0713921 52.5374 -8.3074 82.1587L-8.30743 82.1588C-23.3041 135.129 -16.5837 187.856 -4.36961 240.276Z" stroke="#896441" stroke-width="0.8"/>
<path d="M1058.73 690.401L1058.81 690.355C1069.89 684.512 1080.76 678.196 1091.33 671.303L1091.12 670.968L1091.33 671.303C1162.93 624.597 1197.28 557.371 1201.43 473.346C1201.43 473.346 1201.43 473.346 1201.43 473.346L1201.03 473.326L1058.73 690.401ZM1058.73 690.401H1058.63M1058.73 690.401H1058.63M1058.63 690.401H1046.38L1046.21 689.643C1058.62 683.495 1070.8 676.799 1082.7 669.398C1151.86 626.295 1187.93 564.075 1194.53 483.112C1200.6 408.618 1180.15 340.724 1150.17 274.567C1118.46 204.608 1075.21 145.239 1011.67 100.152L1011.9 99.826L1011.67 100.152C975.685 74.6069 948.146 38.661 925.244 1.8843L924.863 1.27285H925.583H932.007H932.23L932.348 1.4626C954.682 37.6097 979.164 72.0576 1014.41 96.8545L1014.18 97.1817L1058.63 690.401Z" stroke="#896441" stroke-width="0.8"/>
<path d="M1106.27 490.591L1106.66 490.633L1106.27 490.591C1113.52 421.217 1105.53 352.467 1085.38 285.357C1068.6 229.434 1037.78 184.697 995.686 145.307L995.686 145.307C993.258 143.031 990.856 140.729 988.456 138.427C982.833 133.035 977.218 127.651 971.29 122.648L971.289 122.648C929.935 87.6703 893.309 46.0157 862.299 1.92935L861.856 1.29922H862.626H870.099H870.306L870.426 1.46778L870.428 1.47119C870.871 2.09571 871.32 2.72902 871.744 3.38985C895.18 37.8362 919.725 70.7621 951.123 98.295L950.86 98.5958L951.123 98.2951C958.553 104.813 965.774 111.583 972.992 118.35C977.316 122.403 981.638 126.455 986.003 130.451C1033.99 174.353 1074.37 223.372 1092.86 287.408C1106.62 335.025 1111.6 383.735 1111.44 433.087C1111.44 435.541 1111.44 437.996 1111.45 440.453C1111.45 447.824 1111.46 455.204 1111.42 462.569L1111.42 462.57C1111.39 465.193 1111.23 467.816 1111.07 470.427C1111.04 470.799 1111.02 471.172 1111 471.544C1106.45 554.277 1068.94 616.693 995.017 655.405L994.832 655.051L995.017 655.405C971.097 667.923 946.676 679.815 921.78 690.397L921.705 690.429H921.623H906.835L906.681 689.659C938.998 676.234 970.686 661.003 1001.27 644.149C1061.35 611.035 1099.12 558.991 1106.27 490.591Z" stroke="#896441" stroke-width="0.8"/>
<path d="M30.1264 681.546L29.8783 681.859L30.1265 681.546C33.5361 684.243 36.9463 686.967 40.3305 689.717L41.2047 690.428H40.0783H31.2418H31.1074L31.0003 690.347C30.2412 689.772 29.4781 689.194 28.7146 688.589C3.55689 669.217 -13.1842 645.021 -18.5527 613.305L-18.1583 613.238L-18.5528 613.305C-25.7787 570.487 -18.603 529.667 -0.428093 490.881C6.73608 475.569 14.8737 460.71 23.0096 445.854C27.8 437.106 32.5899 428.36 37.1799 419.523C43.7597 406.855 53.2897 386.714 53.8377 365.711C54.7086 332.411 44.8043 296.928 41.6704 285.701C41.3195 284.444 41.0535 283.491 40.897 282.879L41.2845 282.78L40.8969 282.879C13.888 177.208 30.5794 82.318 101.212 1.40979L101.332 1.27285H101.514H106.024H106.921L106.321 1.94011C33.6066 82.9112 15.219 178.119 44.6071 285.869L44.2212 285.974L44.6071 285.869C45.2041 288.061 45.8069 290.257 46.4106 292.457C52.2195 313.621 58.1194 335.117 59.8804 356.788L59.4818 356.82L59.8805 356.788C61.0941 371.777 57.1413 385.827 51.2581 399.383C47.5158 408.006 42.9755 416.462 38.4798 424.835C35.919 429.604 33.3725 434.347 30.9963 439.078C15.555 469.835 1.19543 500.657 -9.86102 533.07C-20.4997 564.312 -18.9621 597.548 -7.81622 629.811C-0.477303 650.986 12.6602 667.735 30.1264 681.546Z" stroke="#896441" stroke-width="0.8"/>
<path d="M86.0507 249.452L86.4366 249.347L86.0507 249.452C74.1391 205.868 82.4016 165.536 107.237 128.012L107.237 128.012C109.134 125.15 110.99 122.254 112.848 119.355C116.755 113.258 120.669 107.151 124.975 101.342L124.975 101.342C152.179 64.6966 181.275 31.6616 214.913 1.37559L215.028 1.27285H215.181H222.759H223.824L223.022 1.97399C183.217 36.7733 147.972 76.1511 117.523 120.265C88.5308 162.276 79.2278 206.503 93.8211 255.909C99.3364 274.548 102.74 293.848 106.124 313.041C106.301 314.041 106.477 315.04 106.653 316.039C111.022 340.765 107.098 364.62 96.5801 387.41C92.8409 395.512 89.0296 403.582 85.2189 411.652C75.18 432.91 65.1453 454.159 56.4442 475.936C43.0392 509.476 37.4869 544.785 51.1743 579.317L50.8025 579.465L51.1744 579.318C58.2219 597.132 67.8706 615.966 81.5686 628.601C104.091 649.387 126.949 670.039 150.54 689.694L151.389 690.401H150.284H141.605H141.459L141.347 690.307C131.111 681.658 121.847 672.867 112.62 664.051C112.064 663.519 111.508 662.988 110.952 662.456C102.281 654.167 93.5938 645.862 84.103 637.627C74.3123 629.135 62.9724 617.713 56.2531 606.373C31.0961 563.913 36.8005 519.261 53.6014 475.2C64.9599 445.367 77.6816 416.688 91.3189 387.753C103.781 361.301 104.988 334.115 98.5015 305.673C96.9046 298.678 95.4708 291.656 94.0382 284.639C91.629 272.839 89.2233 261.056 86.0507 249.452Z" stroke="#896441" stroke-width="0.8"/>
<path d="M929.539 620.992L929.385 620.622L929.539 620.992C892.651 636.327 855.835 651.837 819.009 667.351C800.76 675.039 782.508 682.728 764.244 690.398L764.17 690.429H764.089H757.98L757.825 689.66C819.26 663.846 883.495 636.489 944.006 608.478C977.25 593.089 1000.39 571.622 1015.91 545.169C1031.43 518.709 1039.34 487.239 1042.08 451.828C1047.84 377.266 1032.73 310.972 986.779 250.715C954.344 208.188 922.25 164.437 890.248 120.813C869.372 92.3549 848.535 63.9503 827.669 35.9739L827.669 35.9737C818.996 24.3317 809.825 13.0026 800.312 1.96029L799.742 1.29922H800.615H808.114H808.3L808.42 1.44196C816.737 11.344 824.791 21.4821 832.479 31.7777L832.479 31.7778C863.384 73.201 893.474 115.252 923.563 157.303C947.156 190.276 970.749 223.248 994.735 255.917C1033.55 308.748 1050.72 367.481 1049.51 432.466C1048.7 476.106 1039.75 514.49 1020.47 546.344C1001.2 578.203 971.601 603.5 929.539 620.992Z" stroke="#896441" stroke-width="0.8"/>
<path d="M139.295 376.257L138.905 376.169L139.295 376.257C138.77 378.581 138.246 380.906 137.722 383.231C131.962 408.794 126.196 434.383 119.415 459.686C103.432 519.316 118.491 571.996 155.711 618.96C179.379 648.815 207.657 671.821 239.16 689.654L240.482 690.402H238.963H228.816H228.705L228.61 690.345C205.13 676.211 185.069 659.089 165.462 638.044C119.22 588.437 96.2877 530.733 112.531 462.5L112.92 462.593L112.531 462.5C114.908 452.521 118.065 442.533 121.261 432.569C121.461 431.945 121.661 431.322 121.861 430.698C124.859 421.356 127.85 412.037 130.231 402.748C145.744 342.256 151.634 281.658 139.22 219.265L139.22 219.264C136.267 204.364 138.297 186.296 144.357 171.957L144.726 172.113L144.357 171.957C151.966 153.968 166.26 136.755 178.873 121.565C179.303 121.047 179.731 120.532 180.157 120.019L180.157 120.019C221.961 69.7091 269.751 31.6093 326.641 1.29445L326.73 1.24746H326.829H338.367L338.553 2.00165C332.918 4.95849 327.31 7.9936 321.729 11.1332C268.922 40.8854 220.667 76.6463 181.743 123.619C171.745 135.692 163.026 149.025 155.061 162.576C142.79 183.484 139.421 205.792 144.645 230.072C155.203 279.111 150.183 327.898 139.295 376.257Z" stroke="#896441" stroke-width="0.8"/>
<path d="M827.147 573.847L826.914 573.522L827.147 573.847C759.465 622.384 686.305 659.576 609.955 690.399L609.883 690.428H609.805H596.144L595.999 689.656C672.122 659.949 746.561 622.942 814.705 576.281L814.931 576.612L814.705 576.281C857.219 547.179 897.734 513.885 926.693 470.565L927.025 470.787L926.693 470.565C943.564 445.335 952.481 418.075 953.266 387.626C953.29 386.677 953.316 385.724 953.342 384.769C953.763 369.355 954.204 353.196 948.756 339.057C896.576 203.871 812.479 89.3152 693.95 3.88276L693.949 3.88192C693.087 3.25632 692.225 2.65643 691.359 2.0539L690.313 1.32559H691.588H701.604H701.734L701.839 1.40152L701.844 1.40525C703.651 2.71273 705.462 4.02275 707.273 5.3855L707.273 5.38567C819.486 89.949 897.01 200.706 949.264 329.966C967.463 374.974 961.063 417.935 937.52 459.282C910.446 506.873 870.852 542.493 827.147 573.847Z" stroke="#896441" stroke-width="0.8"/>
<path d="M696.413 63.0683L696.717 62.8082C662.247 22.5148 618.503 2.86468 573.106 5.72452C489.45 7.53262 421.644 21.0767 357.505 61.4468C278.378 111.253 230.606 184.57 203.786 272.243C194.711 301.915 186.292 332.843 179.289 363.171C177.835 369.457 176.158 375.72 174.48 381.989C171.301 393.862 168.118 405.753 166.434 417.846C151.069 528.542 211.928 631.272 316.7 670.453C332.192 676.247 359.404 683.635 374.53 687.588C382.011 689.534 389.707 690.456 397.433 690.14C429.468 688.803 461.056 682.012 490.884 670.162C497.409 667.571 503.929 665.114 510.42 663.023C515.785 661.295 521.162 659.586 526.541 657.876C551.698 649.881 576.905 641.87 601.202 631.725C605.082 630.107 608.989 628.514 612.901 626.919C635.787 617.59 658.854 608.186 677.913 593.079C689.212 584.135 701.13 577.341 713.207 570.844C715.387 569.671 717.573 568.507 719.762 567.342C729.688 562.059 739.667 556.748 749.414 550.399C820.695 503.999 863.044 440.374 868.244 353.939C868.244 353.939 868.244 353.939 868.244 353.939L867.845 353.915L696.413 63.0683ZM696.413 63.0683L696.717 62.8083C713.886 82.8866 728.11 104.35 741.828 126.847L741.487 127.055L696.413 63.0683ZM434.245 678.597L434.362 678.98L434.245 678.597C449.934 673.832 465.573 669.804 481.158 665.79C484.207 665.005 487.254 664.22 490.298 663.43C508.911 658.604 527.449 653.593 545.931 647.158C554.892 644.04 563.887 641.129 572.859 638.225C594.954 631.075 616.904 623.972 637.846 613.926C651.364 607.43 663.421 597.926 675.527 588.382C678.992 585.65 682.462 582.915 685.971 580.247C692.966 574.916 700.461 570.294 708.35 566.409C769.777 536.069 818.807 493.349 846.842 428.947C881.568 349.202 864.096 270.759 801.048 211.152L801.323 210.861L801.048 211.151C785.11 196.081 771.996 177.917 758.961 159.862C754.963 154.323 750.972 148.795 746.909 143.37C739.51 133.489 732.49 123.301 725.477 113.123C723.649 110.471 721.821 107.819 719.988 105.173C711.116 92.3718 702.098 79.7124 692.173 67.8013L692.172 67.8011C656.875 25.3991 611.009 5.43715 561.887 10.2662L561.876 10.2673L561.864 10.2678C476.776 13.8787 403.285 32.6371 338.944 79.5713C268.654 130.823 226.586 201.428 203.479 283.517C190.344 330.19 178.76 377.716 171.972 425.602C159.254 515.203 205.862 602.966 284.499 648.237C321.062 669.289 361.215 682.899 401.505 682.69C412.03 682.638 423.969 681.722 434.245 678.597Z" stroke="#896441" stroke-width="0.8"/>
<path d="M248.692 296.393L248.688 296.374L248.687 296.354C246.708 274.705 254.389 256.083 268.909 241.111C283.099 226.471 298.146 212.022 314.909 200.505L314.909 200.505C379.723 156.043 451.875 127.726 527.045 105.806C563.022 95.3141 595.8 95.5395 625.839 104.771C655.874 114 683.147 132.226 708.131 157.696L707.845 157.977L708.131 157.697C762.708 213.345 793.995 281.257 807.852 357.615C814.823 396.017 804.768 429.216 777.799 456.722L777.514 456.442L777.799 456.722C762.899 471.914 747.095 486.672 729.815 499.049C659.261 549.612 580.346 583.375 498.094 609.354C497.441 609.561 496.787 609.767 496.132 609.974C471.27 617.828 445.088 626.1 419.518 625.972C308.302 625.447 224.923 525.447 242.029 415.773C242.727 411.297 243.45 406.826 244.172 402.359C249.861 367.177 255.518 332.186 248.692 296.393ZM714.067 502.166L714.295 502.494L714.067 502.166C734.26 488.149 753.122 471.723 770.758 454.532C798.897 427.088 808.85 393.714 801.035 354.308C785.028 273.636 749.798 203.684 688.07 148.509C643.326 108.536 591.442 94.2309 532.533 110.372L532.427 109.987L532.533 110.372C452.46 132.304 376.703 163.678 309.05 212.574C301.831 217.798 295.053 223.703 288.34 229.646L288.075 229.346L288.34 229.646C265.086 250.201 250.404 274.263 256.165 306.878L256.165 306.879C256.25 307.367 256.341 307.901 256.438 308.47C256.764 310.378 257.156 312.675 257.58 314.91L257.58 314.913C258.951 322.414 259.189 330.074 258.239 337.629C257.448 343.887 256.642 350.142 255.836 356.397C252.877 379.355 249.919 402.307 247.674 425.325C234.985 555.444 347.713 630.643 436.012 618.578C468.494 614.139 500.269 602.617 531.657 591.235C536.501 589.479 541.337 587.725 546.164 586.002C605.399 564.856 662.291 538.14 714.067 502.166Z" stroke="#896441" stroke-width="0.8"/>
<path d="M563.861 167.286L563.847 167.286C517.25 166.446 475.293 178.723 436.808 205.503C420.643 216.729 402.688 225.505 384.806 234.245C381.954 235.64 379.104 237.033 376.263 238.435L376.44 238.794L376.263 238.435C342.026 255.344 318.933 282.368 306.943 317.548C289.44 368.825 280.539 421.977 285.212 476.265C290.189 534.45 348.234 576.886 405.799 566.504C489.72 551.395 572.172 531.071 649.597 494.238C649.597 494.238 649.597 494.238 649.597 494.238L649.425 493.877L563.861 167.286ZM563.861 167.286L563.875 167.287M563.861 167.286L563.875 167.287M563.875 167.287C569.054 167.737 574.263 168.066 579.477 168.396M563.875 167.287L579.477 168.396M579.477 168.396C590.932 169.121 602.41 169.848 613.651 171.847M579.477 168.396L613.651 171.847M613.651 171.847C634.255 175.503 650.032 180.893 661.208 190.799M613.651 171.847L661.208 190.799M661.208 190.799C672.398 200.717 678.922 215.114 681.131 236.658L661.208 190.799ZM642.204 490.896L642.372 491.259L642.204 490.896C661.845 481.822 680.808 470.603 698.516 458.153L698.746 458.48L698.516 458.153C720.786 442.501 734.766 425.82 741.4 406.537C748.035 387.252 747.342 365.308 740.157 339.095C732.946 312.825 718.399 292.9 695.922 277.294C691.863 274.477 688.539 270.436 685.648 265.978C682.968 261.845 680.646 257.33 678.454 253.069C678.281 252.734 678.11 252.4 677.939 252.067L677.938 252.067C676.414 249.104 675.633 245.749 675.119 242.309C674.862 240.588 674.671 238.839 674.489 237.103C674.467 236.887 674.444 236.671 674.422 236.455C674.263 234.937 674.106 233.433 673.912 231.96C671.536 213.961 664.993 202.207 655.481 194.256C645.956 186.293 633.411 182.107 618.96 179.336C606.618 176.98 594.052 175.8 581.468 174.619C575.765 174.084 570.059 173.549 564.368 172.903C519.325 172.855 478.561 184.38 441.276 210.192C422.789 223.014 402.444 233.524 381.983 242.979C341.147 261.852 316.812 294.759 307.502 336.484C298.302 377.836 291.464 420.535 290.73 462.78C290.155 496.079 303.979 523.259 326.158 540.55C348.34 557.844 378.906 565.266 411.841 558.989C490.965 543.911 568.83 524.806 642.204 490.896Z" stroke="#896441" stroke-width="0.8"/>
<path d="M408.353 475.811C438.159 488.85 468.831 494.171 501.719 487.254C546.801 477.774 590.635 467.865 628.077 439.806C664.458 412.536 679.702 374.73 669.566 330.333L669.565 330.333C668.009 323.467 663.9 315.956 659.552 310.679C647.048 295.513 640.394 278.067 633.762 259.902L633.762 259.902C626.226 239.243 613.253 223.68 597.027 215.166C580.805 206.654 561.297 205.169 540.641 212.726L540.503 212.35L540.641 212.726C510.782 223.642 481.28 237.583 452.133 251.357C442.291 256.007 432.49 260.639 422.729 265.128L422.729 265.129C408.482 271.673 395.991 282.827 383.978 293.555C383.599 293.893 383.22 294.232 382.841 294.57L382.841 294.57C353.776 320.413 350.855 355.814 349.386 397.903C349.337 433.48 371.844 459.804 408.353 475.811ZM408.353 475.811L408.193 476.178M408.353 475.811C408.353 475.811 408.353 475.812 408.353 475.812L408.193 476.178M408.193 476.178C438.058 489.242 468.815 494.583 501.801 487.645C546.875 478.168 590.795 468.245 628.317 440.126L408.193 476.178ZM423.067 258.594L423.067 258.594C463.125 238.896 503.521 222.999 545.64 208.02L545.64 208.02C578.624 196.305 611.547 208.318 629.396 238.59C645.219 265.421 658.442 294.134 671.29 322.381L670.926 322.547L671.29 322.381C689.897 363.303 672.667 410.905 635.303 440.362C599.045 468.958 556.309 481.907 512.113 491.571C479.541 498.678 447.838 498.447 416.206 486.475C391.716 477.213 373.793 464.564 362.108 447.008C350.426 429.458 345.008 407.05 345.439 378.325C341.473 327.839 370.207 284.617 423.067 258.594Z" stroke="#896441" stroke-width="0.8"/>
<path d="M492.782 450.944C484.548 453.039 475.922 453.196 467.636 451.389C461.124 449.968 454.626 449.122 448.208 448.287C437.363 446.875 426.744 445.493 416.663 441.414C364.404 420.234 351.006 364.363 385.171 319.672L492.782 450.944ZM492.782 450.944C496.354 450.037 499.884 449.402 503.365 448.775M492.782 450.944L503.365 448.775M519.658 444.765C547.715 434.031 573.018 416.961 596.302 397.587C628.003 371.249 625.014 325.17 613.109 301.083C610.132 295.036 599.544 290.067 592.876 286.937C592.731 286.869 592.588 286.802 592.447 286.736C591.789 286.426 591.13 286.116 590.469 285.805C576.439 279.199 561.822 272.316 547.347 266.891L519.658 444.765ZM519.658 444.765C514.368 446.795 508.929 447.774 503.365 448.775M519.658 444.765L503.365 448.775M604.461 286.933L604.462 286.933C607.563 288.595 610.345 291.395 612.689 294.61C615.035 297.828 616.957 301.484 618.331 304.886C626.668 325.488 628.508 344.669 623.975 362.234C619.443 379.799 608.55 395.707 591.496 409.781C587.211 413.325 582.718 416.631 578.178 419.828C529.281 454.334 477.406 468.947 418.562 445.95L418.708 445.577L418.562 445.95C388.807 434.312 369.576 413.24 362.966 388.934C356.356 364.626 362.387 337.147 383.03 312.737C413.948 276.171 454.855 258.906 501.72 255.522C503.781 255.363 505.843 255.337 507.905 255.443C543.106 257.175 574.321 270.851 604.461 286.933ZM453.751 270.817C424.657 282.234 399.783 301.246 385.489 319.915C368.472 342.175 363.318 367.192 368.896 389.262C374.473 411.329 390.791 430.497 416.813 441.044C424.79 444.271 433.114 445.804 441.655 447.007C443.837 447.315 446.036 447.601 448.246 447.888C454.669 448.724 461.191 449.573 467.721 450.999C475.946 452.792 484.51 452.636 492.683 450.557L492.683 450.556C496.271 449.646 499.819 449.007 503.303 448.38C504.342 448.193 505.375 448.007 506.402 447.815C510.881 446.978 515.25 446.028 519.515 444.392L519.515 444.392C547.516 433.679 572.781 416.638 596.046 397.28L596.046 397.279C611.797 384.193 618.94 366.196 620.659 348.452C622.38 330.702 618.669 313.235 612.751 301.26L612.751 301.26C611.284 298.281 607.866 295.523 603.916 293.102C600.148 290.792 595.966 288.829 592.701 287.297C592.558 287.23 592.417 287.163 592.277 287.098L592.277 287.098C591.621 286.789 590.963 286.479 590.304 286.169C576.27 279.561 561.665 272.685 547.207 267.265L547.207 267.265C516.109 255.593 482.842 259.401 453.751 270.817Z" stroke="#896441" stroke-width="0.8"/>
<path d="M502.735 284.913L502.735 284.913C510.93 282.445 518.678 282.407 525.69 284.73C532.701 287.054 538.946 291.729 544.153 298.644C545.226 300.062 546.343 301.492 547.471 302.935C549.688 305.772 551.945 308.659 553.982 311.61C557.061 316.071 559.674 320.724 560.95 325.673C563.999 337.457 565.409 351.658 561.65 362.919L561.649 362.92C550.442 396.359 511.855 421.316 473.087 421.079L473.075 421.079C448.316 420.158 424.128 409.271 404.111 389.758L404.111 389.757C394.799 380.643 390.021 372.846 390.028 365.008C390.035 357.168 394.828 349.429 404.272 340.432C432.303 313.703 465.846 296.029 502.735 284.913ZM542.415 306.721L542.415 306.72C535.502 297.714 529.49 291.999 522.603 289.448C515.73 286.902 507.911 287.482 497.321 291.25C464.491 302.944 434.29 317.635 408.755 341.537L408.754 341.538C400.451 349.294 396.46 357.154 396.495 364.977C396.53 372.803 400.596 380.692 408.629 388.504C427.721 407.071 452.583 416.353 475.741 416.535C509.137 416.769 544.205 392.968 556.73 361.962C561.714 349.626 560.084 336.134 554.28 324.803C551.019 318.446 546.814 312.446 542.415 306.721Z" stroke="#896441" stroke-width="0.8"/>
</svg>
