<svg width="78" height="32" viewBox="0 0 78 32" xmlns="http://www.w3.org/2000/svg">
<path fill-rule="evenodd" clip-rule="evenodd" d="M60.8638 9.82477C62.7256 11.6779 63.6107 12.3382 65.8241 13.7882C68.0025 15.2155 68.8327 16.4706 70.6269 17.9115C71.1686 18.3465 77.1378 19.8548 77.0906 20.3693C76.9334 20.4821 71.6584 19.3159 71.1339 19.1725C69.794 18.8063 66.1041 18.446 64.6228 18.3679C60.6717 18.1595 57.8233 15.9868 55.2549 13.3302C53.9818 12.0134 53.5011 10.4602 51.7779 9.66799C50.2295 8.95609 48.0704 10.8885 47.0993 11.9601C46.1457 13.0122 45.4364 14.8572 44.2723 16.2368C43.6425 16.9833 40.2602 18.9614 39.5557 18.6316L42.2444 16.5486C42.3311 16.2592 43.4709 14.9985 42.6465 14.5745C42.3139 14.4034 40.658 14.7518 40.1034 14.7709C38.3033 14.833 37.2003 15.2911 35.6184 16C34.5886 16.4615 28.0227 19.4458 27.7246 19.4676C27.5957 19.0285 31.8593 16.5973 32.4505 16.2506C33.163 15.8328 34.4352 15.4569 35.2747 15.0882C36.0018 14.7688 36.7837 14.1847 36.5563 13.8081C36.5406 13.7861 36.5229 13.7639 36.5031 13.7415C36.3646 13.605 36.0622 13.5045 35.5328 13.4682C34.0112 13.3638 30.0796 14.0638 28.5666 14.5344C26.3456 15.2252 24.8662 16.292 22.9652 16.9314L14.7742 19.3622C14.8615 18.9981 20.8795 17.1376 21.9018 16.7374C24.2713 15.8098 25.7761 14.4931 28.5925 13.6226C31.4457 12.7407 34.1098 12.3227 37.0822 12.4387C41.4904 12.6108 41.3656 11.9663 44.9475 10.4684L45.3982 10.1569C45.4872 10.1107 45.511 10.1178 45.5776 10.0818C45.6973 10.0171 45.7792 9.93639 45.9002 9.88901C45.9653 9.86354 46.0333 9.84589 46.0832 9.82042L46.1728 9.7674C46.3481 9.65476 46.2233 9.71647 46.3282 9.60923L47.3712 8.88755C48.2362 8.47626 48.8916 7.55803 50.1773 7.27047C51.445 6.98697 52.6599 7.11387 53.8113 7.79014C54.7318 8.33078 58.0264 11.5003 58.198 12.2042L58.6611 12.6454C60.039 13.9017 61.572 15.3204 63.402 15.9577C64.2134 16.2402 69.2825 18.0143 69.6573 17.7476C69.6826 16.9301 62.2125 12.4596 61.0825 11.4219C59.7587 10.2062 58.604 8.84394 57.3756 7.69634C56.0931 6.49838 54.6587 5.57348 53.1431 4.50061C52.6452 4.14816 49.0159 1.26815 48.9274 1.24166C48.0984 0.993668 47.4711 2.26442 46.6731 2.68259C45.6961 3.19457 45.2017 3.33082 44.2554 4.01489C42.2062 5.4963 40.2979 4.97483 39.2851 6.55346C36.7291 10.5374 39.4223 10.9639 39.4867 11.4222L39.4499 11.5499L36.5154 10.7285C36.0432 10.6442 35.7588 10.3427 35.3817 10.1515C35.269 10.0944 35.0544 10.0321 34.9324 9.9431C34.6881 9.7649 34.5771 9.80143 34.2988 9.51137L31.0203 6.40224L31.1819 6.26503C29.0249 6.03268 30.3906 7.94451 28.2448 8.92391C26.8786 9.54741 25.6701 10.1197 24.382 10.7006C22.0323 11.7602 18.5852 12.3036 16.3843 14.0369C14.2203 15.7411 12.673 17.8755 9.77197 18.6777C8.73766 18.9637 0.371395 20.4742 0 20.2175C0.0870075 20.098 4.96755 18.9053 5.5335 18.7873C7.67536 18.3405 8.94372 18.2662 10.9208 17.2249C12.4209 16.4349 13.2827 14.975 14.4396 13.8711C15.7477 12.6228 17.1052 12.1114 18.662 11.2209C21.7603 9.4489 23.4034 6.31643 26.101 4.93848C31.6328 2.11289 33.0842 8.7044 34.6311 8.66358C34.9495 8.37901 35.848 6.78291 36.5091 6.09147C37.152 5.41909 38.2759 4.6015 39.0483 4.18325C41.0736 3.08671 43.0238 2.21254 45.1269 1.27069C48.8986 -0.418314 47.9776 -0.544876 51.2593 1.63014C53.0093 2.78998 54.6361 4.25265 56.3619 5.42739C57.9592 6.51468 59.441 8.40858 60.8638 9.82477Z"/>
<path fill-rule="evenodd" clip-rule="evenodd" d="M6.67124 27.2531H10.0333C9.71186 28.3792 8.64645 28.8264 7.53442 28.8264C6.69714 28.8264 5.99082 28.5218 5.56051 28.1903L4.74658 29.6698C5.24817 30.0951 6.3602 30.4693 7.56943 30.4693C10.3093 30.4693 12.0435 28.969 12.0435 26.5048C12.0435 24.1235 10.2484 22.5453 7.81954 22.5453C6.39647 22.5453 5.36739 22.984 4.80749 23.4312L5.53586 24.7426C6.09836 24.3599 6.7555 24.1881 7.35427 24.1881C8.62186 24.1881 9.59132 24.678 9.96072 25.6115H6.67124V27.2531ZM12.0189 31.6514H13.814V30.3364H19.006V31.6514H20.7998V28.6972H19.6631V22.6745H14.1963L14.125 24.2088C14.0045 26.7157 13.2514 28.3024 12.917 28.6972H12.0189V31.6514ZM15.9201 25.6115L16.0497 24.3172H17.7501V28.6972H15.0219C15.3096 28.3585 15.7879 26.935 15.9201 25.6115ZM21.7083 30.3364H26.7929V28.6972H23.6227V27.3043H26.3146V25.6664H23.6227V24.3172H26.6736V22.6745H21.7083V30.3364ZM32.8819 30.3364H34.7962V22.6745H29.245L29.1258 24.2088C28.7914 28.4572 28.0734 28.6972 27.3787 28.5864L27.3437 30.3364C29.306 30.6325 30.3584 29.8026 30.86 25.7614L31.0401 24.3172H32.8819V30.3364ZM39.0317 26.6681C39.7368 26.6681 40.3356 26.9216 40.3356 27.6577C40.3356 28.4352 39.7951 28.7192 39.0188 28.7192C38.8399 28.7192 38.6714 28.6972 38.4563 28.6765V26.7242C38.6948 26.6949 38.8762 26.6681 39.0317 26.6681ZM38.4563 22.6745H36.5433V30.3364C37.0319 30.3364 37.9314 30.362 38.792 30.362C41.1249 30.362 42.3678 29.253 42.3678 27.6138C42.3678 26.049 41.3764 25.0302 39.1989 25.0302C39.0188 25.0302 38.7557 25.0387 38.4563 25.0741V22.6745ZM43.5162 30.3145C44.0074 30.362 45.1195 30.3827 45.9217 30.3827C47.7401 30.3827 49.1023 29.6259 49.1023 28.0184C49.1023 27.0301 48.5164 26.4756 47.906 26.2647V26.2428C48.5294 25.8735 48.8638 25.3361 48.8638 24.5366C48.8638 23.4739 48.0512 22.6318 46.0526 22.6318C45.1427 22.6318 43.9841 22.6745 43.5162 22.6964V30.3145ZM46.1718 27.2409C46.7953 27.2409 47.1893 27.4469 47.1893 27.9283C47.1893 28.4438 46.8186 28.7411 46.0772 28.7411C45.7182 28.7411 45.5627 28.707 45.4305 28.6765V27.2409H46.1718ZM46.0293 24.2734C46.4946 24.2734 46.9508 24.5062 46.9508 24.9656C46.9508 25.5201 46.5555 25.7102 46.0643 25.7102H45.4305V24.3172C45.647 24.2953 45.7895 24.2734 46.0293 24.2734ZM50.4904 30.3364H55.5749V28.6972H52.406V27.3043H55.0966V25.6664H52.406V24.3172H55.4557V22.6745H50.4904V30.3364ZM58.6362 30.3364L62.3469 25.5762V30.3364H64.2586V22.6745H62.5854L58.876 27.4383V22.6745H56.963V30.3364H58.6362ZM58.2772 20.705C58.2772 21.7592 59.1987 22.4551 60.8137 22.4551C62.3106 22.4551 63.3268 21.7677 63.3021 20.705H61.5083C61.5083 21.1779 61.2686 21.251 60.8137 21.251C60.2887 21.251 60.0723 21.123 60.0723 20.705H58.2772ZM71.7966 28.2683C71.2341 28.6509 70.577 28.8264 69.9782 28.8264C68.4709 28.8264 67.4418 27.8637 67.4418 26.5048C67.4418 24.9961 68.4942 24.1881 69.7864 24.1881C70.577 24.1881 71.0423 24.4074 71.4959 24.6561L72.3461 23.3447C71.8446 22.8938 70.8997 22.5453 69.7864 22.5453C66.9039 22.5453 65.407 24.3087 65.407 26.5048C65.407 28.891 67.202 30.4693 69.7981 30.4693C70.9361 30.4693 72.0234 30.0951 72.525 29.5833L71.7966 28.2683Z"/>
</svg>
