<svg width="34" height="34" viewBox="0 0 34 34" xmlns="http://www.w3.org/2000/svg">
<path fill-rule="evenodd" clip-rule="evenodd" d="M17 0C26.3888 0 34 7.61116 34 17C34 26.3888 26.3888 34 17 34C7.61116 34 0 26.3888 0 17C0 7.61116 7.61116 0 17 0ZM21.5292 14.8455C21.4465 14.1738 21.24 13.6464 20.8734 13.1792C20.3973 12.5776 19.7888 12.2174 18.8881 12.0037C18.301 11.8613 18.0639 11.8776 17.8515 12.0716C17.6538 12.2533 17.6152 12.6175 17.7663 12.8534C17.8726 13.0246 17.9952 13.0859 18.3362 13.1529C18.7903 13.2364 19.1042 13.3449 19.3896 13.5081C19.9956 13.858 20.2777 14.4055 20.308 15.2918C20.3221 15.708 20.358 15.836 20.5034 15.9836C20.7728 16.2534 21.2523 16.2009 21.4557 15.878C21.5303 15.7563 21.5417 15.7033 21.5496 15.4207C21.5548 15.2458 21.5473 14.9854 21.5292 14.8455ZM21.5372 10.7243C22.9778 11.8892 23.7828 13.545 23.9024 15.6029C23.9528 16.4135 23.8859 16.6775 23.5999 16.8279C23.3419 16.9672 23.0495 16.9213 22.849 16.7116C22.7161 16.5751 22.6651 16.3885 22.667 16.0581C22.6728 15.1445 22.4624 14.1243 22.1201 13.4164C21.7241 12.5924 21.1118 11.8912 20.3416 11.3786C19.667 10.9283 18.7741 10.6242 17.9085 10.5485C17.347 10.4993 17.1465 10.4042 17.0387 10.1351C16.9719 9.97403 16.9895 9.69565 17.0678 9.57097C17.1418 9.456 17.3079 9.32886 17.4253 9.29525C17.5498 9.25895 18.2751 9.3224 18.669 9.40069C19.7445 9.61959 20.7256 10.0697 21.5372 10.7243ZM26.5287 23.5282C26.4884 23.4106 26.3945 23.2292 26.3274 23.125C25.9046 22.4866 23.6332 20.709 22.4991 20.1276C21.8516 19.795 21.3718 19.6841 21.0162 19.7883C20.6337 19.8959 20.4324 20.0739 19.7915 20.8703C19.5332 21.1895 19.2681 21.4886 19.1977 21.5356C19.0232 21.6566 18.681 21.7541 18.4394 21.7541C17.8791 21.7506 16.8625 21.3878 16.0807 20.9106C15.4735 20.541 14.6951 19.879 14.0979 19.2238C13.3932 18.4543 12.9135 17.7755 12.5343 17.0094C12.0445 16.0248 11.9204 15.4233 12.125 14.9831C12.1753 14.8723 12.2425 14.7547 12.2726 14.7177C12.3028 14.6841 12.6182 14.4254 12.9671 14.1431C13.6516 13.5988 13.7623 13.4744 13.8898 13.1014C14.0509 12.6276 14.0073 12.1437 13.759 11.6565C13.5677 11.2869 13.0678 10.4804 12.7055 9.95962C12.2257 9.27415 11.0312 7.80909 10.793 7.61078C10.3635 7.26135 9.81334 7.20083 9.206 7.43609C8.56522 7.68476 7.36404 8.65249 6.85069 9.32791C6.38768 9.93946 6.20991 10.3729 6.18304 10.9442C6.15957 11.4146 6.19982 11.6095 6.44811 12.211C8.39074 16.9287 11.2896 20.6955 15.2722 23.6862C17.3523 25.2487 19.5097 26.4382 21.7476 27.2514C23.0527 27.7252 23.6198 27.7487 24.2874 27.3589C24.5692 27.1909 25.2671 26.4752 25.6563 25.9543C26.3005 25.0874 26.5387 24.6875 26.6058 24.3683C26.6528 24.1499 26.6159 23.7702 26.5287 23.5282ZM25.6708 12.892C26.0795 13.9566 26.2755 14.9115 26.3185 16.0756C26.3253 16.3056 26.3221 16.7269 26.3072 17.0123C26.2762 17.5594 26.2465 17.6681 26.089 17.8129C25.8358 18.0504 25.3423 17.9938 25.1552 17.7075C25.0575 17.5539 25.0438 17.4414 25.0626 16.8022C25.1169 14.9113 24.7345 13.4308 23.8132 11.9504C22.7124 10.1743 21.0657 8.9778 18.9244 8.39245C18.3783 8.24346 17.9181 8.15265 17.2024 8.0563C16.7362 7.99528 16.6341 7.96948 16.5191 7.89866C16.1715 7.67603 16.1668 7.11228 16.5134 6.88626C16.6922 6.76695 16.824 6.76162 17.4069 6.83626C19.1159 7.04984 20.641 7.55768 21.8941 8.32508C22.7923 8.87587 23.3586 9.37068 24.0877 10.2373C24.859 11.1615 25.2673 11.8449 25.6708 12.892Z" />
</svg>
