<svg width="34" height="34" viewBox="0 0 34 34" xmlns="http://www.w3.org/2000/svg">
<path fill-rule="evenodd" clip-rule="evenodd" d="M17 34C7.61116 34 0 26.3888 0 17C0 7.61116 7.61116 0 17 0C26.3888 0 34 7.61116 34 17C34 26.3888 26.3888 34 17 34ZM17.5603 26.458C23.1338 26.4558 27.6668 21.9217 27.669 16.3494C27.6701 13.6484 26.6196 11.1087 24.7111 9.198C22.8025 7.28724 20.2645 6.2345 17.5602 6.23333C11.9884 6.23333 7.45364 10.7679 7.45142 16.3414C7.45066 18.1231 7.91614 19.862 8.80077 21.3951L7.36667 26.6333L12.7255 25.2276C14.2019 26.033 15.8643 26.4574 17.5562 26.458H17.5603Z" />
<path fill-rule="evenodd" clip-rule="evenodd" d="M12.9738 23.3976L9.7938 24.2317L10.6426 21.1313L10.4428 20.8134C9.60176 19.4757 9.15755 17.9296 9.1582 16.342C9.16004 11.7095 12.9292 7.9407 17.5637 7.9407C19.8079 7.94148 21.9174 8.81653 23.5037 10.4047C25.09 11.9928 25.9631 14.1038 25.9622 16.3488C25.9604 20.9816 22.1913 24.7508 17.5604 24.7508H17.557C16.0493 24.7502 14.5706 24.3452 13.2806 23.5797L12.9738 23.3976ZM22.6531 18.7532C22.59 18.6478 22.4216 18.5846 22.169 18.4582C21.9164 18.3317 20.6746 17.7208 20.4431 17.6364C20.2116 17.5521 20.0431 17.51 19.8748 17.7628C19.7064 18.0156 19.2224 18.5846 19.075 18.7532C18.9277 18.9217 18.7803 18.9429 18.5278 18.8164C18.2752 18.69 17.4614 18.4233 16.4966 17.5627C15.7457 16.893 15.2388 16.0659 15.0914 15.813C14.9441 15.5601 15.0757 15.4235 15.2022 15.2975C15.3158 15.1843 15.4548 15.0024 15.5811 14.855C15.7074 14.7075 15.7494 14.6021 15.8336 14.4337C15.9178 14.265 15.8757 14.1176 15.8126 13.9911C15.7494 13.8647 15.2443 12.6214 15.0338 12.1157C14.8288 11.6231 14.6206 11.6899 14.4655 11.6821C14.3184 11.6747 14.1498 11.6731 13.9814 11.6731C13.8131 11.6731 13.5394 11.7364 13.3079 11.9892C13.0764 12.2421 12.4239 12.8532 12.4239 14.0964C12.4239 15.3396 13.3289 16.5407 13.4552 16.7092C13.5815 16.8779 15.2363 19.4291 17.7701 20.5231C18.3727 20.7834 18.8431 20.9388 19.21 21.0552C19.8151 21.2475 20.3657 21.2204 20.8009 21.1553C21.2862 21.0828 22.2953 20.5443 22.5058 19.9543C22.7162 19.3642 22.7162 18.8585 22.6531 18.7532Z" />
</svg>
