<svg width="46" height="45" viewBox="0 0 46 45" fill="none" xmlns="http://www.w3.org/2000/svg">
<mask id="path-1-inside-1" fill="white">
<path d="M12.669 12.0358C12.3774 12.1075 11.8439 12.406 11.6765 12.5971C11.5896 12.6986 11.4469 12.9135 11.3539 13.0807L11.1864 13.3852L11.1678 17.6902L11.1492 22.0011L10.8576 22.0429C10.4916 22.0907 9.89608 22.3952 9.69137 22.6281C9.60452 22.7236 9.46184 22.9445 9.36879 23.1117L9.2013 23.4162L9.18269 25.5776L9.16408 27.7451H8.82289C8.54374 27.7451 8.45689 27.7689 8.33282 27.8943C8.17773 28.0376 8.17773 28.0496 8.17773 29.1781C8.17773 30.3065 8.17773 30.3185 8.33282 30.4618C8.45689 30.5872 8.54374 30.6111 8.82909 30.6111H9.17028V31.6559C9.17028 32.6889 9.17028 32.7068 9.32536 32.8501C9.46804 32.9934 9.49906 32.9994 10.411 32.9994C11.633 32.9994 11.5524 33.071 11.8377 31.6679L12.0487 30.6111H23.5622H35.0757L35.2866 31.6739C35.572 33.071 35.4913 32.9994 36.7134 32.9994C37.6253 32.9994 37.6563 32.9934 37.799 32.8501C37.9541 32.7068 37.9541 32.6889 37.9541 31.6559V30.6111H38.2953C38.5806 30.6111 38.6675 30.5872 38.7915 30.4618C38.9466 30.3185 38.9466 30.3065 38.9466 29.1781C38.9466 28.0496 38.9466 28.0376 38.7915 27.8943C38.6675 27.7689 38.5806 27.7451 38.3015 27.7451H37.9603L37.9417 25.5836L37.9231 23.4162L37.7122 23.04C37.5943 22.8311 37.4144 22.5982 37.3151 22.5146C37.036 22.2877 36.5893 22.0907 36.2668 22.0429L35.9752 22.0011L35.9566 17.6902L35.938 13.3852L35.7271 13.0091C35.4913 12.5911 35.299 12.412 34.8276 12.1732L34.5112 12.0119L23.6862 12C17.731 12 12.7745 12.0119 12.669 12.0358ZM34.3809 13.021C34.4926 13.0688 34.6663 13.2061 34.7655 13.3315L34.9454 13.5524L34.964 17.7857L34.9764 22.0131H34.4864H33.9963L33.9715 20.801C33.9529 19.6307 33.9467 19.5889 33.7854 19.2904C33.5373 18.8366 33.3512 18.6515 32.9169 18.4246L32.5261 18.2216H29.0212H25.5163L25.1999 18.3828C24.7284 18.6216 24.5361 18.8008 24.3004 19.2187L24.0895 19.5949L24.0709 20.801L24.046 22.0131H23.5622H23.0783L23.0535 20.801C23.0349 19.6307 23.0287 19.5889 22.8674 19.2904C22.6193 18.8366 22.4332 18.6515 21.9989 18.4246L21.6081 18.2216H18.1032H14.5983L14.2819 18.3828C13.8104 18.6216 13.6181 18.8008 13.3824 19.2187L13.1715 19.5949L13.1529 20.801L13.1281 22.0131H12.638H12.1479V17.8693C12.1479 15.075 12.1665 13.6659 12.2162 13.5524C12.303 13.3315 12.5077 13.1165 12.7372 13.021C13.0226 12.9016 34.077 12.9016 34.3809 13.021ZM21.4778 19.2307C21.5895 19.2784 21.7632 19.4158 21.8624 19.5411L22.0423 19.7621L22.061 20.8906L22.0796 22.0131H18.1094H14.133V20.9741C14.133 19.8934 14.1702 19.6964 14.3998 19.4516C14.6851 19.153 14.6851 19.153 18.0908 19.1471C20.6714 19.1471 21.3103 19.165 21.4778 19.2307ZM32.3958 19.2307C32.5075 19.2784 32.6812 19.4158 32.7804 19.5411L32.9603 19.7621L32.979 20.8906L32.9976 22.0131H29.0274H25.051V20.9741C25.051 19.8934 25.0882 19.6964 25.3177 19.4516C25.6031 19.153 25.6031 19.153 29.0088 19.1471C31.5894 19.1471 32.2283 19.165 32.3958 19.2307ZM36.366 23.052C36.4777 23.0998 36.6514 23.2371 36.7506 23.3625L36.9305 23.5834L36.9491 25.6672L36.9677 27.7451H23.5622H10.1628V25.7508C10.1628 23.6789 10.1752 23.5416 10.4296 23.2729C10.7335 22.9565 9.98913 22.9744 23.5498 22.9684C34.1948 22.9684 36.1923 22.9803 36.366 23.052ZM37.9541 29.1781V29.6557H23.5622H9.17028V29.1781V28.7004H23.5622H37.9541V29.1781ZM11.0127 30.7723C10.9941 30.8678 10.932 31.1902 10.87 31.4888L10.7584 32.044H10.4606H10.1628V31.3275V30.6111H10.6033H11.0499L11.0127 30.7723ZM36.9615 31.3275V32.044H36.6638H36.366L36.2544 31.4888C36.1923 31.1902 36.1303 30.8678 36.1117 30.7723L36.0807 30.6111H36.5211H36.9615V31.3275Z"/>
</mask>
<path d="M12.669 12.0358C12.3774 12.1075 11.8439 12.406 11.6765 12.5971C11.5896 12.6986 11.4469 12.9135 11.3539 13.0807L11.1864 13.3852L11.1678 17.6902L11.1492 22.0011L10.8576 22.0429C10.4916 22.0907 9.89608 22.3952 9.69137 22.6281C9.60452 22.7236 9.46184 22.9445 9.36879 23.1117L9.2013 23.4162L9.18269 25.5776L9.16408 27.7451H8.82289C8.54374 27.7451 8.45689 27.7689 8.33282 27.8943C8.17773 28.0376 8.17773 28.0496 8.17773 29.1781C8.17773 30.3065 8.17773 30.3185 8.33282 30.4618C8.45689 30.5872 8.54374 30.6111 8.82909 30.6111H9.17028V31.6559C9.17028 32.6889 9.17028 32.7068 9.32536 32.8501C9.46804 32.9934 9.49906 32.9994 10.411 32.9994C11.633 32.9994 11.5524 33.071 11.8377 31.6679L12.0487 30.6111H23.5622H35.0757L35.2866 31.6739C35.572 33.071 35.4913 32.9994 36.7134 32.9994C37.6253 32.9994 37.6563 32.9934 37.799 32.8501C37.9541 32.7068 37.9541 32.6889 37.9541 31.6559V30.6111H38.2953C38.5806 30.6111 38.6675 30.5872 38.7915 30.4618C38.9466 30.3185 38.9466 30.3065 38.9466 29.1781C38.9466 28.0496 38.9466 28.0376 38.7915 27.8943C38.6675 27.7689 38.5806 27.7451 38.3015 27.7451H37.9603L37.9417 25.5836L37.9231 23.4162L37.7122 23.04C37.5943 22.8311 37.4144 22.5982 37.3151 22.5146C37.036 22.2877 36.5893 22.0907 36.2668 22.0429L35.9752 22.0011L35.9566 17.6902L35.938 13.3852L35.7271 13.0091C35.4913 12.5911 35.299 12.412 34.8276 12.1732L34.5112 12.0119L23.6862 12C17.731 12 12.7745 12.0119 12.669 12.0358ZM34.3809 13.021C34.4926 13.0688 34.6663 13.2061 34.7655 13.3315L34.9454 13.5524L34.964 17.7857L34.9764 22.0131H34.4864H33.9963L33.9715 20.801C33.9529 19.6307 33.9467 19.5889 33.7854 19.2904C33.5373 18.8366 33.3512 18.6515 32.9169 18.4246L32.5261 18.2216H29.0212H25.5163L25.1999 18.3828C24.7284 18.6216 24.5361 18.8008 24.3004 19.2187L24.0895 19.5949L24.0709 20.801L24.046 22.0131H23.5622H23.0783L23.0535 20.801C23.0349 19.6307 23.0287 19.5889 22.8674 19.2904C22.6193 18.8366 22.4332 18.6515 21.9989 18.4246L21.6081 18.2216H18.1032H14.5983L14.2819 18.3828C13.8104 18.6216 13.6181 18.8008 13.3824 19.2187L13.1715 19.5949L13.1529 20.801L13.1281 22.0131H12.638H12.1479V17.8693C12.1479 15.075 12.1665 13.6659 12.2162 13.5524C12.303 13.3315 12.5077 13.1165 12.7372 13.021C13.0226 12.9016 34.077 12.9016 34.3809 13.021ZM21.4778 19.2307C21.5895 19.2784 21.7632 19.4158 21.8624 19.5411L22.0423 19.7621L22.061 20.8906L22.0796 22.0131H18.1094H14.133V20.9741C14.133 19.8934 14.1702 19.6964 14.3998 19.4516C14.6851 19.153 14.6851 19.153 18.0908 19.1471C20.6714 19.1471 21.3103 19.165 21.4778 19.2307ZM32.3958 19.2307C32.5075 19.2784 32.6812 19.4158 32.7804 19.5411L32.9603 19.7621L32.979 20.8906L32.9976 22.0131H29.0274H25.051V20.9741C25.051 19.8934 25.0882 19.6964 25.3177 19.4516C25.6031 19.153 25.6031 19.153 29.0088 19.1471C31.5894 19.1471 32.2283 19.165 32.3958 19.2307ZM36.366 23.052C36.4777 23.0998 36.6514 23.2371 36.7506 23.3625L36.9305 23.5834L36.9491 25.6672L36.9677 27.7451H23.5622H10.1628V25.7508C10.1628 23.6789 10.1752 23.5416 10.4296 23.2729C10.7335 22.9565 9.98913 22.9744 23.5498 22.9684C34.1948 22.9684 36.1923 22.9803 36.366 23.052ZM37.9541 29.1781V29.6557H23.5622H9.17028V29.1781V28.7004H23.5622H37.9541V29.1781ZM11.0127 30.7723C10.9941 30.8678 10.932 31.1902 10.87 31.4888L10.7584 32.044H10.4606H10.1628V31.3275V30.6111H10.6033H11.0499L11.0127 30.7723ZM36.9615 31.3275V32.044H36.6638H36.366L36.2544 31.4888C36.1923 31.1902 36.1303 30.8678 36.1117 30.7723L36.0807 30.6111H36.5211H36.9615V31.3275Z" fill="black" stroke="#363636" mask="url(#path-1-inside-1)"/>
</svg>
