<svg width="47" height="45" viewBox="0 0 47 45" fill="none" xmlns="http://www.w3.org/2000/svg">
<path d="M18.0757 10.0598C17.5878 10.3009 17.7444 11.1886 18.4371 12.0939C18.9611 12.7935 18.9912 13.2991 18.5274 13.9399C18.0757 14.5572 17.9612 14.7629 17.8588 15.151C17.7022 15.7624 17.8709 16.1562 18.2805 16.1562C18.5877 16.1504 18.7985 15.9152 18.7985 15.5742C18.7985 15.3156 18.8888 15.1274 19.2503 14.6454C19.684 14.0634 19.8285 13.6812 19.8285 13.0816C19.8285 12.529 19.7201 12.188 19.3948 11.7412C18.9732 11.1651 18.8527 10.9417 18.7985 10.5948C18.7142 10.1069 18.419 9.88346 18.0757 10.0598Z" fill="#363636"/>
<path d="M27.683 10.0481C27.4722 10.1656 27.4119 10.295 27.4119 10.6301C27.4119 11.0886 27.5505 11.4414 27.942 11.9705C28.3516 12.529 28.4359 12.723 28.4359 13.0875C28.4359 13.4461 28.3275 13.6989 28.0263 14.081C27.6107 14.5925 27.4179 15.051 27.4059 15.5507C27.3939 15.9446 27.5565 16.1562 27.8757 16.1562C28.1709 16.1562 28.3456 15.9622 28.3938 15.586C28.4359 15.2391 28.5504 14.9981 28.8274 14.6571C29.1346 14.275 29.2732 14.0222 29.3756 13.6224C29.5623 12.917 29.3876 12.2409 28.8274 11.5119C28.5022 11.0828 28.3757 10.8064 28.3757 10.5007C28.3757 10.1833 27.948 9.90697 27.683 10.0481Z" fill="#363636"/>
<path d="M16.5691 11.6883C16.3703 11.8823 16.3643 12.0587 16.5389 12.4173C16.6594 12.6642 16.7016 12.8405 16.6956 13.0992C16.6956 13.4931 16.6293 13.6401 16.2016 14.2162C15.8703 14.663 15.6655 15.1862 15.6655 15.6036C15.6655 15.9387 15.8643 16.1562 16.1655 16.1562C16.4486 16.1562 16.5992 15.974 16.6775 15.5213C16.7317 15.2274 16.804 15.0687 17.0329 14.7571C17.4605 14.1809 17.5208 14.0751 17.6292 13.7106C17.834 13.0228 17.6352 12.0587 17.2196 11.7177C17.0028 11.5413 16.7317 11.5296 16.5691 11.6883Z" fill="#363636"/>
<path d="M20.8163 11.7177C20.6235 11.8999 20.6296 12.0881 20.8163 12.4526C20.9789 12.77 21.0211 13.2521 20.9066 13.546C20.8705 13.6342 20.7018 13.8929 20.5332 14.1104C20.1236 14.6513 19.9489 15.0863 19.9429 15.5507C19.9429 15.8741 19.9609 15.927 20.0995 16.0328C20.4729 16.3209 20.8584 16.1034 20.9307 15.5684C20.9849 15.1921 21.009 15.1392 21.4307 14.5748C21.8523 14.0105 22.021 13.4814 21.9668 12.9287C21.8704 11.8823 21.2801 11.2591 20.8163 11.7177Z" fill="#363636"/>
<path d="M26.219 11.6648C25.9721 11.8294 25.948 12.0175 26.1106 12.3761C26.4238 13.0404 26.3757 13.4402 25.8938 14.0751C25.5263 14.5689 25.3215 14.9922 25.2673 15.3861C25.2011 15.8799 25.3818 16.1562 25.7733 16.1562C26.0263 16.1562 26.201 15.9446 26.2672 15.5507C26.3275 15.1627 26.3516 15.1157 26.7672 14.5513C27.1828 13.9869 27.3093 13.5989 27.2792 12.964C27.2551 12.4349 27.0202 11.8176 26.7853 11.653C26.6226 11.5413 26.3877 11.5472 26.219 11.6648Z" fill="#363636"/>
<path d="M30.424 11.6883C30.2253 11.8823 30.2132 12.0704 30.3939 12.3996C30.5144 12.6348 30.5505 12.7818 30.5505 13.0757C30.5505 13.4872 30.5144 13.5695 29.9964 14.3162C29.6892 14.7512 29.5205 15.2097 29.5205 15.6095C29.5205 15.9387 29.7193 16.1562 30.0205 16.1562C30.3096 16.1562 30.4662 15.9681 30.5385 15.5213C30.5867 15.2215 30.659 15.0745 30.8878 14.7571C31.3155 14.1809 31.3758 14.0751 31.4842 13.7106C31.689 13.0228 31.4902 12.0587 31.0746 11.7177C30.8577 11.5413 30.5867 11.5296 30.424 11.6883Z" fill="#363636"/>
<path d="M9.10031 16.7853C9.05212 16.8029 8.94972 16.8735 8.87744 16.9381L8.7389 17.0557V25.4861V33.9105L8.58831 33.9458C8.40158 33.9928 8.19678 34.2339 8.19678 34.4161C8.19678 34.4867 8.26304 34.6277 8.34134 34.7159C8.47988 34.8688 8.52205 34.8805 9.04007 34.9041C9.71471 34.9276 9.9677 34.8864 10.1243 34.7218C10.3652 34.469 10.2147 34.0222 9.85325 33.934L9.70266 33.8988V29.4661V25.0334H23.617H37.5314V29.4661V33.8988L37.3808 33.934C37.0194 34.0222 36.8688 34.469 37.1097 34.7218C37.2663 34.8864 37.5193 34.9276 38.194 34.9041C38.712 34.8805 38.7541 34.8688 38.8927 34.7159C38.971 34.6277 39.0373 34.4867 39.0373 34.4161C39.0373 34.2339 38.8325 33.9928 38.6457 33.9458L38.4951 33.9105V25.4861V17.0557L38.3626 16.9381C38.1578 16.7618 38.0313 16.7382 37.7964 16.8323C37.6458 16.8911 37.5796 16.9616 37.5555 17.0969L37.5133 17.2732H23.617H9.72073L9.67857 17.0969C9.65447 16.9616 9.58821 16.8911 9.4316 16.8323C9.31715 16.7853 9.21475 16.7441 9.20873 16.75C9.19668 16.75 9.1485 16.7676 9.10031 16.7853ZM37.5193 19.8423L37.5013 21.4178H23.617H9.73278L9.71471 19.8423L9.70266 18.2726H23.617H37.5314L37.5193 19.8423ZM37.5193 23.2227L37.5374 24.034H23.617H9.70266V23.2521C9.70266 22.817 9.72073 22.4467 9.74482 22.429C9.7629 22.4055 16.0213 22.3937 23.6411 22.3996L37.5013 22.4173L37.5193 23.2227Z" fill="#363636"/>
<path d="M11.1726 19.413C10.8172 19.5658 10.775 20.0185 11.1003 20.236C11.2147 20.3183 11.4979 20.3301 13.2266 20.3301C14.9554 20.3301 15.2385 20.3183 15.3529 20.236C15.6782 20.0185 15.63 19.5599 15.2686 19.413C14.9855 19.2954 11.4497 19.2954 11.1726 19.413Z" fill="#363636"/>
<path d="M18.0992 19.413C17.7499 19.5599 17.7077 20.0185 18.027 20.236C18.1414 20.3183 18.4245 20.3301 20.1533 20.3301C21.882 20.3301 22.1651 20.3183 22.2796 20.236C22.6049 20.0185 22.5567 19.5599 22.1953 19.413C21.9061 19.2954 18.3763 19.2954 18.0992 19.413Z" fill="#363636"/>
<path d="M25.0265 19.413C24.6771 19.5599 24.635 20.0185 24.9542 20.236C25.0687 20.3183 25.3518 20.3301 27.0805 20.3301C28.8093 20.3301 29.0924 20.3183 29.2068 20.236C29.5321 20.0185 29.4839 19.5599 29.1225 19.413C28.8334 19.2954 25.3036 19.2954 25.0265 19.413Z" fill="#363636"/>
<path d="M31.9537 19.413C31.6044 19.5599 31.5622 20.0185 31.8815 20.236C31.9959 20.3183 32.279 20.3301 34.0138 20.3301C35.9112 20.3301 36.0196 20.3242 36.1642 20.2125C36.4714 19.9715 36.3931 19.5247 36.0196 19.3953C35.7245 19.2954 32.1947 19.313 31.9537 19.413Z" fill="#363636"/>
</svg>
