<svg width="31" height="31" viewBox="0 0 31 31" fill="none" xmlns="http://www.w3.org/2000/svg">
<path d="M27.1624 24.15C25.7731 22.7931 23.943 21.8128 21.7152 21.2329L21.4275 21.1612L20.2035 22.3567C20.026 22.5301 19.4874 23.0561 17.7981 22.2013C16.5006 21.5498 14.8298 20.2287 12.8284 18.274C9.22345 14.7532 7.80965 12.2605 8.83788 11.2563L10.0803 10.0428L9.97014 9.74391C9.20508 7.64576 8.14014 5.92419 6.79977 4.62107C6.03472 3.87386 5.15338 3.17448 4.18636 2.54682L3.77018 2.27783L3.48252 2.67833C2.43593 4.1309 0.599786 6.87464 0.0428287 8.96084L0 9.13419L0.0734419 9.29559C1.10167 11.5372 2.40532 13.7429 3.93542 15.8471C5.46552 17.9452 7.27104 20.0195 9.30301 22.0041C11.2799 23.9348 13.367 25.6624 15.503 27.1448C17.6451 28.6273 19.9036 29.9005 22.2171 30.9227L22.3885 31.0004L22.566 30.9526C24.9774 30.295 27.8662 28.3882 28.9924 27.5931L29.3413 27.3481L29.1576 26.9715C28.6558 25.8955 27.9825 24.951 27.1624 24.15ZM22.4742 29.9185C20.283 28.9321 18.1409 27.7187 16.1028 26.3139C14.0096 24.8614 11.9715 23.1697 10.0313 21.2808C8.04221 19.338 6.27341 17.3056 4.77391 15.2493C3.31726 13.2468 2.07482 11.1546 1.08943 9.03257C1.61579 7.25721 3.15201 4.91397 4.03335 3.65269C4.78616 4.17275 5.47164 4.72866 6.07756 5.32045C7.24044 6.4562 8.18911 7.95659 8.89296 9.77379L8.10954 10.5389C6.54272 12.0692 7.84636 14.8309 12.1 18.9794C14.1749 21.0058 15.9314 22.3926 17.3269 23.092C18.8937 23.881 20.1055 23.8691 20.9318 23.0621L21.7336 22.279C23.6554 22.823 25.2345 23.6897 26.4341 24.8614C27.0706 25.483 27.6092 26.2004 28.0376 27.0073C26.942 27.7605 24.5 29.3147 22.4742 29.9185Z" fill="#F3E7DB"/>
<path d="M18.0371 7.89095C20.7302 7.89095 22.9152 10.0309 22.9152 12.6551H23.9435C23.9435 9.47502 21.2933 6.88672 18.0371 6.88672V7.89095V7.89095Z" fill="#F3E7DB"/>
<path d="M29.9716 13.0611H30.9998C30.9998 5.85808 25.0019 0 17.627 0V1.00424C24.4327 0.998261 29.9716 6.40802 29.9716 13.0611Z" fill="#F3E7DB"/>
</svg>
