<svg width="22" height="22" viewBox="0 0 22 22" fill="none" xmlns="http://www.w3.org/2000/svg">
<path d="M9.04185 17.2429H9.19273C10.6827 17.2429 11.8898 16.0315 11.8898 14.5466V8.84766C11.8898 7.3581 10.678 6.15137 9.19273 6.15137H9.04185C7.55183 6.15137 6.34473 7.36281 6.34473 8.84766V14.5466C6.34473 16.0315 7.55183 17.2429 9.04185 17.2429ZM7.13688 8.84766C7.13688 7.79648 7.99035 6.94328 9.04185 6.94328H9.19273C10.2442 6.94328 11.0977 7.79648 11.0977 8.84766V14.5466C11.0977 15.5978 10.2442 16.451 9.19273 16.451H9.04185C7.99035 16.451 7.13688 15.5978 7.13688 14.5466V8.84766Z" fill="#363636"/>
<path d="M11.098 9.71582H9.51367V10.508H11.098V9.71582Z" fill="#363636"/>
<path d="M11.098 11.2998H9.51367V12.092H11.098V11.2998Z" fill="#363636"/>
<path d="M11.098 12.8828H9.51367V13.675H11.098V12.8828Z" fill="#363636"/>
<path d="M0.832906 22H17.3975C17.8549 22 18.2274 21.6276 18.2274 21.1656V19.6619C18.2274 19.2047 17.8549 18.8323 17.3975 18.8323H17.0392V8.97576C17.0392 8.93805 17.0345 8.89563 17.0203 8.85792L15.5492 4.17239H16.6761C17.0533 4.17239 17.4211 4.32323 17.6852 4.59192C17.7748 4.68148 17.8266 4.80876 17.8266 4.93603V10.5502C17.8266 10.9037 18.0011 11.2337 18.2982 11.4316L19.6514 12.332C19.7976 12.431 19.9626 12.4781 20.1324 12.4781C20.2739 12.4781 20.4153 12.4451 20.5426 12.3744C20.8255 12.2236 21 11.9313 21 11.6108V4.17711C21 3.30035 20.6605 2.47542 20.0381 1.8532C19.4864 1.30168 18.7555 1 17.9728 1H14.2619H13.7197H3.96383C3.78936 1 3.63376 1.11313 3.58661 1.28283L3.3367 2.10775L0.521698 2.41886C0.356665 2.44243 0.205782 2.53199 0.106762 2.66869C0.012457 2.80539 -0.0205554 2.97037 0.0124513 3.12121L1.19598 9.27273V18.8229H0.837619C0.38024 18.8229 0.00773863 19.1953 0.00773863 19.6525V21.1562C0.00302338 21.6229 0.375528 22 0.832906 22ZM17.9822 1.79193C18.5481 1.79193 19.0856 2.01347 19.4864 2.41414C19.9579 2.88552 20.2173 3.51247 20.2173 4.17711V11.6108C20.2173 11.6391 20.2031 11.6626 20.1796 11.6768C20.1513 11.6909 20.1277 11.6909 20.1041 11.6721L18.7508 10.7717C18.6754 10.7246 18.633 10.6397 18.633 10.5502V4.93131C18.633 4.59663 18.4962 4.26667 18.2604 4.02627C17.8408 3.60674 17.2844 3.37576 16.6903 3.37576H15.3559L14.8278 1.79193H17.9822V1.79193ZM1.97871 9.16431L0.828193 3.18249L3.68563 2.86668C3.84123 2.84782 3.97326 2.73939 4.02041 2.58855L4.26089 1.79193H13.979L16.2517 9.03232V18.8276H1.98343V9.23973C1.98343 9.21616 1.98343 9.18788 1.97871 9.16431ZM0.795183 19.6619C0.795183 19.6431 0.814045 19.6242 0.832906 19.6242H1.58735H16.6478H17.4023C17.4211 19.6242 17.44 19.6431 17.44 19.6619V21.1656C17.44 21.1845 17.4211 21.2034 17.4023 21.2034H0.837619C0.818758 21.2034 0.799903 21.1845 0.799903 21.1656V19.6619H0.795183Z" fill="#363636"/>
</svg>
