<svg width="21" height="19" viewBox="0 0 21 19" fill="none" xmlns="http://www.w3.org/2000/svg">
<path d="M15.9206 9.4017C17.4562 8.54237 18.5036 6.9 18.5036 5.01864C18.5036 2.25254 16.2511 0 13.485 0C10.7189 0 8.46634 2.25254 8.46634 5.01864C8.46634 6.9 9.50871 8.54237 11.0494 9.4017C8.14091 9.95085 5.96973 12.0102 5.96973 14.4661V18.5797H7.16464V14.4661C7.16464 12.2542 9.59515 10.4542 12.5799 10.4542H14.3901C17.3748 10.4542 19.8053 12.2542 19.8053 14.4661V18.5797H21.0002V14.4661C21.0002 12.0102 18.8291 9.95085 15.9206 9.4017ZM13.485 8.84237C11.3748 8.84237 9.66125 7.12881 9.66125 5.01864C9.66125 2.90847 11.3748 1.19491 13.485 1.19491C15.5951 1.19491 17.3087 2.90847 17.3087 5.01864C17.3087 7.12881 15.5901 8.84237 13.485 8.84237Z" fill="#363636"/>
<path d="M2.48644 12.6456H3.57458V10.0574H6.0661V9.0964H3.57458V6.53369H2.48644V9.0964H0V10.0574H2.48644V12.6456Z" fill="#363636"/>
</svg>
