<svg width="22" height="22" viewBox="0 0 22 22" fill="none" xmlns="http://www.w3.org/2000/svg">
<path d="M2.97159 22H20.0941C20.5917 22 21 21.5934 21 21.0979V0.902058C21 0.401951 20.5917 0 20.0941 0H2.97159C2.47406 0 2.06571 0.406625 2.06571 0.902058V3.34651C2.02816 3.40727 2 3.47736 2 3.55215C2 3.62693 2.02816 3.69704 2.06571 3.7578V21.0979C2.06102 21.5934 2.46937 22 2.97159 22ZM20.2115 0.902058V21.0979C20.2115 21.1634 20.1598 21.2148 20.0941 21.2148H15.4755V0.78521H20.0941C20.1598 0.78521 20.2115 0.836623 20.2115 0.902058ZM2.97159 0.78521H14.6917V21.2148H2.97159C2.90588 21.2148 2.85425 21.1634 2.85425 21.0979V3.94477H6.59042C6.69837 3.94477 6.80633 3.95878 6.91428 3.98215C7.54323 4.13172 7.98444 4.68792 7.98444 5.33291V5.49649H5.61883C5.40292 5.49649 5.22455 5.67409 5.22455 5.88909C5.22455 6.10409 5.40292 6.28171 5.61883 6.28171H11.1433C11.3592 6.28171 11.5376 6.10409 11.5376 5.88909C11.5376 5.67409 11.3592 5.49649 11.1433 5.49649H8.77767V5.33291C8.77767 4.32335 8.0877 3.454 7.10202 3.2203C6.93775 3.18291 6.76409 3.15954 6.59511 3.15954H2.85894V0.902058C2.84956 0.836623 2.90588 0.78521 2.97159 0.78521Z" fill="#020202"/>
<path d="M6.4028 17.6768H5.61426V19.2472H6.4028V17.6768Z" fill="#020202"/>
<path d="M16.865 12.7317C17.0809 12.7317 17.2592 12.5541 17.2592 12.3391V9.98343C17.2592 9.76843 17.0809 9.59082 16.865 9.59082C16.6491 9.59082 16.4707 9.76843 16.4707 9.98343V12.3391C16.4707 12.5587 16.6491 12.7317 16.865 12.7317Z" fill="#020202"/>
<path d="M6.4028 8.24902H5.61426V9.81944H6.4028V8.24902Z" fill="#020202"/>
<path d="M8.76851 8.24902H7.97998V9.81944H8.76851V8.24902Z" fill="#020202"/>
<path d="M11.134 8.24902H10.3455V9.81944H11.134V8.24902Z" fill="#020202"/>
<path d="M6.4028 10.6055H5.61426V12.1759H6.4028V10.6055Z" fill="#020202"/>
<path d="M8.76851 10.6055H7.97998V12.1759H8.76851V10.6055Z" fill="#020202"/>
<path d="M11.134 10.6055H10.3455V12.1759H11.134V10.6055Z" fill="#020202"/>
<path d="M6.4028 12.9609H5.61426V14.5314H6.4028V12.9609Z" fill="#020202"/>
<path d="M8.76851 12.9609H7.97998V14.5314H8.76851V12.9609Z" fill="#020202"/>
<path d="M11.134 12.9609H10.3455V14.5314H11.134V12.9609Z" fill="#020202"/>
<path d="M6.4028 15.3223H5.61426V16.8927H6.4028V15.3223Z" fill="#020202"/>
<path d="M8.76851 15.3223H7.97998V16.8927H8.76851V15.3223Z" fill="#020202"/>
<path d="M11.134 15.3223H10.3455V16.8927H11.134V15.3223Z" fill="#020202"/>
<path d="M8.76851 17.6768H7.97998V19.2472H8.76851V17.6768Z" fill="#020202"/>
<path d="M11.134 17.6768H10.3455V19.2472H11.134V17.6768Z" fill="#020202"/>
</svg>
