<svg width="22" height="22" viewBox="0 0 22 22" fill="none" xmlns="http://www.w3.org/2000/svg">
<path d="M20.1902 1H0.809828C0.360952 1 0 1.36558 0 1.80983V21.1902C0 21.639 0.36558 22 0.809828 22H20.1902C20.639 22 21 21.6344 21 21.1902V1.80983C21.0046 1.36095 20.639 1 20.1902 1ZM20.2272 21.1902C20.2272 21.2087 20.2133 21.2226 20.1948 21.2226H0.81446C0.79595 21.2226 0.782064 21.2087 0.782064 21.1902V1.80983C0.782064 1.79132 0.79595 1.77743 0.81446 1.77743H20.1948C20.2133 1.77743 20.2272 1.79132 20.2272 1.80983V21.1902Z" fill="#020202"/>
<path d="M6.61267 9.94505C8.32951 9.94505 9.72241 8.54752 9.72241 6.83531C9.72241 5.1231 8.32488 3.72559 6.61267 3.72559C4.90046 3.72559 3.50293 5.1231 3.50293 6.83531C3.50293 8.54752 4.89583 9.94505 6.61267 9.94505ZM6.61267 4.49839C7.89914 4.49839 8.94498 5.54422 8.94498 6.83069C8.94498 8.11716 7.89914 9.163 6.61267 9.163C5.3262 9.163 4.28036 8.11716 4.28036 6.83069C4.27573 5.54885 5.3262 4.49839 6.61267 4.49839Z" fill="#020202"/>
<path d="M14.3918 3.72168C12.675 3.72168 11.2821 5.11921 11.2821 6.83142C11.2821 8.54363 12.6796 9.94116 14.3918 9.94116C16.1087 9.94116 17.5016 8.54363 17.5016 6.83142C17.5016 5.11921 16.1041 3.72168 14.3918 3.72168ZM14.3918 9.16835C13.1054 9.16835 12.0596 8.12251 12.0596 6.83604C12.0596 5.54957 13.1054 4.50374 14.3918 4.50374C15.6783 4.50374 16.7242 5.54957 16.7242 6.83604C16.7242 8.12251 15.6783 9.16835 14.3918 9.16835Z" fill="#020202"/>
<path d="M14.3918 10.7227C12.675 10.7227 11.2821 12.1202 11.2821 13.8324C11.2821 15.5492 12.6796 16.9421 14.3918 16.9421C16.1087 16.9421 17.5016 15.5446 17.5016 13.8324C17.5016 12.1202 16.1041 10.7227 14.3918 10.7227ZM14.3918 16.1693C13.1054 16.1693 12.0596 15.1235 12.0596 13.837C12.0596 12.5505 13.1054 11.5047 14.3918 11.5047C15.6783 11.5047 16.7242 12.5505 16.7242 13.837C16.7242 15.1235 15.6783 16.1693 14.3918 16.1693Z" fill="#020202"/>
<path d="M9.72241 13.8363C9.72241 12.1195 8.32488 10.7266 6.61267 10.7266C4.90046 10.7266 3.50293 12.1241 3.50293 13.8363C3.50293 15.5531 4.90046 16.946 6.61267 16.946C8.32488 16.946 9.72241 15.5485 9.72241 13.8363ZM4.27574 13.8363C4.27574 12.5498 5.32157 11.504 6.60804 11.504C7.89451 11.504 8.94035 12.5498 8.94035 13.8363C8.94035 15.1228 7.89451 16.1686 6.60804 16.1686C5.3262 16.1686 4.27574 15.1228 4.27574 13.8363Z" fill="#020202"/>
<path d="M7.23756 18.501H6.76556C6.46476 18.501 6.22412 18.7462 6.22412 19.0424V20.2919C6.22412 20.5926 6.46939 20.8333 6.76556 20.8333H7.23756C7.53836 20.8333 7.779 20.588 7.779 20.2919V19.0424C7.779 18.7462 7.53373 18.501 7.23756 18.501Z" fill="#020202"/>
<path d="M9.56984 18.501H9.09782C8.79702 18.501 8.5564 18.7462 8.5564 19.0424V20.2919C8.5564 20.5926 8.80165 20.8333 9.09782 20.8333H9.56984C9.87063 20.8333 10.1113 20.588 10.1113 20.2919V19.0424C10.1113 18.7462 9.87063 18.501 9.56984 18.501Z" fill="#020202"/>
<path d="M11.9021 18.501H11.4301C11.1293 18.501 10.8887 18.7462 10.8887 19.0424V20.2919C10.8887 20.5926 11.1339 20.8333 11.4301 20.8333H11.9021C12.2029 20.8333 12.4435 20.588 12.4435 20.2919V19.0424C12.4435 18.7462 12.2029 18.501 11.9021 18.501Z" fill="#020202"/>
<path d="M14.2392 18.501H13.7671C13.4663 18.501 13.2257 18.7462 13.2257 19.0424V20.2919C13.2257 20.5926 13.471 20.8333 13.7671 20.8333H14.2392C14.5399 20.8333 14.7806 20.588 14.7806 20.2919V19.0424C14.7806 18.7462 14.5353 18.501 14.2392 18.501Z" fill="#020202"/>
</svg>
