<svg width="46" height="46" viewBox="0 0 46 46" fill="none" xmlns="http://www.w3.org/2000/svg">
<path d="M36.8431 8H9.1569C8.51565 8 8 8.52226 8 9.1569V36.8431C8 37.4844 8.52226 38 9.1569 38H36.8431C37.4844 38 38 37.4777 38 36.8431V9.1569C38.0066 8.51565 37.4844 8 36.8431 8ZM36.896 36.8431C36.896 36.8695 36.8762 36.8894 36.8497 36.8894H9.16351C9.13707 36.8894 9.11723 36.8695 9.11723 36.8431V9.1569C9.11723 9.13045 9.13707 9.11062 9.16351 9.11062H36.8497C36.8762 9.11062 36.896 9.13045 36.896 9.1569V36.8431Z" fill="#363636"/>
<path d="M17.4466 20.7785C19.8993 20.7785 21.8891 18.782 21.8891 16.336C21.8891 13.89 19.8926 11.8936 17.4466 11.8936C15.0006 11.8936 13.0042 13.89 13.0042 16.336C13.0042 18.782 14.994 20.7785 17.4466 20.7785ZM17.4466 12.9976C19.2844 12.9976 20.7785 14.4916 20.7785 16.3294C20.7785 18.1672 19.2844 19.6613 17.4466 19.6613C15.6088 19.6613 14.1148 18.1672 14.1148 16.3294C14.1082 14.4982 15.6088 12.9976 17.4466 12.9976Z" fill="#363636"/>
<path d="M28.5598 11.8887C26.1072 11.8887 24.1173 13.8851 24.1173 16.3312C24.1173 18.7772 26.1138 20.7736 28.5598 20.7736C31.0124 20.7736 33.0023 18.7772 33.0023 16.3312C33.0023 13.8851 31.0058 11.8887 28.5598 11.8887ZM28.5598 19.6696C26.722 19.6696 25.2279 18.1756 25.2279 16.3378C25.2279 14.4999 26.722 13.0059 28.5598 13.0059C30.3976 13.0059 31.8917 14.4999 31.8917 16.3378C31.8917 18.1756 30.3976 19.6696 28.5598 19.6696Z" fill="#363636"/>
<path d="M28.5598 21.8896C26.1072 21.8896 24.1173 23.8861 24.1173 26.3321C24.1173 28.7848 26.1138 30.7746 28.5598 30.7746C31.0124 30.7746 33.0023 28.7781 33.0023 26.3321C33.0023 23.8861 31.0058 21.8896 28.5598 21.8896ZM28.5598 29.6706C26.722 29.6706 25.2279 28.1765 25.2279 26.3387C25.2279 24.5009 26.722 23.0069 28.5598 23.0069C30.3976 23.0069 31.8917 24.5009 31.8917 26.3387C31.8917 28.1765 30.3976 29.6706 28.5598 29.6706Z" fill="#363636"/>
<path d="M21.8891 26.337C21.8891 23.8844 19.8926 21.8945 17.4466 21.8945C15.0006 21.8945 13.0042 23.891 13.0042 26.337C13.0042 28.7896 15.0006 30.7795 17.4466 30.7795C19.8926 30.7795 21.8891 28.783 21.8891 26.337ZM14.1082 26.337C14.1082 24.4992 15.6022 23.0052 17.44 23.0052C19.2778 23.0052 20.7719 24.4992 20.7719 26.337C20.7719 28.1748 19.2778 29.6689 17.44 29.6689C15.6088 29.6689 14.1082 28.1748 14.1082 26.337Z" fill="#363636"/>
<path d="M18.3394 33.001H17.6651C17.2354 33.001 16.8916 33.3513 16.8916 33.7744V35.5594C16.8916 35.9891 17.242 36.3328 17.6651 36.3328H18.3394C18.7691 36.3328 19.1129 35.9825 19.1129 35.5594V33.7744C19.1129 33.3513 18.7625 33.001 18.3394 33.001Z" fill="#363636"/>
<path d="M21.6712 33.001H20.9968C20.5671 33.001 20.2234 33.3513 20.2234 33.7744V35.5594C20.2234 35.9891 20.5738 36.3328 20.9968 36.3328H21.6712C22.1009 36.3328 22.4446 35.9825 22.4446 35.5594V33.7744C22.4446 33.3513 22.1009 33.001 21.6712 33.001Z" fill="#363636"/>
<path d="M25.0031 33.001H24.3288C23.8991 33.001 23.5553 33.3513 23.5553 33.7744V35.5594C23.5553 35.9891 23.9057 36.3328 24.3288 36.3328H25.0031C25.4328 36.3328 25.7766 35.9825 25.7766 35.5594V33.7744C25.7766 33.3513 25.4328 33.001 25.0031 33.001Z" fill="#363636"/>
<path d="M28.3416 33.001H27.6673C27.2376 33.001 26.8938 33.3513 26.8938 33.7744V35.5594C26.8938 35.9891 27.2442 36.3328 27.6673 36.3328H28.3416C28.7713 36.3328 29.115 35.9825 29.115 35.5594V33.7744C29.115 33.3513 28.7647 33.001 28.3416 33.001Z" fill="#363636"/>
</svg>
