<svg width="46" height="45" viewBox="0 0 46 45" fill="none" xmlns="http://www.w3.org/2000/svg">
<path d="M26.4239 7.0353C24.6999 7.18402 22.7015 7.73725 21.2459 8.463L20.8463 8.6593L20.5301 8.4273C19.0924 7.33868 17.0165 7.13643 15.3641 7.91571C14.2485 8.44515 13.3239 9.391 12.8586 10.4796C12.5365 11.2411 12.4708 11.5861 12.4708 12.526C12.4708 13.2934 12.4887 13.448 12.6319 13.912C12.8646 14.6616 13.139 15.1672 13.6997 15.8692L13.8608 16.0655L13.658 16.6663C13.3239 17.6598 13.2105 18.326 13.1688 19.486C13.1151 21.0446 13.2941 21.9607 13.9741 23.6799C14.3559 24.6436 14.4573 25.06 14.4573 25.643C14.4633 27.261 13.485 28.8196 11.7431 29.9439C10.0727 31.0266 9.67903 31.2943 9.0646 31.7583C8.27716 32.3531 8.06838 32.6387 8.03258 33.1741C7.98486 33.8344 8.03855 33.9117 9.74465 35.625C10.5858 36.4697 11.3792 37.2192 11.5104 37.2906C11.6894 37.3858 11.8564 37.4155 12.1666 37.4155C12.8049 37.4155 13.0674 37.249 13.7057 36.4042C14.1829 35.7737 14.8212 34.8278 15.3044 34.0485C15.9069 33.0729 16.1873 32.6982 16.6645 32.2342C17.3863 31.5263 18.2573 31.0623 19.2296 30.86C19.8142 30.741 20.5003 30.8184 21.2459 31.0861C23.2086 31.794 23.7275 31.9129 24.9624 31.9605C27.6289 32.0617 30.0807 31.1693 32.5146 29.2003C37.2571 25.3753 39.339 19.0993 37.5971 13.8704C36.4577 10.4499 33.5585 7.9514 29.8838 7.23755C28.7981 7.02935 27.4201 6.94607 26.4239 7.0353ZM28.6072 8.07038C32.7353 8.48679 35.8075 11.021 36.8276 14.846C37.7701 18.3914 36.8634 22.502 34.4235 25.7619C33.1409 27.4811 31.3036 29.0635 29.5736 29.9439C28.6251 30.4258 27.438 30.8065 26.6506 30.8838L26.3046 30.9195L20.2497 24.8756L14.2008 18.8376L14.2664 18.3677C14.3261 17.975 14.6124 16.815 14.6661 16.7615C14.678 16.7555 14.8868 16.8507 15.1254 16.9816C15.37 17.1125 15.8115 17.2909 16.1038 17.3802C16.581 17.5229 16.7361 17.5408 17.5056 17.5467C18.2274 17.5467 18.4482 17.5229 18.8359 17.4159C21.1028 16.7734 22.5882 14.8222 22.5882 12.4962C22.5882 11.5206 22.3197 10.5807 21.8305 9.81931C21.7172 9.6349 21.6218 9.46833 21.6218 9.43859C21.6218 9.36126 22.6478 8.927 23.471 8.6593C25.1473 8.10607 26.9608 7.89787 28.6072 8.07038ZM18.3945 8.55223C19.8381 8.82587 21.0729 10.0335 21.4726 11.5444C21.6754 12.3118 21.5502 13.573 21.1982 14.263C20.4466 15.7562 18.8777 16.6663 17.2491 16.5473C15.203 16.4046 13.6043 14.8044 13.4671 12.758C13.3239 10.6283 14.8928 8.74854 17.0284 8.48084C17.446 8.43325 17.8815 8.4511 18.3945 8.55223ZM24.8729 30.9552C24.8252 31.0028 23.5367 30.7827 23.0833 30.6459C22.8208 30.5685 22.3257 30.396 21.9737 30.2651C20.9357 29.8666 20.6673 29.813 19.8023 29.813C19.0626 29.813 18.997 29.8249 18.3706 30.0391C17.5951 30.3008 17.1 30.5566 16.5094 31.0087C15.7458 31.5858 15.2746 32.1628 14.338 33.6619C13.5625 34.9111 12.5663 36.2674 12.3515 36.3685C12.2621 36.4161 12.1308 36.434 12.0592 36.4161C11.9876 36.3983 11.2778 35.732 10.4784 34.9349C8.86774 33.3228 8.85581 33.299 9.21373 32.948C9.51797 32.6506 10.7409 31.788 11.7192 31.1753C12.8109 30.4912 13.2105 30.1819 13.7832 29.587C14.4752 28.8672 14.9047 28.1593 15.2507 27.142C15.4058 26.678 15.4416 26.4817 15.4655 25.869C15.5013 24.9589 15.4058 24.5246 14.9405 23.3527C14.7496 22.8768 14.5408 22.2879 14.4692 22.044C14.338 21.5502 14.165 20.6282 14.165 20.3843C14.165 20.2534 15.0718 21.1338 19.5339 25.5835C22.4808 28.5222 24.8848 30.9433 24.8729 30.9552Z" fill="#363636"/>
<path d="M16.6107 9.60522C15.519 9.96809 14.6779 10.9377 14.5109 12.0383C14.4751 12.2643 14.4632 12.5142 14.487 12.6034C14.5407 12.8294 14.7555 13.002 14.9643 13.002C15.2924 12.996 15.4355 12.8116 15.5011 12.2881C15.6145 11.4136 16.2587 10.6998 17.07 10.557C17.7859 10.4261 17.8694 10.3905 17.9589 10.1763C18.0543 9.9443 17.9827 9.64686 17.8038 9.55168C17.6308 9.4565 16.9686 9.48625 16.6107 9.60522Z" fill="#363636"/>
</svg>
