<svg width="46" height="46" viewBox="0 0 46 46" fill="none" xmlns="http://www.w3.org/2000/svg">
<path d="M34.992 10H11.0145C9.35523 10 8 11.4518 8 13.2295V29.3909C8 31.1685 9.35523 32.6204 11.0145 32.6204H11.3319V35H13.5531V32.6204H32.4469V35H34.6681V32.6204H34.9854C36.6448 32.6204 38 31.1685 38 29.3909V13.2295C38.0066 11.4518 36.6514 10 34.992 10ZM36.896 29.3909C36.896 30.517 36.0432 31.4306 34.992 31.4306H34.6747H32.4535H13.5597H11.3385H11.0212C9.97003 31.4306 9.11723 30.517 9.11723 29.3909V13.2295C9.11723 12.1034 9.97003 11.1898 11.0212 11.1898H34.9987C36.0498 11.1898 36.9026 12.1034 36.9026 13.2295V29.3909H36.896Z" fill="#363636"/>
<path d="M22.4297 18H17.2468C17.1111 18 17 18.1193 17 18.2652V18.7093C17 18.8551 17.1111 18.9745 17.2468 18.9745H19.0608C19.1966 18.9745 19.3076 19.0938 19.3076 19.2396V26.0874C19.3076 26.2332 19.4187 26.3525 19.5544 26.3525H20.1344C20.2702 26.3525 20.3812 26.2332 20.3812 26.0874V19.2396C20.3812 19.0938 20.4923 18.9745 20.628 18.9745H22.442C22.5778 18.9745 22.6888 18.8551 22.6888 18.7093V18.2652C22.6703 18.1193 22.5593 18 22.4297 18Z" fill="#363636"/>
<path d="M29.5067 18H28.8959C28.791 18 28.6984 18.0729 28.6614 18.179L27.0325 23.6214L26.5451 25.2654L26.07 23.6214L24.4472 18.179C24.4164 18.0729 24.3238 18 24.2128 18H23.5341C23.3675 18 23.2502 18.1723 23.2996 18.3447L25.7183 26.1669C25.7491 26.273 25.8417 26.3459 25.9527 26.3459H27.0263C27.1312 26.3459 27.2238 26.273 27.2546 26.1669L29.7288 18.3447C29.7905 18.179 29.6733 18 29.5067 18Z" fill="#363636"/>
</svg>
