<svg width="64" height="64" viewBox="0 0 64 64" fill="none" xmlns="http://www.w3.org/2000/svg">
<circle cx="32" cy="32" r="10" fill="#896441"/>
<path d="M62.6727 37.0984L57.2071 36.4849L57.3653 35.0747L61.4755 35.5361L61.6449 34.0276L59.8193 33.8227C58.1286 33.6329 57.4534 32.7785 57.7936 31.2597L59.1163 31.4082C59.0107 31.6915 59.0331 31.9191 59.1835 32.0909C59.3413 32.2636 59.6315 32.3737 60.0541 32.4211L63.1586 32.7696L62.6727 37.0984Z" fill="#896441"/>
<path d="M60.8139 43.4885L60.4541 44.4813L55.2832 42.6073L55.7555 41.3042L58.6925 42.3687L56.6363 38.8739L56.9961 37.8811L62.167 39.7552L61.6947 41.0582L58.7577 39.9938L60.8139 43.4885Z" fill="#896441"/>
<path d="M53.2616 48.459L52.8629 49.0658L50.5187 47.5255L51.2798 46.3671L52.5117 47.1766L54.3842 44.3267L53.1523 43.5173L53.9134 42.359L56.2577 43.8993L55.8892 44.4601C56.1083 44.9813 56.5641 45.4695 57.2566 45.9245L59.1136 47.1447L56.7458 50.7484L53.2616 48.459ZM55.0556 45.7287L54.0227 47.3007L56.4405 48.8894L57.2861 47.6023L56.4955 47.0829C55.8459 46.656 55.3659 46.2046 55.0556 45.7287Z" fill="#896441"/>
<path d="M52.0774 51.0656C51.4657 50.6951 50.8531 50.7992 50.2397 51.3779C49.845 51.7503 49.6721 52.1655 49.7211 52.6234L48.436 52.9285C48.2923 51.9853 48.6044 51.1514 49.3725 50.4267C50.0339 49.8027 50.7534 49.502 51.5309 49.5246C52.3083 49.5472 52.9839 49.8625 53.5577 50.4706C54.1263 51.0733 54.402 51.7609 54.3848 52.5334C54.3725 53.3112 54.057 53.992 53.4383 54.5757C52.8516 55.1293 52.1776 55.3821 51.4164 55.334C50.6499 55.291 49.9848 54.9707 49.4212 54.3733C49.2954 54.24 49.1753 54.0861 49.0611 53.9115L52.0774 51.0656ZM52.8483 51.8506L50.8081 53.7756C51.1234 53.9923 51.4373 54.0792 51.7498 54.0364C52.057 53.9986 52.3279 53.869 52.5626 53.6476C52.84 53.3859 53.0014 53.0975 53.0469 52.7824C53.0974 52.4726 53.0312 52.162 52.8483 51.8506Z" fill="#896441"/>
<path d="M47.0221 59.3173C46.3749 59.6774 45.6865 59.7374 44.9569 59.4971C44.2246 59.2669 43.6605 58.7961 43.2647 58.0848C42.8689 57.3735 42.7644 56.6428 42.9512 55.8926C43.1352 55.1524 43.5507 54.6023 44.198 54.2421C44.8708 53.8677 45.52 53.8128 46.1456 54.0773L44.7603 51.5878L46.0002 50.8978L49.7443 57.6263L48.5043 58.3162L48.1888 57.7491C48.0838 58.4202 47.6949 58.9429 47.0221 59.3173ZM46.2467 55.1414C45.8577 55.0305 45.471 55.0821 45.0865 55.296C44.7021 55.51 44.4544 55.8115 44.3435 56.2004C44.2299 56.5994 44.2836 56.9975 44.5046 57.3948C44.7257 57.7921 45.0339 58.0444 45.4293 58.1517C45.8219 58.2689 46.2104 58.2206 46.5949 58.0066C46.9794 57.7927 47.2252 57.488 47.3325 57.0926C47.4434 56.7037 47.3882 56.3105 47.1672 55.9132C46.9461 55.5159 46.6393 55.2587 46.2467 55.1414Z" fill="#896441"/>
<path d="M34.2734 63.1424L33.4296 57.7075L34.8318 57.4898L35.4714 61.6095L37.6345 61.2737L36.9949 57.154L38.3971 56.9363L39.2409 62.3712L34.2734 63.1424Z" fill="#896441"/>
<path d="M28.5876 63.1935C27.8504 63.1222 27.2498 62.7805 26.7859 62.1684C26.314 61.5628 26.1172 60.8549 26.1956 60.0447C26.2739 59.2345 26.603 58.5737 27.1829 58.0625C27.7548 57.5579 28.4094 57.3412 29.1466 57.4125C29.913 57.4866 30.4785 57.8102 30.8431 58.3833L31.1173 55.5475L32.5297 55.6841L31.7886 63.3483L30.3762 63.2118L30.4386 62.5658C29.971 63.0584 29.354 63.2676 28.5876 63.1935ZM30.3218 59.3164C30.0647 59.0042 29.7171 58.827 29.2792 58.7846C28.8412 58.7423 28.4661 58.8497 28.1539 59.1068C27.8337 59.3706 27.6517 59.7287 27.608 60.1813C27.5642 60.6338 27.6746 61.0165 27.939 61.3295C28.1954 61.649 28.5426 61.8299 28.9806 61.8722C29.4186 61.9146 29.794 61.8035 30.1069 61.5391C30.4191 61.2819 30.5971 60.9271 30.6408 60.4745C30.6846 60.022 30.5783 59.6359 30.3218 59.3164Z" fill="#896441"/>
<path d="M20.7123 56.1296C21.4331 55.798 22.1761 55.7709 22.9414 56.0483C23.7067 56.3256 24.2598 56.8225 24.6008 57.5389C24.9324 58.2596 24.9595 59.0027 24.6821 59.768C24.4048 60.5333 23.9091 61.0829 23.1952 61.417C22.472 61.7555 21.7277 61.786 20.9624 61.5087C20.1971 61.2313 19.6452 60.731 19.3067 60.0077C18.9658 59.2913 18.934 58.5505 19.2113 57.7852C19.4887 57.0199 19.989 56.4681 20.7123 56.1296ZM23.3261 58.1182C23.1547 57.7519 22.869 57.4962 22.4691 57.3513C22.0693 57.2064 21.6861 57.2196 21.3198 57.3911C20.9535 57.5625 20.6953 57.8551 20.5454 58.2687C20.3955 58.6824 20.4062 59.0724 20.5777 59.4387C20.7491 59.8051 21.0348 60.0607 21.4347 60.2056C21.8345 60.3506 22.2176 60.3373 22.584 60.1659C22.9434 59.9919 23.1981 59.6981 23.348 59.2845C23.498 58.8708 23.4906 58.482 23.3261 58.1182Z" fill="#896441"/>
<path d="M14.7884 53.353L14.1817 52.9543L15.722 50.6101L16.8804 51.3712L16.0709 52.6031L18.9208 54.4756L19.7302 53.2438L20.8885 54.0049L19.3482 56.3491L18.7874 55.9806C18.2662 56.1997 17.778 56.6555 17.323 57.3481L16.1028 59.2051L12.4991 56.8372L14.7884 53.353ZM17.5188 55.147L15.9468 54.1141L14.3581 56.5319L15.6451 57.3776L16.1646 56.5869C16.5915 55.9373 17.0429 55.4573 17.5188 55.147Z" fill="#896441"/>
<path d="M7.74249 52.2908L6.7838 51.2447L10.8387 47.5288L11.7974 48.575L11.3189 49.0134C12.001 48.9653 12.6021 49.2251 13.1223 49.7928C13.6178 50.3335 13.8384 50.9867 13.7842 51.7525C13.7197 52.5179 13.3874 53.1755 12.7872 53.7255C12.1871 54.2754 11.5057 54.5468 10.743 54.5394C9.97001 54.5317 9.33577 54.2574 8.84033 53.7168C8.3201 53.1491 8.11365 52.5276 8.22097 51.8524L7.74249 52.2908ZM12.3659 51.605C12.3835 51.2009 12.2437 50.8367 11.9464 50.5123C11.6492 50.1879 11.2985 50.0169 10.8944 49.9993C10.48 49.9812 10.1052 50.1257 9.76995 50.4329C9.43474 50.7401 9.2608 51.0984 9.24813 51.5079C9.22509 51.9169 9.36221 52.2836 9.65947 52.608C9.95674 52.9324 10.3101 53.101 10.7196 53.1136C11.1237 53.1313 11.4933 52.9865 11.8285 52.6793C12.1637 52.3721 12.3429 52.014 12.3659 51.605Z" fill="#896441"/>
<path d="M6.64393 39.8959L7.34627 41.328L5.87512 43.924L8.08737 42.839L8.69769 44.0834L6.48544 45.1684L9.43879 45.5944L10.1363 47.0166L6.76576 46.4644L5.1498 49.3397L4.45229 47.9176L5.90275 45.4542L3.75963 46.5053L3.14931 45.2609L5.29243 44.2098L2.45665 43.8486L1.7543 42.4166L5.02199 42.909L6.64393 39.8959Z" fill="#896441"/>
<path d="M0.485925 26.2815L5.9516 26.895L5.7933 28.3052L1.68312 27.8438L1.51378 29.3523L3.33931 29.5573C5.03003 29.747 5.70527 30.6014 5.36505 32.1202L4.04236 31.9718C4.14796 31.6884 4.12554 31.4608 3.9751 31.289C3.81738 31.1163 3.52718 31.0063 3.1045 30.9588L0 30.6103L0.485925 26.2815Z" fill="#896441"/>
<path d="M2.33351 19.906L2.69333 18.9132L7.8642 20.7873L7.39194 22.0903L4.45488 21.0259L6.51113 24.5207L6.15131 25.5135L0.980439 23.6394L1.4527 22.3363L4.38976 23.4008L2.33351 19.906Z" fill="#896441"/>
<path d="M9.85556 14.9658L10.2542 14.3591L12.5985 15.8994L11.8374 17.0577L10.6055 16.2483L8.73293 19.0981L9.9648 19.9076L9.2037 21.0659L6.85947 19.5256L7.22794 18.9648C7.00886 18.4435 6.55305 17.9554 5.86051 17.5003L4.00351 16.2801L6.37139 12.6765L9.85556 14.9658ZM8.06153 17.6961L9.09446 16.1241L6.67668 14.5355L5.83101 15.8225L6.62161 16.342C7.27126 16.7689 7.75123 17.2202 8.06153 17.6961Z" fill="#896441"/>
<path d="M11.0358 12.3377C11.6475 12.7083 12.2601 12.6042 12.8735 12.0254C13.2682 11.653 13.4411 11.2379 13.3922 10.7799L14.6772 10.4749C14.821 11.418 14.5088 12.252 13.7407 12.9766C13.0793 13.6007 12.3599 13.9014 11.5824 13.8788C10.8049 13.8562 10.1293 13.5408 9.55558 12.9328C8.98691 12.33 8.7112 11.6424 8.72848 10.87C8.74072 10.0922 9.0562 9.41141 9.67494 8.82763C10.2617 8.27405 10.9356 8.02129 11.6968 8.06936C12.4633 8.1124 13.1284 8.43262 13.6921 9.03003C13.8179 9.16338 13.9379 9.31731 14.0522 9.49182L11.0358 12.3377ZM10.2649 11.5527L12.3052 9.62778C11.9898 9.41111 11.6759 9.32417 11.3634 9.36696C11.0562 9.40471 10.7853 9.53431 10.5506 9.75574C10.2732 10.0174 10.1118 10.3058 10.0663 10.621C10.0158 10.9308 10.082 11.2413 10.2649 11.5527Z" fill="#896441"/>
<path d="M16.0375 4.0968C16.6847 3.73666 17.373 3.67671 18.1026 3.91696C18.835 4.14723 19.399 4.61801 19.7949 5.32931C20.1907 6.0406 20.2952 6.77132 20.1083 7.52148C19.9244 8.26166 19.5088 8.81182 18.8616 9.17197C18.1887 9.54638 17.5395 9.60131 16.914 9.33677L18.2993 11.8263L17.0593 12.5163L13.3152 5.78784L14.5552 5.09786L14.8708 5.66497C14.9757 4.99393 15.3646 4.47121 16.0375 4.0968ZM16.8128 8.2727C17.2018 8.38355 17.5885 8.332 17.973 8.11805C18.3575 7.90411 18.6051 7.60264 18.716 7.21366C18.8297 6.81471 18.776 6.41659 18.5549 6.01929C18.3338 5.62199 18.0256 5.3697 17.6302 5.26242C17.2377 5.14516 16.8491 5.19351 16.4647 5.40745C16.0802 5.6214 15.8343 5.92607 15.727 6.32146C15.6162 6.71044 15.6713 7.10357 15.8924 7.50087C16.1134 7.89817 16.4202 8.15545 16.8128 8.2727Z" fill="#896441"/>
<path d="M28.8579 0.22022L29.7017 5.65511L28.2995 5.8728L27.6599 1.75316L25.4968 2.08897L26.1364 6.20862L24.7342 6.42632L23.8904 0.991423L28.8579 0.22022Z" fill="#896441"/>
<path d="M34.4783 0.154809C35.2155 0.226098 35.8161 0.567821 36.28 1.17998C36.7519 1.78555 36.9487 2.49344 36.8703 3.30366C36.792 4.11388 36.4628 4.7746 35.8829 5.28583C35.311 5.79046 34.6565 6.00713 33.9193 5.93584C33.1528 5.86173 32.5873 5.53814 32.2228 4.96506L31.9486 7.80083L30.5362 7.66425L31.2773 0L32.6897 0.136578L32.6273 0.782565C33.0948 0.289949 33.7118 0.0806971 34.4783 0.154809ZM32.7441 4.03189C33.0012 4.34409 33.3487 4.52137 33.7867 4.56372C34.2247 4.60607 34.5997 4.49867 34.9119 4.24152C35.2321 3.97778 35.4141 3.61964 35.4579 3.16708C35.5017 2.71453 35.3913 2.3318 35.1269 2.01889C34.8704 1.69939 34.5232 1.51847 34.0853 1.47612C33.6473 1.43377 33.2719 1.54481 32.959 1.80926C32.6468 2.0664 32.4688 2.42125 32.425 2.87381C32.3813 3.32637 32.4876 3.71239 32.7441 4.03189Z" fill="#896441"/>
<path d="M42.3692 7.20021C41.6484 7.53179 40.9054 7.5589 40.1401 7.28154C39.3748 7.00418 38.8217 6.5073 38.4807 5.79092C38.1491 5.07014 38.122 4.3271 38.3994 3.56181C38.6767 2.79653 39.1724 2.24684 39.8863 1.91276C40.6095 1.57429 41.3538 1.54374 42.1191 1.8211C42.8844 2.09846 43.4363 2.59878 43.7747 3.32206C44.1157 4.03844 44.1475 4.77928 43.8702 5.54457C43.5928 6.30985 43.0925 6.86174 42.3692 7.20021ZM39.7554 5.21158C39.9268 5.57792 40.2125 5.83355 40.6124 5.97848C41.0122 6.1234 41.3954 6.11015 41.7617 5.93872C42.128 5.76728 42.3862 5.47473 42.5361 5.06106C42.686 4.64739 42.6753 4.25739 42.5038 3.89105C42.3324 3.52471 42.0467 3.26908 41.6468 3.12416C41.247 2.97923 40.8639 2.99248 40.4975 3.16392C40.1381 3.33785 39.8834 3.63165 39.7335 4.04532C39.5835 4.45899 39.5909 4.84774 39.7554 5.21158Z" fill="#896441"/>
<path d="M48.2882 9.94944L48.8949 10.3481L47.3546 12.6923L46.1963 11.9312L47.0057 10.6994L44.1558 8.82681L43.3464 10.0587L42.1881 9.29758L43.7284 6.95335L44.2892 7.32182C44.8105 7.10274 45.2986 6.64693 45.7537 5.95439L46.9738 4.09739L50.5775 6.46527L48.2882 9.94944ZM45.5578 8.15541L47.1298 9.18834L48.7185 6.77056L47.4315 5.92489L46.912 6.71549C46.4851 7.36514 46.0337 7.84511 45.5578 8.15541Z" fill="#896441"/>
<path d="M55.3327 10.9735L56.2914 12.0197L52.2364 15.7356L51.2777 14.6894L51.7562 14.2509C51.0742 14.299 50.473 14.0392 49.9528 13.4715C49.4574 12.9309 49.2367 12.2776 49.2909 11.5118C49.3555 10.7465 49.6878 10.0888 50.2879 9.53886C50.888 8.98891 51.5694 8.7176 52.3321 8.72493C53.1051 8.73271 53.7394 9.00692 54.2348 9.54758C54.755 10.1153 54.9615 10.7367 54.8542 11.412L55.3327 10.9735ZM50.7092 11.6594C50.6916 12.0634 50.8314 12.4277 51.1287 12.7521C51.426 13.0765 51.7766 13.2475 52.1807 13.2651C52.5952 13.2832 52.97 13.1386 53.3052 12.8315C53.6404 12.5243 53.8143 12.1659 53.827 11.7565C53.8501 11.3474 53.7129 10.9807 53.4157 10.6563C53.1184 10.3319 52.765 10.1634 52.3555 10.1507C51.9515 10.1331 51.5818 10.2779 51.2466 10.585C50.9114 10.8922 50.7323 11.2503 50.7092 11.6594Z" fill="#896441"/>
<path d="M56.4629 23.3225L55.7553 21.893L57.2168 19.2915L55.0086 20.3848L54.3937 19.1426L56.6019 18.0494L53.647 17.6343L52.9442 16.2148L56.3167 16.7545L57.922 13.8732L58.6248 15.2927L57.1835 17.7615L59.3227 16.7024L59.9376 17.9446L57.7984 19.0036L60.6355 19.3543L61.3432 20.7837L58.0737 20.3034L56.4629 23.3225Z" fill="#896441"/>
</svg>
