<svg width="22" height="22" viewBox="0 0 22 22" fill="none" xmlns="http://www.w3.org/2000/svg">
<path d="M15.9013 15.6284V16.9959H17.3004V15.6284H18V12.1199C18 11.2448 17.4087 10.5122 16.6008 10.2558V5.65247C16.6008 4.74076 15.843 4 14.9102 4H7.08983C6.15706 4 5.39917 4.74076 5.39917 5.65247V10.2599C4.59132 10.5122 4 11.2489 4 12.124V15.6324H4.69958V17H6.09875V15.6324H15.9013V15.6284ZM6.10292 5.65247C6.10292 5.11929 6.54848 4.68378 7.09399 4.68378H14.9143C15.4598 4.68378 15.9054 5.11929 15.9054 5.65247V10.1581H14.5354C14.7353 9.95867 14.856 9.68597 14.856 9.38478V7.50845C14.856 6.89386 14.3439 6.39324 13.7151 6.39324H8.29328C7.66448 6.39324 7.15229 6.89386 7.15229 7.50845V9.38478C7.15229 9.68597 7.27721 9.9546 7.47293 10.1581H6.10292V5.65247ZM7.85187 9.38478V7.50845C7.85187 7.27239 8.04759 7.07702 8.29328 7.07702H13.7151C13.9566 7.07702 14.1565 7.26832 14.1565 7.50845V9.38478C14.1565 9.62085 13.9607 9.81622 13.7151 9.81622H8.29328C8.04759 9.81622 7.85187 9.62085 7.85187 9.38478ZM4.69958 14.9446V12.1199C4.69958 11.4117 5.28674 10.8378 6.01131 10.8378H15.9887C16.7133 10.8378 17.3004 11.4117 17.3004 12.1199V14.9446H15.9013H6.10292H4.69958Z" fill="#020202"/>
</svg>
