<svg width="22" height="22" viewBox="0 0 22 22" fill="none" xmlns="http://www.w3.org/2000/svg">
<path d="M19.8754 7.31456H18.0056V5.97358C18.0056 5.43627 17.5817 5 17.0596 5H10.8792H10.1296H3.94919C3.42709 5 3.00317 5.43627 3.00317 5.97358V7.31456H1.13344C0.508707 7.31456 0 7.83808 0 8.48101V15.4155C0 15.9207 0.3079 16.3432 0.749674 16.5085V18.125H2.24903V16.582H18.7508V18.125H20.2502V16.5085C20.692 16.3478 20.9999 15.9253 20.9999 15.4155V8.48101C21.0088 7.83808 20.5001 7.31456 19.8754 7.31456ZM10.8792 5.76692H17.0596C17.1667 5.76692 17.256 5.85877 17.256 5.96898V7.30996V11.1722H10.8792V5.76692ZM3.75284 11.9437H10.1296H10.8792H17.256V12.5131C17.256 12.6233 17.1667 12.7152 17.0596 12.7152H3.94919C3.84209 12.7152 3.75284 12.6233 3.75284 12.5131V11.9437ZM3.75284 5.96898C3.75284 5.85877 3.84209 5.76692 3.94919 5.76692H10.1296V11.1722H3.75284V7.30996V5.96898ZM20.2591 15.4109C20.2591 15.6313 20.094 15.8013 19.8843 15.8059H18.7598H2.25796H1.1379C0.919248 15.8013 0.758601 15.6313 0.758601 15.4109V8.47643C0.758601 8.256 0.928171 8.08148 1.14236 8.08148H3.0121V11.1676V11.9391V12.5085C3.0121 13.0458 3.43602 13.4821 3.95811 13.4821H17.0685C17.5906 13.4821 18.0146 13.0458 18.0146 12.5085V11.9391V11.1676V8.08148H19.8843C20.0985 8.08148 20.2681 8.256 20.2681 8.47643V15.4109H20.2591Z" fill="#363636"/>
</svg>
