<svg width="22" height="22" viewBox="0 0 22 22" fill="none" xmlns="http://www.w3.org/2000/svg">
<path d="M17.1949 1H3.80769C3.36146 1 3 1.36145 3 1.80769V19.6974C3 20.1213 3.33022 20.4694 3.74968 20.4962V22H5.24904V20.5006H15.7535V22H17.2529V20.4962C17.6723 20.4649 18.0026 20.1213 18.0026 19.6974V1.80769C18.0026 1.36145 17.6411 1 17.1949 1ZM3.80769 19.751C3.77646 19.751 3.75414 19.7242 3.75414 19.6974V1.80769C3.75414 1.77645 3.78092 1.75414 3.80769 1.75414H10.1264V19.7554H5.24904H3.80769V19.751ZM17.2529 19.6974C17.2529 19.7286 17.2261 19.751 17.1949 19.751H15.749H10.8717V1.74968H17.1904C17.2216 1.74968 17.2484 1.77645 17.2484 1.80322V19.6974H17.2529Z" fill="#020202"/>
<path d="M9.37656 10.001H7.8772V11.5003H9.37656V10.001Z" fill="#020202"/>
<path d="M13.1251 10.001H11.6257V11.5003H13.1251V10.001Z" fill="#020202"/>
</svg>
