<svg width="22" height="22" viewBox="0 0 22 22" fill="none" xmlns="http://www.w3.org/2000/svg">
<path d="M6.43879 9.30952V19.4966C6.43879 20.2888 7.08539 20.9354 7.87758 20.9354C8.66977 20.9354 9.31636 20.2888 9.31636 19.4966V9.30952C10.1471 9.03975 10.7552 8.26469 10.7552 7.34404V0.424149C10.7552 0.227172 10.5924 0.0644531 10.3955 0.0644531C10.1985 0.0644531 10.0358 0.227172 10.0358 0.424149V7.34404C10.0358 8.0934 9.4277 8.70146 8.67833 8.70146H8.23727V0.424149C8.23727 0.227172 8.07455 0.0644531 7.87758 0.0644531C7.6806 0.0644531 7.51788 0.227172 7.51788 0.424149V8.70146H7.07682C6.32745 8.70146 5.71939 8.0934 5.71939 7.34404V0.424149C5.71939 0.227172 5.55667 0.0644531 5.3597 0.0644531C5.16272 0.0644531 5 0.227172 5 0.424149V7.34404C5 8.26469 5.60806 9.03975 6.43879 9.30952ZM8.59697 9.42085V19.4966C8.59697 19.8949 8.27581 20.216 7.87758 20.216C7.47934 20.216 7.15818 19.8949 7.15818 19.4966V9.42085H8.59697Z" fill="#020202"/>
<path d="M12.2582 12.2517C12.361 12.4058 12.5237 12.5043 12.7078 12.5214L13.5171 12.5985V19.5612C13.5171 20.3534 14.1637 21 14.9559 21C15.7481 21 16.3947 20.3534 16.3947 19.5612V0.445885C16.3947 0.274601 16.3134 0.129003 16.172 0.0519254C16.0821 0.000540071 15.8894 -0.0551211 15.6368 0.111881C12.2025 2.36427 12.164 11.0141 12.164 11.7978C12.1383 11.9562 12.1683 12.1146 12.2582 12.2517ZM15.6753 0.989708V19.5612C15.6753 19.9595 15.3542 20.2806 14.9559 20.2806C14.5577 20.2806 14.2365 19.9595 14.2365 19.5612V11.9433L12.8877 11.8149C12.8877 11.3524 12.9091 3.45192 15.6753 0.989708Z" fill="#020202"/>
</svg>
