<svg width="22" height="22" viewBox="0 0 22 22" fill="none" xmlns="http://www.w3.org/2000/svg">
<path d="M16.3742 15.592C16.1689 15.592 15.9994 15.7616 15.9994 15.9668V20.1347C15.9994 20.7505 15.4996 21.2503 14.8838 21.2503H5.86529C5.24948 21.2503 4.74969 20.7505 4.74969 20.1347V10.0006H11.8761C12.0814 10.0006 12.251 9.83106 12.251 9.62579C12.251 9.42052 12.0814 9.25095 11.8761 9.25095H4.74969V2.86528C4.74969 2.24947 5.24948 1.74968 5.86529 1.74968H14.8838C15.4996 1.74968 15.9994 2.24947 15.9994 2.86528V6.53781C15.9994 6.74308 16.1689 6.91267 16.3742 6.91267C16.5795 6.91267 16.749 6.74308 16.749 6.53781V2.86528C16.749 1.83446 15.9101 1 14.8838 1H5.86529C4.83448 1 4 1.83893 4 2.86528V20.1347C4 21.1655 4.83894 22 5.86529 22H14.8838C15.9146 22 16.749 21.1611 16.749 20.1347V15.9668C16.749 15.7571 16.5839 15.592 16.3742 15.592Z" fill="#363636"/>
<path d="M6.99866 3.61898V7.37185C6.99866 7.57712 7.16824 7.74669 7.37351 7.74669C7.57878 7.74669 7.74835 7.57712 7.74835 7.37185V3.61898C7.74835 3.41371 7.57878 3.24414 7.37351 3.24414C7.16824 3.24414 6.99866 3.41371 6.99866 3.61898Z" fill="#363636"/>
<path d="M6.99866 11.87V15.6228C6.99866 15.8281 7.16824 15.9977 7.37351 15.9977C7.57878 15.9977 7.74835 15.8281 7.74835 15.6228V11.87C7.74835 11.6647 7.57878 11.4951 7.37351 11.4951C7.16824 11.4951 6.99866 11.6647 6.99866 11.87Z" fill="#363636"/>
<path d="M18.4536 10.9596C18.5964 10.8793 18.6411 10.6964 18.5607 10.558L18.4492 10.3617C18.3689 10.2234 18.1904 10.1743 18.0476 10.2546L17.2443 10.7187C17.048 10.8302 16.8026 10.6919 16.8026 10.4643V9.54061C16.8026 9.37997 16.6687 9.24609 16.508 9.24609H16.2894C16.1287 9.24609 15.9949 9.37997 15.9949 9.54061V10.4643C15.9949 10.6919 15.7494 10.8302 15.5531 10.7187L14.7499 10.2546C14.6115 10.1743 14.4286 10.2234 14.3482 10.3617L14.2367 10.558C14.1564 10.7008 14.2055 10.8793 14.3438 10.9596L15.147 11.4237C15.3434 11.5353 15.3434 11.8209 15.147 11.9325L14.3438 12.3965C14.201 12.4769 14.1564 12.6598 14.2367 12.7982L14.3482 12.9945C14.4286 13.1328 14.6071 13.1819 14.7499 13.1016L15.5531 12.6375C15.7494 12.526 15.9949 12.6643 15.9949 12.8919V13.8156C15.9949 13.9762 16.1243 14.1101 16.2894 14.1101H16.5125C16.6732 14.1101 16.807 13.9762 16.807 13.8156V12.8919C16.807 12.6643 17.0525 12.526 17.2488 12.6375L18.052 13.1016C18.1904 13.1819 18.3733 13.1328 18.4536 12.9945L18.5652 12.7982C18.6455 12.6554 18.5964 12.4769 18.4581 12.3965L17.6549 11.9325C17.4585 11.8209 17.4585 11.5353 17.6549 11.4237L18.4536 10.9596Z" fill="#363636"/>
</svg>
