<svg width="22" height="22" viewBox="0 0 22 22" fill="none" xmlns="http://www.w3.org/2000/svg">
<path d="M20.3012 3H0.703387C0.31467 3 0 3.31467 0 3.70339V16.2997C0 16.6884 0.31467 17.0031 0.703387 17.0031H1.16615V18.9466H2.72101V17.0031H18.2789V18.9466H19.8338V17.0031H20.2966C20.6853 17.0031 21 16.6884 21 16.2997V3.70339C21.0046 3.31467 20.6853 3 20.3012 3ZM0.77743 16.2256V3.77743H13.6143V16.2256H0.77743ZM20.2272 16.2256H14.3918V3.77743H20.2272V16.2256Z" fill="#363636"/>
<path d="M3.10955 6.50293C2.89669 6.50293 2.72083 6.67879 2.72083 6.89166V13.1157C2.72083 13.3286 2.89669 13.5045 3.10955 13.5045C3.32242 13.5045 3.49827 13.3286 3.49827 13.1157V6.89166C3.49827 6.67416 3.32705 6.50293 3.10955 6.50293Z" fill="#363636"/>
<path d="M16.3354 6.50302H18.6677C18.8805 6.50302 19.0564 6.32717 19.0564 6.1143C19.0564 5.90143 18.8805 5.72559 18.6677 5.72559H16.3354C16.1225 5.72559 15.9467 5.90143 15.9467 6.1143C15.9467 6.32717 16.1225 6.50302 16.3354 6.50302Z" fill="#363636"/>
<path d="M17.307 7.28027H16.1409V8.44642H17.307V7.28027Z" fill="#363636"/>
<path d="M18.8622 7.28027H17.696V8.44642H18.8622V7.28027Z" fill="#363636"/>
<path d="M18.8622 9.6123H17.696V10.7785H18.8622V9.6123Z" fill="#363636"/>
<path d="M17.307 9.6123H16.1409V10.7785H17.307V9.6123Z" fill="#363636"/>
<path d="M17.5014 11.9453C16.7517 11.9453 16.1409 12.5562 16.1409 13.3058C16.1409 14.0555 16.7517 14.6663 17.5014 14.6663C18.251 14.6663 18.8619 14.0555 18.8619 13.3058C18.8619 12.5562 18.251 11.9453 17.5014 11.9453ZM17.5014 13.8935C17.1774 13.8935 16.9183 13.6298 16.9183 13.3105C16.9183 12.9912 17.1821 12.7274 17.5014 12.7274C17.8207 12.7274 18.0845 12.9912 18.0845 13.3105C18.0845 13.6298 17.8253 13.8935 17.5014 13.8935Z" fill="#363636"/>
</svg>
