<svg width="46" height="45" viewBox="0 0 46 45" fill="none" xmlns="http://www.w3.org/2000/svg">
<path d="M20.9068 6.08902C19.8305 6.31857 18.835 7.10027 18.3249 8.11152C17.8458 9.07314 17.8085 10.0162 18.1942 11.2632C18.7044 12.8824 18.891 13.8626 18.9595 15.2585C19.0528 17.2128 18.4804 18.7576 17.2299 19.9115L16.7944 20.3148L17.0557 20.6622C17.1988 20.8483 17.3357 21.0034 17.3668 21.0034C17.4912 21.0034 18.4244 20.0418 18.7293 19.6013C19.6065 18.3357 19.9673 16.9584 19.8864 15.2275C19.818 13.7447 19.6376 12.7769 19.1523 11.2321C18.9906 10.711 18.891 10.2581 18.8724 9.95411C18.7542 8.20459 20.3717 6.70942 22.1137 6.96379C23.6379 7.18093 24.7391 8.52099 24.6209 10.0224C24.6085 10.2519 24.484 10.7606 24.3409 11.2011C23.8681 12.6404 23.6753 13.6641 23.6068 15.1841C23.5259 16.9646 23.8806 18.3233 24.764 19.6013C25.0688 20.0418 26.002 21.0034 26.1265 21.0034C26.1576 21.0034 26.2945 20.8483 26.4375 20.6622L26.6988 20.3148L26.2633 19.9115C25.803 19.4834 25.243 18.7079 25.0129 18.1806C24.6147 17.2624 24.4778 16.4249 24.54 15.2027C24.6022 13.7944 24.7516 12.9941 25.2368 11.4555C25.6972 9.99754 25.6723 9.12898 25.1497 8.08051C24.8387 7.4539 24.0921 6.72183 23.4513 6.40543C22.6425 6.00837 21.7715 5.9029 20.9068 6.08902Z" fill="#363636"/>
<path d="M21.2863 8.22961C20.7948 8.3785 20.3468 8.82519 20.1726 9.33392C19.93 10.0226 20.3095 10.9221 20.9939 11.282C21.1929 11.3874 21.3547 11.4185 21.7466 11.4185C22.3377 11.4185 22.6363 11.2882 22.9847 10.8849C23.8681 9.85505 23.2024 8.27303 21.8462 8.18618C21.6533 8.17377 21.4045 8.19238 21.2863 8.22961ZM22.0577 9.19122C22.263 9.28428 22.4621 9.58828 22.4621 9.79922C22.4621 10.1653 22.1075 10.5189 21.7466 10.5189C21.3858 10.5189 21.0312 10.1653 21.0312 9.79922C21.0312 9.59448 21.2303 9.28428 21.4231 9.19122C21.6782 9.06714 21.8026 9.06714 22.0577 9.19122Z" fill="#363636"/>
<path d="M13.2109 8.85612L12.8812 9.19113L13.2545 9.55717C13.4784 9.77431 13.6713 10.0349 13.7273 10.1962C13.9326 10.7173 13.889 10.7732 11.8858 12.7832C10.9028 13.7697 10.0505 14.6693 10.0007 14.7685C9.75183 15.2586 9.75806 15.9597 10.0131 16.456C10.15 16.7352 10.8655 17.5293 10.9774 17.5293C11.0148 17.5293 11.189 17.3866 11.3569 17.2191L11.6618 16.9089L11.245 16.487C10.7721 16.0093 10.6726 15.7798 10.7721 15.3951C10.8281 15.178 11.1205 14.8616 12.6323 13.3416C14.6543 11.3191 14.7103 11.2447 14.7103 10.4878C14.7103 9.90459 14.5547 9.58819 13.9886 8.99881L13.5344 8.52731L13.2109 8.85612Z" fill="#363636"/>
<path d="M36.0124 9.43318C35.3841 9.63791 35.3841 9.63791 32.1365 15.2339C29.2871 20.1475 29.144 20.4204 29.2498 20.5073C29.4675 20.681 29.9466 20.9106 29.9715 20.8485C29.9839 20.8113 31.334 18.4848 32.9639 15.6682C36.0684 10.3203 36.0995 10.2707 36.5039 10.2707C36.7465 10.2707 37.0825 10.4568 37.1758 10.6492C37.406 11.0834 37.4495 10.9842 34.6499 15.8233C33.2128 18.3049 32.0307 20.3708 32.0245 20.4018C32.0183 20.4329 32.1738 20.5569 32.3791 20.6748C32.6778 20.8547 32.7524 20.8795 32.8209 20.8113C32.9577 20.6624 38.053 11.8031 38.1339 11.5798C38.2583 11.2013 38.221 10.643 38.0406 10.2831C37.6797 9.55726 36.7901 9.18502 36.0124 9.43318Z" fill="#363636"/>
<path d="M15.7122 11.3874L15.4073 11.6914L15.7931 12.0947C16.0046 12.3118 16.2037 12.5662 16.241 12.6592C16.3592 12.9632 16.3156 13.2734 16.1228 13.534C16.0232 13.6643 15.2082 14.5018 14.3124 15.389C12.5144 17.1757 12.3837 17.3432 12.3402 18.0257C12.2966 18.6275 12.4584 19.0059 13.0308 19.6139L13.4911 20.104L13.8084 19.7938C13.9826 19.6263 14.1257 19.4588 14.1257 19.4216C14.1257 19.3843 13.9702 19.2044 13.7773 19.0183C13.261 18.5096 13.1552 18.2304 13.3232 17.7961C13.3543 17.7031 14.1817 16.8283 15.146 15.8543C16.2659 14.7313 16.9627 13.9869 17.056 13.807C17.2675 13.4037 17.2675 12.591 17.056 12.1939C16.9191 11.9396 16.1477 11.0772 16.0543 11.0772C16.0357 11.0772 15.8802 11.2137 15.7122 11.3874Z" fill="#363636"/>
<path d="M34.171 14.1793C34.059 14.384 33.9782 14.5763 34.0031 14.6074C34.0217 14.6384 34.1897 14.7501 34.3888 14.8617C34.6625 15.0168 34.7496 15.0416 34.7869 14.9734C34.8181 14.93 34.9238 14.7501 35.0234 14.5701L35.2162 14.2475L34.8181 14.0304C34.6003 13.9063 34.4074 13.8071 34.395 13.8071C34.3888 13.8071 34.283 13.9746 34.171 14.1793Z" fill="#363636"/>
<path d="M22.0766 14.4399C22.058 14.6881 22.0518 14.899 22.0518 14.899C22.058 14.9052 22.2571 14.93 22.4997 14.9548C22.929 14.9983 22.9414 14.9921 22.9787 14.8494C23.0036 14.7749 23.0223 14.564 23.0223 14.3903V14.0739L22.6988 14.0304C22.0704 13.956 22.1078 13.9374 22.0766 14.4399Z" fill="#363636"/>
<path d="M33.3807 15.5502C33.2563 15.7612 33.163 15.9349 33.1754 15.9411C33.1879 15.9473 33.2625 15.9969 33.3496 16.0466C33.4367 16.0962 33.6047 16.2017 33.7291 16.2761L33.9593 16.4126L34.1833 16.0342C34.3077 15.8294 34.4073 15.6433 34.4073 15.6185C34.4073 15.5751 33.7042 15.1718 33.6358 15.1718C33.6171 15.1718 33.5052 15.3455 33.3807 15.5502Z" fill="#363636"/>
<path d="M22.0268 16.0406C22.0268 16.6051 21.9894 16.5741 22.6365 16.4997L22.96 16.4562V16.0033V15.5442H22.4934H22.0268V16.0406Z" fill="#363636"/>
<path d="M32.5157 17.0516C31.6634 18.5096 30.8608 19.9055 30.8608 19.9427C30.8608 20.0047 31.5576 20.3894 31.6261 20.3646C31.6821 20.346 33.6729 16.9586 33.6418 16.9338C33.6356 16.9338 33.4551 16.8283 33.2436 16.7042L32.8517 16.4809L32.5157 17.0516Z" fill="#363636"/>
<path d="M22.5744 17.1138C22.338 17.1448 22.1514 17.1945 22.1514 17.2255C22.1514 17.2503 22.1949 17.4613 22.2509 17.697C22.4438 18.547 22.8295 19.4651 23.2961 20.1848L23.5823 20.6377L23.9556 20.3771C24.1609 20.2344 24.3288 20.1104 24.3288 20.0979C24.3288 20.0855 24.2355 19.9304 24.1173 19.7505C23.6569 19.0247 23.3023 18.1871 23.1468 17.4426C23.1095 17.2503 23.0597 17.089 23.0348 17.0766C23.0099 17.0642 22.8046 17.0828 22.5744 17.1138Z" fill="#363636"/>
<path d="M8.05979 21.6364C8.14689 22.1265 10.5794 37.6303 10.5794 37.6924C10.5794 37.7358 14.1194 37.7544 21.7468 37.7544C29.3742 37.7544 32.9141 37.7358 32.9141 37.6924C32.9141 37.6303 35.3467 22.1265 35.4338 21.6364L35.4711 21.4379H21.7468H8.02246L8.05979 21.6364ZM34.345 22.4678C34.345 22.5546 32.2298 36.0545 32.1302 36.6191L32.0929 36.8238H21.7468H11.4007L11.3633 36.6191C11.2638 36.0545 9.14853 22.5546 9.14853 22.4678C9.14853 22.3747 10.1253 22.3685 21.7468 22.3685C33.3683 22.3685 34.345 22.3747 34.345 22.4678Z" fill="#363636"/>
<path d="M13.3976 23.1565C13.2172 23.1689 13.0679 23.1999 13.0679 23.2247C13.0679 23.2495 13.3541 26.153 13.7024 29.6831L14.3432 36.0918L14.7787 36.0484C15.0152 36.0236 15.2267 35.9987 15.2391 35.9801C15.2516 35.9677 14.9778 33.0891 14.6294 29.5838C14.281 26.0724 14.0011 23.1875 14.0011 23.1565C14.0011 23.1317 13.9389 23.1193 13.8642 23.1255C13.7833 23.1317 13.5718 23.1441 13.3976 23.1565Z" fill="#363636"/>
<path d="M29.4924 23.1565C29.4924 23.1875 29.2124 26.0724 28.864 29.5838C28.5156 33.0891 28.2419 35.9677 28.2543 35.9801C28.2668 35.9987 28.4783 36.0236 28.7147 36.0484L29.1502 36.0918L29.7972 29.6583C30.1456 26.122 30.4256 23.2185 30.4131 23.2123C30.3634 23.1627 29.4924 23.1193 29.4924 23.1565Z" fill="#363636"/>
<path d="M18.2937 23.2497C18.2813 23.7522 18.7541 35.9989 18.7914 36.0361C18.8163 36.0609 19.0216 36.0671 19.2456 36.0423L19.6624 35.9989V35.6825C19.6624 35.5088 19.5629 32.7108 19.4446 29.4723C19.3264 26.2276 19.2269 23.4854 19.2269 23.3738V23.1752H18.7603C18.4306 23.1752 18.2937 23.2 18.2937 23.2497Z" fill="#363636"/>
<path d="M24.2665 23.3424C24.2665 23.4417 24.167 26.1652 24.0488 29.4099C23.9306 32.6484 23.8311 35.4588 23.8311 35.6511V36.0047L24.2417 36.0482C24.4656 36.073 24.6772 36.0668 24.702 36.0358C24.7269 36.0109 24.8389 33.4859 24.9447 30.4336C25.0567 27.3812 25.1624 24.4963 25.1811 24.0248L25.2184 23.1749H24.7456H24.2665V23.3424Z" fill="#363636"/>
<path d="M32.0182 27.3443C31.9933 27.4931 31.9622 27.6979 31.9436 27.8033L31.9062 27.9957L32.2733 28.0391C32.4724 28.0639 32.6777 28.0949 32.7337 28.1135C32.8146 28.1384 32.8457 28.0577 32.9079 27.6979C32.9452 27.4497 32.9701 27.245 32.9577 27.2264C32.9328 27.2016 32.2546 27.0837 32.1302 27.0837C32.0929 27.0837 32.0431 27.2016 32.0182 27.3443Z" fill="#363636"/>
<path d="M31.7444 29.0438C31.6946 29.3602 31.6946 29.4781 31.7444 29.5091C31.8377 29.5649 32.5407 29.6518 32.578 29.6084C32.6402 29.5525 32.7336 28.8018 32.6838 28.7522C32.6589 28.7274 32.4474 28.6902 32.2234 28.6654L31.8128 28.6219L31.7444 29.0438Z" fill="#363636"/>
<path d="M31.5767 30.1918C31.5207 30.3717 30.7306 35.5273 30.7555 35.6017C30.7679 35.6389 30.967 35.7072 31.1972 35.7444C31.5953 35.8064 31.614 35.8064 31.6389 35.6824C31.6887 35.4838 32.4788 30.44 32.4788 30.3469C32.4788 30.2911 32.3544 30.2477 32.1242 30.2166C31.9313 30.1918 31.7384 30.1608 31.6949 30.1422C31.6451 30.1236 31.5953 30.1484 31.5767 30.1918Z" fill="#363636"/>
</svg>
