<svg width="21" height="21" viewBox="0 0 21 21" fill="none" xmlns="http://www.w3.org/2000/svg">
<path d="M2.29764 21H18.7024C19.9694 21 21 19.9694 21 18.7024V2.29764C21 1.03059 19.9694 0 18.7024 0H2.29764C1.03059 0 0 1.03059 0 2.29764V18.7024C0 19.9694 1.03059 21 2.29764 21ZM0.749519 2.29764C0.749519 1.44551 1.4455 0.749522 2.29764 0.749522H18.7024C19.5545 0.749522 20.2505 1.44551 20.2505 2.29764V18.7024C20.2505 19.5545 19.5545 20.2505 18.7024 20.2505H2.29764C1.4455 20.2505 0.749519 19.5545 0.749519 18.7024V2.29764Z" fill="#363636"/>
<path d="M3.00269 18.3767H7.50428C7.70951 18.3767 7.87904 18.2072 7.87904 18.002C7.87904 17.7967 7.70951 17.6272 7.50428 17.6272H3.37745V13.5004C3.37745 13.2951 3.20792 13.1256 3.00269 13.1256C2.79746 13.1256 2.62793 13.2951 2.62793 13.5004V18.002C2.62793 18.2072 2.793 18.3767 3.00269 18.3767Z" fill="#363636"/>
<path d="M13.5002 3.37733H17.6271V7.50416C17.6271 7.70939 17.7966 7.87892 18.0018 7.87892C18.2071 7.87892 18.3766 7.70939 18.3766 7.50416V3.00257C18.3766 2.79734 18.2071 2.62781 18.0018 2.62781H13.5002C13.295 2.62781 13.1255 2.79734 13.1255 3.00257C13.1255 3.20779 13.295 3.37733 13.5002 3.37733Z" fill="#363636"/>
<path d="M4.12664 17.2523C4.2248 17.2523 4.31849 17.2166 4.38987 17.1408L17.1407 4.38999C17.2879 4.24276 17.2879 4.00631 17.1407 3.85908C16.9934 3.71185 16.757 3.71185 16.6098 3.85908L3.85896 16.6099C3.71173 16.7571 3.71173 16.9936 3.85896 17.1408C3.9348 17.2122 4.02849 17.2523 4.12664 17.2523Z" fill="#363636"/>
</svg>
