<svg width="22" height="22" viewBox="0 0 22 22" fill="none" xmlns="http://www.w3.org/2000/svg">
<path d="M18.8944 3H2.11018C0.948661 3 0 3.94865 0 5.11018V15.6703C0 16.8319 0.948661 17.7805 2.11018 17.7805H2.33231V19.3354H3.88718V17.7805H17.1128V19.3354H18.6677V17.7805H18.8898C20.0513 17.7805 21 16.8319 21 15.6703V5.11018C21.0046 3.94865 20.056 3 18.8944 3ZM20.2272 15.6703C20.2272 16.4061 19.6302 17.0031 18.8944 17.0031H18.6723H17.1174H3.8918H2.33693H2.11481C1.37902 17.0031 0.782063 16.4061 0.782063 15.6703V5.11018C0.782063 4.37439 1.37902 3.77743 2.11481 3.77743H18.8991C19.6348 3.77743 20.2318 4.37439 20.2318 5.11018V15.6703H20.2272Z" fill="#363636"/>
<path d="M9.79225 7.29004H5.90508C5.80327 7.29004 5.71997 7.37333 5.71997 7.47514V7.78518C5.71997 7.88699 5.80327 7.97029 5.90508 7.97029H7.26559C7.3674 7.97029 7.45069 8.05359 7.45069 8.1554V12.9357C7.45069 13.0375 7.53398 13.1208 7.63579 13.1208H8.07078C8.17259 13.1208 8.25589 13.0375 8.25589 12.9357V8.1554C8.25589 8.05359 8.33919 7.97029 8.44099 7.97029H9.8015C9.90331 7.97029 9.9866 7.88699 9.9866 7.78518V7.47514C9.97272 7.37333 9.88943 7.29004 9.79225 7.29004Z" fill="#363636"/>
<path d="M15.0999 7.29004H14.6418C14.5631 7.29004 14.4937 7.34094 14.4659 7.41498L13.2443 11.2142L12.8787 12.3619L12.5224 11.2142L11.3053 7.41498C11.2822 7.34094 11.2127 7.29004 11.1295 7.29004H10.6204C10.4955 7.29004 10.4076 7.41035 10.4446 7.53067L12.2586 12.9912C12.2817 13.0653 12.3511 13.1162 12.4344 13.1162H13.2396C13.3183 13.1162 13.3877 13.0653 13.4109 12.9912L15.2665 7.53067C15.3128 7.41498 15.2249 7.29004 15.0999 7.29004Z" fill="#363636"/>
</svg>
