<svg width="22" height="22" viewBox="0 0 22 22" fill="none" xmlns="http://www.w3.org/2000/svg">
<path d="M19.6309 12.2497H19.2561V11.9239C19.2561 10.8619 18.3948 10.0006 17.3328 10.0006H10.6749C9.61284 10.0006 8.7516 10.8619 8.7516 11.9239V12.2497V3.56141C8.7516 2.14683 7.6003 1 6.19019 1H4.56142C3.14684 1 2 2.15129 2 3.56141V13.0038H3.64662L5.75287 17.1539V21.6252C5.75287 21.8304 5.92244 22 6.12771 22H16.6277C16.7393 22 16.8464 21.9509 16.9178 21.8661C16.9892 21.7813 17.0204 21.6698 16.9981 21.5582L16.293 17.6759C17.8772 16.663 19.1043 15.1369 19.7514 13.3742L19.979 12.7539C20.0236 12.6379 20.0057 12.5085 19.9343 12.4103C19.8629 12.3122 19.7559 12.2497 19.6309 12.2497ZM9.50574 11.9195C9.50574 11.2724 10.0323 10.7459 10.6794 10.7459H17.3372C17.9843 10.7459 18.5108 11.2724 18.5108 11.9195V12.2452H9.51021V11.9195H9.50574ZM2.75414 3.55695C2.75414 2.55738 3.5663 1.74522 4.56587 1.74522H6.19466C7.19423 1.74522 8.00639 2.55738 8.00639 3.55695V12.2452H3.87868H2.75414V3.55695ZM19.0508 13.1109C18.4395 14.7665 17.2792 16.1855 15.7799 17.1092L15.6817 17.1717C15.5523 17.252 15.4809 17.4037 15.5077 17.5599L16.177 21.2503H6.4981V17.0601C6.4981 17.0021 6.48471 16.9441 6.45794 16.8906L4.48555 12.9994H8.7516H19.091L19.0508 13.1109Z" fill="#020202"/>
</svg>
