<svg width="46" height="46" viewBox="0 0 46 46" fill="none" xmlns="http://www.w3.org/2000/svg">
<path d="M20.7285 28.9717C22.2556 27.2687 24.7403 27.2687 26.2716 28.9717C26.4269 29.1444 26.634 29.2355 26.841 29.2355C27.0481 29.2355 27.2552 29.1492 27.4104 28.9717C27.7253 28.6215 27.7253 28.0554 27.4104 27.7052C26.3665 26.5443 24.9775 25.9062 23.4979 25.9062C22.0226 25.9062 20.6336 26.5443 19.5897 27.7052C19.2748 28.0554 19.2748 28.6215 19.5897 28.9717C19.9046 29.3219 20.4136 29.3219 20.7285 28.9717Z" fill="#020202"/>
<path d="M14.9654 23.1304C14.6505 23.4806 14.6505 24.0467 14.9654 24.3969C15.2803 24.7471 15.7893 24.7471 16.1042 24.3969C20.1807 19.8587 26.8195 19.8587 30.9002 24.3969C31.0555 24.5696 31.2626 24.6607 31.4697 24.6607C31.6767 24.6607 31.8838 24.5744 32.0391 24.3969C32.354 24.0467 32.354 23.4806 32.0391 23.1304C27.3328 17.8966 19.6717 17.8966 14.9654 23.1304Z" fill="#020202"/>
<path d="M9.25829 18.9847C8.93045 19.3205 8.91319 19.8866 9.21515 20.2511C9.51711 20.6157 10.0261 20.6349 10.354 20.2991C13.9904 16.5477 18.7139 14.5905 23.6833 14.8063C28.6398 15.0174 33.2296 17.3584 36.6029 21.4073C36.7625 21.5992 36.9782 21.6951 37.1939 21.6951C37.388 21.6951 37.5864 21.6184 37.7417 21.4553C38.0696 21.1194 38.0868 20.5534 37.7848 20.1888C34.1182 15.7898 29.1359 13.2424 23.748 13.017C18.3602 12.7867 13.214 14.9071 9.25829 18.9847Z" fill="#020202"/>
<path d="M23.5022 29.9951C23.0061 29.9951 22.6006 30.4461 22.6006 30.9977C22.6006 31.5494 23.0061 32.0003 23.5022 32.0003C23.9982 32.0003 24.4037 31.5494 24.4037 30.9977C24.4037 30.4461 23.9982 29.9951 23.5022 29.9951Z" fill="#020202"/>
</svg>
