<svg width="138" height="138" viewBox="0 0 138 138" fill="none" xmlns="http://www.w3.org/2000/svg">
<path d="M71.737 138C71.7374 137.614 71.7331 137.228 71.722 136.843C71.7157 136.622 71.7066 136.402 71.696 136.181C71.666 136.155 71.6392 136.12 71.6177 136.077C71.2152 135.276 70.5983 134.536 70.3001 133.689C70.2784 133.627 70.31 133.402 70.4195 133.497C70.8993 133.918 71.2941 134.562 71.6413 135.16C71.5763 133.962 71.5286 132.762 71.7114 131.573C71.7559 131.284 72.0054 131.46 71.9871 131.681C71.8925 132.837 71.9692 133.982 72.0494 135.129C72.2372 134.888 72.4297 134.652 72.6121 134.404C72.8318 134.105 72.9794 133.801 73.3061 133.61C73.4963 133.499 73.5334 133.927 73.432 134.025C72.8677 134.57 72.5282 135.265 72.1026 135.914C72.1333 136.395 72.1577 136.878 72.1636 137.362C72.1663 137.575 72.1672 137.787 72.167 138H71.737ZM73.3012 138C73.5067 137.787 73.6932 137.556 73.827 137.253C73.9657 136.938 74.198 137.324 74.0832 137.539C74.0014 137.692 73.915 137.848 73.8216 138H73.3012ZM66.4369 138C67.0848 136.259 67.7376 134.52 68.3871 132.779C69.1288 130.793 69.955 128.875 70.8539 126.955C71.2758 126.055 71.6809 125.143 71.9888 124.197C72.271 123.329 72.3873 122.384 72.8225 121.574C72.8713 121.483 72.9268 121.497 72.969 121.55C73.0511 121.497 73.1658 121.527 73.1933 121.686C73.8559 125.511 75.0432 129.198 75.645 133.037C75.9041 134.69 76.1542 136.345 76.3957 138H75.9556C75.7169 136.362 75.4693 134.725 75.2125 133.09C74.9082 131.151 74.5302 129.247 74.0094 127.355C73.5336 125.626 73.1396 123.893 72.9242 122.115C72.6418 123.001 72.4659 123.915 72.161 124.797C71.8485 125.701 71.4568 126.574 71.0543 127.441C70.1742 129.335 69.3959 131.237 68.6869 133.202C68.1098 134.801 67.535 136.401 66.9569 138H66.4369ZM69.7845 138C69.6803 137.9 69.5719 137.803 69.4582 137.71C69.3329 137.608 69.3948 137.235 69.5837 137.357C69.8701 137.541 70.1127 137.758 70.3423 138H69.7845ZM22.8115 121.66C22.7973 121.584 22.8002 121.505 22.8281 121.434C23.6343 119.377 24.4503 117.324 25.2463 115.264C25.6513 114.215 25.9992 113.168 26.1956 112.059C26.3603 111.127 26.5269 110.215 26.8344 109.317C27.5318 107.282 28.526 105.346 29.3102 103.342C29.6889 102.374 30.0615 101.404 30.3815 100.415C30.6906 99.46 30.8859 98.4536 31.4226 97.5925C31.5175 97.44 31.6166 97.4924 31.6768 97.608C31.7414 97.6358 31.7977 97.7127 31.8078 97.8377C32.1351 101.894 33.161 105.873 33.9851 109.849C34.3899 111.801 34.7945 113.753 35.1992 115.704C35.4004 116.675 35.6018 117.646 35.8031 118.617C35.8948 119.059 35.9864 119.501 36.078 119.943C36.1577 120.327 36.1713 120.876 36.3075 121.235C36.3289 121.291 36.3292 121.407 36.3088 121.521C36.3026 121.705 36.2177 121.888 36.0565 121.917C34.3534 122.216 32.5466 122.299 30.7852 122.266C30.8647 124.891 30.9475 127.52 30.8961 130.139C30.8873 130.589 30.4409 130.601 30.4151 130.15C30.2641 127.527 30.2477 124.887 30.2277 122.252C29.9136 122.242 29.6016 122.228 29.2924 122.212C27.1693 122.099 25.0702 122.088 22.9486 122.069C22.782 122.068 22.7344 121.804 22.8115 121.66ZM35.7279 121.138L35.7247 121.138C35.7143 121.087 35.704 121.035 35.6931 120.986C35.5764 120.457 35.4772 119.923 35.3693 119.392C35.1533 118.329 34.9375 117.267 34.7215 116.204C34.3156 114.207 33.9096 112.209 33.5038 110.212C32.7173 106.341 31.6829 102.398 31.4807 98.4366C31.0886 99.3229 30.9041 100.325 30.6054 101.237C30.28 102.229 29.9206 103.206 29.5268 104.173C28.7494 106.081 27.7885 107.94 27.1618 109.905C26.8438 110.903 26.7427 111.935 26.5171 112.953C26.3057 113.907 25.9726 114.824 25.6203 115.734C24.8713 117.666 24.1122 119.595 23.3573 121.526C24.3157 121.424 25.2735 121.31 26.2345 121.254C27.255 121.194 28.2549 121.32 29.272 121.378C29.4598 121.389 29.6474 121.397 29.8344 121.403C29.6141 121.138 29.4321 120.818 29.2541 120.584C28.6925 119.847 28.1214 119.124 27.5132 118.425C27.3724 118.263 27.5511 117.833 27.7351 118.068C28.5061 119.054 29.3518 119.94 30.2155 120.823C30.2092 120.185 30.2012 119.548 30.1896 118.912C30.1758 118.16 30.1624 117.408 30.15 116.656C29.2174 115.863 28.3475 114.875 27.6723 113.863C27.604 113.761 27.6813 113.383 27.8258 113.541C28.5881 114.376 29.3523 115.189 30.1393 115.996C30.1182 114.648 30.101 113.3 30.0913 111.952C29.8577 111.713 29.6729 111.46 29.4681 111.186C29.2263 110.864 29.037 110.448 28.7562 110.162C28.6815 110.086 28.6683 109.811 28.8337 109.853C29.2639 109.961 29.6454 111.069 30.0876 111.356C30.0808 110.122 30.081 108.887 30.0909 107.651C30.093 107.391 30.3564 107.385 30.3683 107.644C30.4249 108.876 30.4718 110.108 30.5117 111.339C30.5228 111.33 30.534 111.321 30.5453 111.311C30.8107 111.071 30.9012 110.56 31.1236 110.267C31.2673 110.078 31.4302 109.781 31.6827 109.768C31.7382 109.765 31.7601 109.841 31.7619 109.883C31.7806 110.305 31.4 110.52 31.1966 110.86C30.9716 111.237 30.8211 111.604 30.5299 111.916C30.5688 113.176 30.6008 114.436 30.6294 115.696C30.8638 115.341 31.1062 114.991 31.3593 114.646C31.6586 114.238 31.9485 113.742 32.3838 113.471C32.43 113.442 32.4635 113.465 32.4852 113.507C32.5084 113.515 32.5204 113.545 32.5211 113.575C32.5214 113.589 32.519 113.603 32.5139 113.615C32.5174 113.651 32.5153 113.684 32.5078 113.702C32.2877 114.234 31.8881 114.673 31.556 115.141C31.2484 115.574 30.9451 116.011 30.6461 116.451C30.6637 117.267 30.68 118.083 30.696 118.899C30.71 119.614 30.7286 120.33 30.7492 121.046C31.4928 120.101 32.2247 119.078 32.8626 118.076C33.011 117.843 33.2083 118.237 33.0869 118.4C32.3712 119.363 31.675 120.392 31.0172 121.407C32.591 121.377 34.1481 121.22 35.7279 121.138ZM110.133 89.8018C109.536 91.6385 108.631 93.4277 107.882 95.1906C107.087 97.0644 106.261 98.9253 105.634 100.864C104.481 104.433 103.877 108.386 101.856 111.604C101.666 111.905 101.431 111.438 101.526 111.235C102.362 109.456 103.059 107.644 103.618 105.759C104.166 103.915 104.625 102.045 105.218 100.214C105.848 98.2665 106.69 96.3951 107.485 94.5108C107.911 93.5009 108.331 92.4884 108.77 91.4842C109.172 90.5647 109.534 89.5795 110.06 88.7235C110.165 88.5518 110.264 88.6364 110.319 88.7697C110.369 88.8022 110.41 88.8688 110.42 88.9691C110.803 92.7825 112.058 96.4365 112.584 100.225C112.852 102.156 113.022 104.098 113.342 106.022C113.499 106.96 113.679 107.893 113.869 108.825C114.054 109.733 114.359 110.673 114.399 111.599C114.399 111.6 114.399 111.602 114.399 111.603C114.49 111.603 114.58 111.605 114.671 111.607C115.028 111.618 114.953 112.354 114.674 112.316C113.605 112.481 112.48 112.441 111.4 112.483C110.679 112.511 109.957 112.534 109.236 112.546C109.288 115.147 109.331 117.75 109.271 120.35C109.259 120.851 108.75 120.869 108.733 120.363C108.645 117.761 108.668 115.157 108.672 112.553C108.484 112.554 108.296 112.555 108.108 112.554C105.916 112.548 103.713 112.638 101.525 112.49C101.197 112.468 101.179 111.746 101.507 111.749C103.705 111.77 105.891 111.925 108.092 111.866C108.178 111.864 108.264 111.861 108.351 111.859C107.935 111.241 107.493 110.645 107.01 110.076C106.426 109.388 105.731 108.765 105.202 108.037C105.081 107.869 105.157 107.35 105.44 107.536C106.15 108.001 106.742 108.778 107.268 109.439C107.764 110.061 108.232 110.704 108.672 111.366C108.671 110.691 108.667 110.016 108.659 109.342C108.647 108.373 108.632 107.404 108.612 106.435C108.259 106.127 107.886 105.835 107.52 105.541C107.329 105.387 107.136 105.233 106.941 105.083C106.793 104.969 106.28 104.468 106.094 104.49C105.867 104.516 105.869 104.107 105.944 103.987C105.955 103.968 105.967 103.949 105.978 103.931C106.025 103.855 106.097 103.816 106.184 103.842C106.713 103.996 107.236 104.497 107.643 104.85C107.994 105.153 108.302 105.482 108.6 105.824C108.574 104.578 108.542 103.333 108.503 102.088C108.004 101.386 107.354 100.793 106.775 100.158C106.625 99.9936 106.676 99.4033 106.968 99.617C107.604 100.083 108.056 100.682 108.478 101.321C108.442 100.244 108.402 99.1678 108.356 98.0915C108.339 97.67 108.783 97.6647 108.804 98.0805C108.858 99.1403 108.906 100.2 108.948 101.261C109.262 100.777 109.586 100.268 109.988 99.9123C110.163 99.7579 110.231 100.105 110.197 100.214C109.984 100.896 109.484 101.508 108.978 102.025C109.025 103.274 109.064 104.522 109.097 105.771C109.588 105.037 110.154 104.336 110.774 103.717C110.981 103.51 111.131 104.007 111.011 104.158C110.4 104.93 109.766 105.694 109.114 106.435C109.138 107.399 109.157 108.364 109.173 109.329C109.182 109.828 109.191 110.328 109.201 110.828C109.705 110.065 110.231 109.319 110.799 108.599C111.066 108.26 111.318 108.851 111.139 109.091C110.476 109.977 109.826 110.875 109.221 111.802L109.221 111.837C109.942 111.818 110.662 111.799 111.383 111.773C112.214 111.742 113.055 111.643 113.891 111.612C113.583 110.77 113.485 109.801 113.311 108.93C113.125 107.997 112.95 107.062 112.797 106.123C112.474 104.153 112.311 102.164 112.026 100.19C111.522 96.7043 110.363 93.3211 110.133 89.8018ZM70.288 56.3923C70.3367 56.2815 70.4351 56.2201 70.4985 56.3842C71.1575 58.091 71.0861 59.9644 71.4513 61.7384C71.8483 63.668 72.465 65.543 72.8169 67.4846C72.9879 68.428 73.0733 69.374 73.1807 70.3252C73.3032 71.4115 73.5755 72.4747 73.8159 73.5394C74.0309 74.4906 74.2461 75.4418 74.4615 76.3931C74.5789 76.9118 74.6964 77.4306 74.8139 77.9494C74.8725 78.2086 74.9361 78.4675 74.9902 78.7276C75.0132 78.8391 75.1156 79.0572 75.1013 79.0596C75.1185 79.139 75.117 79.2265 75.1035 79.3039C75.2442 79.5835 75.1663 80.0702 74.8751 80.0461C73.7527 79.9533 72.6475 80.2775 71.5173 80.2296C70.8722 80.2023 70.2598 80.211 69.6422 80.2521C69.6407 81.0125 69.6413 81.7731 69.645 82.5337C69.6541 84.3381 69.6169 86.166 69.9094 87.952C69.9924 88.4577 69.4081 88.8556 69.3043 88.2237C69.0109 86.4381 69.0219 84.6246 69.0101 82.8201C69.0046 81.9819 69.0034 81.1437 69.0046 80.3056C68.8203 80.3241 68.6344 80.3454 68.4459 80.3691C67.394 80.502 66.3383 80.4921 65.2805 80.5233C64.3345 80.5512 63.2079 80.7616 62.2677 80.5487C62.0775 80.9794 61.6758 80.4368 61.7985 80.082C63.1754 76.1001 64.565 72.1227 65.9472 68.1426C67.3029 64.239 68.5958 60.3048 70.096 56.4537C70.1506 56.3134 70.2303 56.3239 70.288 56.3923ZM70.3213 56.7662C69.1228 60.7174 67.7228 64.6088 66.3861 68.5145C65.1152 72.2284 63.8505 75.9444 62.5761 79.6575C63.4766 79.4945 64.5153 79.6249 65.3945 79.6035C66.4053 79.5789 67.42 79.5464 68.4223 79.4041C68.5199 79.3903 68.6168 79.3776 68.7131 79.366C68.3481 78.9757 68.0419 78.3834 67.8099 78.0346C67.3857 77.3969 66.8845 76.854 66.4249 76.2491C66.3577 76.1607 66.3721 75.7933 66.5563 75.8782C67.5488 76.3352 68.0954 77.6881 68.7385 78.5094C68.8256 78.6207 68.9154 78.7291 69.0086 78.8353C69.0103 78.3158 69.0128 77.7963 69.015 77.2767C69.0188 76.4465 69.0279 75.6163 69.0419 74.7865C68.3871 73.8105 67.6121 72.9108 66.9841 71.9198C66.9326 71.8384 66.9717 71.5277 67.1115 71.6525C67.8938 72.3508 68.4898 73.2549 69.0537 74.1453C69.0816 72.7372 69.1227 71.3294 69.1735 69.9218C68.727 69.5147 68.3039 69.0116 67.9384 68.5411C67.8436 68.4192 67.9291 67.9878 68.1212 68.1572C68.4888 68.4814 68.867 68.851 69.199 69.2349C69.243 68.0853 69.2928 66.9366 69.3468 65.7883C69.3584 65.543 69.6171 65.5296 69.613 65.7817C69.5941 66.9227 69.5924 68.0635 69.5986 69.204C69.939 68.7918 70.253 68.3601 70.6005 67.9534C70.7936 67.7274 70.8957 68.2389 70.8259 68.3722C70.5212 68.9536 70.0764 69.4528 69.6033 69.9049C69.614 71.2487 69.6331 72.5927 69.6454 73.937C69.8684 73.5161 70.0764 73.0855 70.2746 72.6576C70.4803 72.2135 70.6737 71.775 71.0267 71.4276C71.2361 71.2212 71.369 71.7138 71.2603 71.8621C70.9128 72.3367 70.7213 72.88 70.449 73.3965C70.2115 73.8477 69.928 74.2607 69.6515 74.6826C69.6569 75.4547 69.6591 76.2272 69.6554 76.9999C69.6526 77.5788 69.6496 78.1578 69.6471 78.7366C69.8557 78.4468 70.0477 78.1411 70.2623 77.8559C70.7326 77.2305 71.1839 76.5919 71.6416 75.9573C71.8323 75.6926 72.0263 76.1449 71.899 76.3292C71.3249 77.1601 70.7723 78.0079 70.1902 78.8328C70.1058 78.9526 70.0147 79.1165 69.9116 79.2717C70.4734 79.2506 71.0347 79.2599 71.6238 79.2886C72.5509 79.334 73.4591 79.1172 74.377 79.1023C74.2314 78.6612 74.2011 78.0663 74.1462 77.8205C73.9236 76.825 73.7012 75.8296 73.4784 74.8342C73.2478 73.8049 72.9958 72.7776 72.7949 71.7421C72.5959 70.7169 72.5503 69.6756 72.4035 68.6431C72.11 66.5817 71.5211 64.5934 71.0399 62.5728C70.5846 60.6609 70.8823 58.6442 70.3213 56.7662ZM0 59.5663C0.157044 59.0803 0.302496 58.5904 0.435252 58.0962C0.984492 56.0516 1.61101 54.0981 2.49739 52.1705C3.33477 50.3494 4.22501 48.5411 5.15996 46.7682C5.3417 46.4236 5.64172 46.8253 5.64199 47.0559C5.64282 48.0675 5.94849 49.0175 6.20172 49.9875C6.4268 50.8501 6.64015 51.7156 6.84176 52.5839C7.25507 54.364 7.61953 56.1552 7.93376 57.9554C8.55379 61.5089 8.92667 65.095 9.32632 68.6783C9.41395 68.6858 9.50144 68.6939 9.58893 68.7032C9.79993 68.7251 9.81787 69.1834 9.6008 69.186C7.84061 69.2069 6.09739 69.2906 4.34838 69.4157C4.44443 72.1497 4.60409 74.8842 4.68055 77.6186C4.69628 78.1847 4.11254 78.1905 4.08038 77.6333C3.92306 74.9053 3.94294 72.1757 3.91934 69.4471C3.58662 69.4721 3.25404 69.4985 2.92105 69.5262C1.94897 69.6069 0.974142 69.6734 0 69.6943V69.0831C0.967656 69.0766 1.93711 69.0226 2.90683 68.9527C3.06581 68.9411 3.2252 68.9288 3.38445 68.9158C3.00233 68.5047 2.67623 68.0351 2.34779 67.5873C1.84202 66.8978 1.234 66.3156 0.708768 65.6483C0.632316 65.551 0.659916 65.2877 0.824826 65.3209C1.52711 65.4631 2.03688 66.1645 2.45171 66.7038C2.92601 67.3205 3.37313 67.9279 3.90885 68.4836C3.90016 67.8442 3.88774 67.2046 3.86855 66.5651C3.84454 65.7596 3.83543 64.9549 3.83074 64.1505C3.12322 63.3506 2.29549 62.563 1.74694 61.6487C1.69367 61.56 1.71741 61.2648 1.87749 61.3745C2.6122 61.8786 3.22561 62.6497 3.82688 63.3412C3.82398 62.6002 3.82177 61.8592 3.8117 61.1174C3.80645 60.7222 3.79265 60.3268 3.77306 59.9316C3.16061 59.2261 2.59481 58.4906 2.09594 57.6996C1.98706 57.527 2.13941 57.0787 2.32323 57.334C2.77104 57.9561 3.23389 58.5655 3.72697 59.1515C3.64182 57.8862 3.51113 56.6208 3.4126 55.3605C3.38197 54.9662 3.80369 54.9626 3.83157 55.3503C3.92458 56.6356 4.0216 57.9208 4.11461 59.2064C4.5275 58.5001 4.77052 57.7109 5.34764 57.0974C5.47018 56.9671 5.53311 57.2681 5.4844 57.3516C4.98815 58.1985 4.75645 59.1711 4.16926 59.9689C4.19617 60.3482 4.22252 60.7275 4.24805 61.1068C4.29484 61.7972 4.30684 62.4908 4.30519 63.1854C4.87223 62.4338 5.4412 61.6952 5.98934 60.9263C6.15066 60.6998 6.29942 61.0832 6.20531 61.2382C5.61177 62.2151 4.99629 63.1798 4.29704 64.0854C4.28559 64.9098 4.26737 65.7342 4.27745 66.5551C4.28393 67.0797 4.2947 67.6044 4.3085 68.1292C4.92867 67.2046 5.5407 66.2331 6.30011 65.4498C6.47537 65.2689 6.53402 65.6863 6.48352 65.7908C5.97195 66.8479 5.24566 67.832 4.57553 68.8134C5.98727 68.6894 7.40922 68.5725 8.81737 68.644C8.4122 65.0085 8.03947 61.372 7.40246 57.7678C7.08423 55.9673 6.71743 54.1753 6.30136 52.3949C5.9656 50.9588 5.49999 49.5245 5.23324 48.0669C4.46692 49.6626 3.64527 51.2325 2.91083 52.8435C2.06752 54.6934 1.47605 56.5713 0.946542 58.5294C0.68793 59.4856 0.364596 60.4196 0 61.3378V59.5663ZM138 59.5663V61.3378C137.637 62.251 137.234 63.1487 136.813 64.0372C136.067 65.6128 135.04 67.1748 134.478 68.8406C135.648 69.0288 136.823 69.0909 138 69.0831V69.6943C136.758 69.7208 135.518 69.6732 134.285 69.4867C134.277 69.4855 134.27 69.4841 134.263 69.4822C134.131 69.6371 133.887 69.3538 133.933 69.1352C134.337 67.2317 135.503 65.5265 136.323 63.7817C136.967 62.4104 137.535 61.0061 138 59.5663ZM39.7546 21.4829C39.8403 21.1968 40.1118 21.3416 40.1379 21.6123C40.2369 22.6382 40.3057 23.6198 40.5451 24.6296C40.7669 25.5646 41.0095 26.4946 41.2325 27.4294C41.6888 29.3432 42.1028 31.2665 42.4781 33.1978C42.8613 35.1701 43.2044 37.15 43.5084 39.1361C43.6559 40.1 43.7932 41.0652 43.925 42.0314C44.0449 42.9107 44.269 43.7775 44.3812 44.6536C44.4049 44.8396 44.3077 45.0702 44.1796 45.1056C44.1549 45.1417 44.124 45.171 44.0869 45.1892C43.5797 45.4399 42.9376 45.3864 42.3797 45.419C41.8297 45.4513 41.2798 45.4812 40.73 45.5123C40.2422 45.5399 39.7537 45.5728 39.2647 45.5988C39.3649 48.2209 39.469 50.8482 39.4143 53.4641C39.4042 53.9478 38.9323 53.9573 38.8992 53.4768C38.7195 50.8709 38.6973 48.2462 38.6717 45.6261C38.2913 45.6403 37.9107 45.6474 37.5301 45.6412C36.4745 45.624 35.4231 45.5084 34.3689 45.4593C33.8662 45.4358 33.3672 45.4181 32.8639 45.429C32.3972 45.4391 31.9195 45.556 31.4727 45.4075C31.4218 45.3907 31.3944 45.3387 31.3869 45.2804C31.2457 45.2324 31.1187 44.9423 31.1465 44.794C31.3351 43.7824 31.7337 42.7876 32.0501 41.8097L33.0582 38.6952C33.6634 36.8257 34.2655 34.9742 35.1647 33.2214C36.1143 31.3706 36.7544 29.4433 37.4314 27.4827C38.1124 25.511 38.9041 23.5853 39.6351 21.6337C39.6677 21.5468 39.7099 21.5 39.7546 21.4829ZM89.6667 40.0927C89.6688 40.0686 89.6725 40.045 89.6782 40.0225C90.2192 37.8708 90.9924 35.7592 91.6544 33.6416C92.3045 31.5623 92.9546 29.4827 93.6046 27.4032C94.2685 25.2798 94.9299 23.1556 95.5914 21.0312C96.0839 19.4497 96.5567 17.7667 97.8021 16.5975C97.8742 16.5299 97.9387 16.5223 97.9921 16.552C98.0918 16.548 98.1949 16.6563 98.2033 16.8276C98.2539 17.8475 98.273 18.8295 98.4482 19.8425C98.6083 20.7664 98.8153 21.6823 99.0051 22.6003C99.3953 24.4873 99.7726 26.3768 100.156 28.265C100.932 32.0865 101.707 35.9081 102.486 39.729C102.561 40.0993 102.274 40.4083 102.061 40.3109C100.605 40.573 99.0857 40.6371 97.5772 40.6708C97.5868 41.4907 97.5888 42.3104 97.599 43.1271C97.6108 44.0834 97.6281 45.04 97.614 45.9964C97.6012 46.8674 97.6727 47.8227 97.4908 48.677C97.4331 48.948 97.1658 48.9719 97.1031 48.6865C96.9159 47.8311 96.9729 46.8862 96.9454 46.0128C96.9155 45.057 96.9117 44.1004 96.8977 43.1443C96.8855 42.3258 96.8605 41.5057 96.8393 40.6856C96.2749 40.6961 95.7138 40.7061 95.1598 40.7246C94.0269 40.7626 92.8936 40.7946 91.7603 40.8211C90.8742 40.8418 89.717 41.0673 89.0564 40.36C89.0057 40.3058 88.9801 40.1228 89.0934 40.118C89.2843 40.1097 89.4755 40.1013 89.6667 40.0927ZM39.6722 22.7867C38.3107 26.2729 37.4164 29.9499 35.7925 33.3251C34.8656 35.252 34.2189 37.2552 33.5579 39.2839C33.2341 40.2774 32.9104 41.2708 32.5866 42.2643C32.3021 43.1376 32.0677 44.0645 31.6927 44.9081C32.3927 44.5007 33.4755 44.5388 34.2208 44.558C35.2767 44.5855 36.3257 44.7382 37.3823 44.7549C37.7666 44.761 38.1508 44.7528 38.535 44.7366C38.2943 44.5401 38.0667 44.1634 37.9264 43.9908C37.6082 43.5993 37.2894 43.2084 36.9732 42.8151C36.4018 42.1045 35.7064 41.5256 35.1256 40.8394C35.0499 40.7502 35.0771 40.4543 35.2441 40.5049C35.8156 40.6783 36.2774 41.2624 36.6614 41.6977C37.1933 42.3003 37.6888 42.9357 38.1937 43.5609C38.2641 43.648 38.4624 43.8943 38.6545 44.0337C38.6472 43.4667 38.6382 42.8995 38.6259 42.3332C38.6085 41.5307 38.5874 40.7284 38.5663 39.9257C38.5364 39.8941 38.5103 39.8525 38.4904 39.8009C38.0587 38.6844 36.8369 37.9812 36.2493 36.9683C36.2171 36.9129 36.2089 36.6448 36.3394 36.7137C36.8235 36.9691 37.1849 37.4616 37.5544 37.8593C37.8331 38.1595 38.1809 38.6727 38.5416 38.9806C38.5212 38.1867 38.5023 37.3929 38.4882 36.599C38.4803 36.1519 38.4711 35.7046 38.4632 35.2573C38.3371 35.1245 38.2441 34.9362 38.1531 34.8113C37.8614 34.4099 37.5319 34.0424 37.175 33.6979C37.0108 33.5394 37.1202 32.9867 37.3543 33.1944C37.7524 33.5478 38.1211 33.9298 38.4497 34.3485C38.4475 34.1427 38.4458 33.937 38.445 33.7312C38.4418 32.8639 38.3175 31.9307 38.4803 31.0762C38.5187 30.8753 38.7109 30.8707 38.7588 31.0695C38.9722 31.9554 38.8887 32.9471 38.9276 33.856C38.9379 34.0958 38.947 34.3356 38.9553 34.5758C38.958 34.5741 38.9604 34.5724 38.9631 34.5708C39.0813 34.4943 39.1861 34.2498 39.2693 34.1375C39.4567 33.8849 39.6499 33.6371 39.8418 33.388C40.0553 33.1112 40.2296 33.5849 40.1118 33.778C39.8515 34.2037 39.6121 34.6667 39.3001 35.0577C39.2084 35.1726 39.1075 35.299 38.9806 35.3666C38.9941 35.8185 39.0064 36.2705 39.0201 36.7225C39.0383 37.321 39.0533 37.9195 39.0672 38.5183C39.6053 37.8833 40.2843 37.3164 40.9131 36.8468C41.1586 36.6636 41.271 37.1722 41.1079 37.3188C40.7045 37.681 40.3219 38.0422 39.9747 38.4577C39.6497 38.8466 39.3893 39.2701 39.0926 39.6746C39.1115 40.5565 39.1299 41.4385 39.1531 42.3202C39.164 42.7316 39.1765 43.1434 39.1902 43.5554C39.3263 43.2746 39.4774 43.0004 39.6455 42.7374C40.0844 42.0507 40.6021 41.4084 41.0791 40.7477C41.3191 40.4151 41.5641 40.9839 41.403 41.2156C40.8425 42.0217 40.2503 42.8195 39.7321 43.6535C39.5969 43.8713 39.4628 44.3746 39.2293 44.6602L39.2297 44.6684L39.2308 44.6994C39.7234 44.6688 40.2158 44.631 40.7075 44.5986C41.3031 44.5595 41.8986 44.5188 42.4942 44.4814C42.905 44.4556 43.3374 44.3815 43.7454 44.4378C43.5266 43.7483 43.4893 42.9529 43.3963 42.2687C43.2591 41.2586 43.1152 40.2494 42.9606 39.2417C42.649 37.2109 42.2962 35.1865 41.9014 33.1702C41.4974 31.1071 41.0521 29.0515 40.567 27.0059C40.2561 25.6941 39.7446 24.2089 39.6722 22.7867ZM97.6978 17.6256C96.6562 18.9561 96.3119 20.8045 95.8206 22.3763C95.1975 24.3694 94.575 26.363 93.954 28.3568C93.3196 30.3946 92.6849 32.4325 92.0503 34.4703C91.4723 36.3267 90.9757 38.2333 90.3124 40.0636C92.0093 39.9855 93.7123 39.8976 95.4092 39.8021C95.8287 39.7785 96.251 39.7477 96.6751 39.7142C95.6486 38.3864 94.5587 37.102 93.5605 35.7561C93.4801 35.6476 93.5448 35.2649 93.7238 35.4133C94.3811 35.9584 94.891 36.7208 95.4298 37.3788C95.8874 37.9377 96.3446 38.4973 96.8073 39.0523C96.8024 38.5945 96.8024 38.1369 96.81 37.6799C96.8273 36.6473 96.8076 35.6141 96.7771 34.5809C96.1572 33.8198 95.4901 33.1016 94.7794 32.4239C94.6349 32.2862 94.7344 31.8082 94.9345 31.988C95.5831 32.5705 96.1867 33.1886 96.754 33.8453C96.7346 33.2568 96.7136 32.668 96.696 32.0796C96.6773 31.4484 96.6432 30.8137 96.6091 30.1781C96.2554 29.6384 95.8304 29.1903 95.3228 28.776C95.1739 28.6543 95.2655 28.2055 95.4699 28.3626C95.8639 28.6654 96.2266 29.0064 96.5669 29.3686C96.5191 28.4036 96.4859 27.4383 96.5198 26.4812C96.5322 26.1332 96.9413 25.9357 96.9955 26.371C97.1131 27.3125 97.1619 28.2687 97.1916 29.2265C97.4693 28.8374 97.777 28.4582 98.1188 28.1763C98.321 28.0094 98.3667 28.4148 98.3094 28.5307C98.0289 29.0994 97.6133 29.6572 97.2164 30.1714C97.2301 30.7594 97.2428 31.3463 97.266 31.9289C97.2908 32.5549 97.3074 33.1818 97.3234 33.8089C97.8468 33.1386 98.462 32.4915 99.1414 32.0247C99.3716 31.8664 99.4184 32.2985 99.3085 32.4303C98.6877 33.1758 97.9411 33.7856 97.3424 34.5538C97.3687 35.546 97.4007 36.5381 97.4683 37.5272C97.4952 37.9195 97.5155 38.3128 97.5309 38.7067C97.7417 38.3835 97.9565 38.0629 98.1659 37.7401C98.503 37.22 98.8297 36.5377 99.3376 36.1666C99.5074 36.0428 99.5649 36.3326 99.5306 36.4452C99.3305 37.0992 98.8843 37.6734 98.5136 38.2423C98.2117 38.7056 97.9193 39.1783 97.6096 39.6377C98.9969 39.5231 100.394 39.4131 101.766 39.4576C101.011 35.6781 100.253 31.8993 99.4947 28.1204C99.0975 26.1398 98.6942 24.1603 98.3076 22.1777C98.0294 20.7497 97.6028 19.1334 97.6978 17.6256ZM138 24.1569C136.617 24.2379 135.234 24.3179 133.852 24.3943C133.906 27.0588 133.976 29.7251 133.945 32.3863C133.939 32.8694 133.456 32.8803 133.43 32.3988C133.286 29.7495 133.271 27.0855 133.261 24.4267C132.93 24.4446 132.599 24.4624 132.267 24.48C131.129 24.5401 129.991 24.5804 128.852 24.6222C128.076 24.6507 126.323 24.6294 126.252 24.6305C125.959 24.6353 125.668 24.6175 125.375 24.6088C125.071 24.6 125.083 24.1391 125.179 23.9511C126.158 22.0237 127.335 20.102 128.068 18.0656C128.749 16.171 129.202 14.1868 129.829 12.2712C131.131 8.28593 132.614 4.34659 134.229 0.477618C134.262 0.399924 134.301 0.359766 134.341 0.347208C134.436 0.212244 134.633 0.26841 134.647 0.522054C134.751 2.43101 135.274 4.25509 135.812 6.07807C136.359 7.93127 136.745 9.80338 137.124 11.697C137.418 13.1721 137.71 14.6475 138 16.1234V19.0723C137.899 18.5163 137.797 17.9618 137.686 17.413C137.292 15.4537 136.904 13.4934 136.518 11.5324C136.138 9.60287 135.724 7.69943 135.201 5.80331C134.799 4.3459 134.41 2.88323 134.313 1.37807C132.879 5.19046 131.38 8.97331 130.137 12.855C129.499 14.8489 129.073 16.9521 128.291 18.8941C127.612 20.5795 126.734 22.1961 125.898 23.814C126.009 23.8109 126.383 23.8577 126.43 23.9259C128.705 23.897 130.982 23.7584 133.258 23.5968L133.258 23.5273C132.315 22.4676 131.219 21.4927 130.436 20.3126C130.368 20.2115 130.412 19.8517 130.589 19.9905C131.605 20.79 132.402 21.8919 133.255 22.8814C133.252 22.339 133.249 21.7972 133.243 21.2559C133.234 20.3892 133.226 19.5227 133.219 18.6565C132.53 17.7667 131.811 16.8996 131.082 16.0424C130.989 15.9324 131.099 15.5628 131.239 15.7132C131.911 16.4364 132.564 17.174 133.214 17.9158C133.209 17.1715 133.207 16.4274 133.207 15.6831C133.207 15.1883 133.2 14.6912 133.193 14.193C132.702 13.5568 132.223 12.9117 131.744 12.2667C131.643 12.1308 131.772 11.7808 131.925 11.9755C132.331 12.4933 132.753 12.9967 133.185 13.4927C133.177 12.4662 133.187 11.4394 133.285 10.4241C133.312 10.1448 133.559 10.2737 133.582 10.4777C133.693 11.4711 133.722 12.478 133.731 13.4849C133.873 13.26 133.971 12.997 134.113 12.7694C134.337 12.411 134.555 12.1971 134.846 11.9146C134.987 11.7786 135.046 12.099 134.994 12.1888C134.713 12.6721 134.452 13.1605 134.145 13.6318C134.012 13.8357 133.908 14.0843 133.735 14.2526C133.736 14.8175 133.736 15.3813 133.745 15.9419C133.756 16.5839 133.764 17.2259 133.771 17.8681C134.361 17.1793 134.937 16.492 135.458 15.739C135.656 15.4523 135.859 15.9371 135.732 16.135C135.181 16.9906 134.5 17.9185 133.779 18.6649C133.787 19.5692 133.794 20.4735 133.803 21.378C133.808 21.8571 133.814 22.3365 133.822 22.8155C134.033 22.4696 134.267 22.1411 134.535 21.828C135.003 21.283 135.595 20.8543 136.045 20.2959C136.193 20.1121 136.328 20.4007 136.264 20.5414C136.003 21.1176 135.565 21.468 135.135 21.9205C134.665 22.4153 134.248 22.9701 133.887 23.5515C135.259 23.452 136.63 23.3471 138 23.2559V24.1569ZM0 16.1234C0.095358 16.6093 0.19044 17.095 0.285108 17.5808C0.654672 19.4761 1.13546 21.3863 1.3484 23.3063C1.35433 23.3597 1.35061 23.4067 1.3397 23.4469C1.41491 23.7092 1.33184 24.0789 1.07612 24.0938L0 24.1569V23.2559C0.293802 23.2362 0.587466 23.2173 0.88113 23.1992C0.502872 21.8544 0.252678 20.4582 0 19.0723V16.1234ZM76.3957 0C76.7183 2.21145 77.0257 4.42483 77.3188 6.64001C77.519 6.84107 77.476 7.40108 77.1725 7.40549C75.4809 7.42978 73.7898 7.44193 72.0991 7.47518C72.1434 10.2666 72.2736 13.0531 72.4546 15.8425C72.488 16.3592 71.9348 16.366 71.9053 15.8561C71.7441 13.0712 71.6673 10.2767 71.6497 7.48457C71.3281 7.49161 71.0062 7.49961 70.6844 7.50858C68.526 7.56944 66.3736 7.78099 64.2168 7.82653C64.1668 7.82764 64.1287 7.80597 64.1021 7.77147C63.9083 7.88173 63.6179 7.48829 63.7497 7.1938C64.6558 5.16865 65.323 3.00219 66.0945 0.921702C66.2085 0.614376 66.3227 0.30705 66.4369 0H66.9569C66.789 0.464646 66.6207 0.929016 66.4521 1.39325C65.737 3.36196 64.9075 5.3268 64.297 7.33208C66.3631 6.88372 68.5584 6.79112 70.6643 6.69479C70.9632 6.68113 71.2621 6.66885 71.561 6.65795C71.5073 6.58619 71.4605 6.51677 71.4231 6.47137C71.1683 6.1628 70.9132 5.85437 70.6583 5.54567C70.0928 4.8605 69.5302 4.17243 68.955 3.49513C68.8663 3.3908 68.9745 3.04525 69.1018 3.1867C69.5964 3.7358 70.1003 4.27634 70.6031 4.81799C70.8393 5.07247 71.0752 5.3268 71.3111 5.58141C71.3631 5.63758 71.5061 5.82484 71.646 5.98547C71.6466 5.48026 71.6489 4.97504 71.6529 4.47023C71.6588 3.73635 71.6789 3.00178 71.698 2.26706C71.3801 2.08187 71.0218 1.48723 70.8756 1.29044C70.5355 0.832554 70.192 0.391092 69.7845 0H70.3423C70.4028 0.063618 70.4621 0.12903 70.5213 0.196098C70.8292 0.5451 71.1636 1.12415 71.5683 1.36496C71.6129 1.43272 71.6624 1.47839 71.7168 1.50172C71.7281 1.00105 71.7364 0.500388 71.737 0H72.167C72.1664 0.436908 72.1606 0.873954 72.1521 1.311C72.183 1.27333 72.2142 1.23579 72.2455 1.19839C72.3893 1.0459 72.481 0.854358 72.6179 0.695244C72.8398 0.437322 73.0814 0.228528 73.3012 0H73.8216C73.7242 0.1587 73.619 0.312708 73.5036 0.454158C73.2625 0.749616 72.9405 0.964344 72.723 1.28202C72.5741 1.49951 72.4145 2.02073 72.1315 2.23174C72.1112 3.06498 72.089 3.89809 72.0843 4.73092C72.0818 5.18507 72.0818 5.63923 72.0842 6.09325C72.2108 5.92738 72.3748 5.67746 72.4027 5.64627C72.5994 5.42588 72.8073 5.21433 73.0026 4.9916C73.3843 4.55593 73.7357 4.01704 74.2455 3.72779C74.3714 3.65631 74.373 3.91396 74.3453 3.9704C73.9771 4.71781 73.275 5.25863 72.786 5.92627C72.6907 6.05654 72.5521 6.38236 72.3771 6.63131C73.8737 6.58784 75.3716 6.57349 76.8689 6.56977C76.5785 4.37805 76.2748 2.18813 75.9556 0H76.3957Z" fill="#896441"/>
</svg>
