<svg xmlns="http://www.w3.org/2000/svg" xmlns:xlink="http://www.w3.org/1999/xlink"><symbol id="arrow-down--big" viewBox="0 0 54 28"><path d="M53 1L27 27 1 1" stroke="#363636" stroke-width=".5"/></symbol><symbol id="arrow-left" viewBox="0 0 6 10"><path d="M5 9L1 5l4-4" stroke="#000"/></symbol><symbol id="arrow-right" viewBox="0 0 6 10"><path d="M1 9l4-4-4-4" stroke="#000"/></symbol><symbol id="arrow-up--big" viewBox="0 0 54 28"><path d="M53 27L27 1 1 27" stroke="#363636" stroke-width=".5"/></symbol><symbol id="logo" viewBox="0 0 78 32"><path fill-rule="evenodd" clip-rule="evenodd" d="M60.864 9.825c1.862 1.853 2.747 2.513 4.96 3.963 2.178 1.428 3.009 2.683 4.803 4.123.542.435 6.51 1.944 6.464 2.458-.158.113-5.433-1.053-5.957-1.197-1.34-.366-5.03-.726-6.511-.804-3.951-.208-6.8-2.381-9.368-5.038-1.273-1.317-1.754-2.87-3.477-3.662-1.548-.712-3.708 1.22-4.679 2.292-.953 1.052-1.663 2.897-2.827 4.277-.63.746-4.012 2.724-4.716 2.395l2.688-2.083c.087-.29 1.227-1.55.403-1.974-.333-.172-1.989.177-2.544.196-1.8.062-2.903.52-4.485 1.229-1.03.462-7.595 3.446-7.893 3.468-.13-.44 4.134-2.87 4.725-3.217.713-.418 1.985-.794 2.825-1.163.727-.32 1.509-.903 1.281-1.28a.82.82 0 00-.053-.066c-.138-.137-.44-.238-.97-.274-1.522-.104-5.453.596-6.966 1.066-2.221.691-3.7 1.758-5.602 2.397l-8.19 2.431c.086-.364 6.104-2.224 7.127-2.625 2.37-.927 3.874-2.244 6.69-3.114 2.854-.882 5.518-1.3 8.49-1.184 4.408.172 4.284-.473 7.865-1.97l.451-.312c.09-.046.113-.04.18-.075.12-.065.201-.146.322-.193.065-.025.133-.043.183-.069l.09-.053c.175-.112.05-.05.155-.158l1.043-.721c.865-.412 1.52-1.33 2.806-1.618 1.268-.283 2.483-.156 3.634.52.92.54 4.215 3.71 4.387 4.414l.463.441c1.378 1.257 2.911 2.675 4.741 3.313.811.282 5.88 2.056 6.255 1.79.026-.818-7.444-5.288-8.574-6.326-1.324-1.216-2.479-2.578-3.707-3.726-1.283-1.198-2.717-2.123-4.233-3.195-.498-.353-4.127-3.233-4.216-3.26-.829-.247-1.456 1.023-2.254 1.442-.977.512-1.471.648-2.418 1.332-2.049 1.481-3.957.96-4.97 2.538-2.556 3.984.137 4.41.202 4.87l-.037.127-2.935-.822c-.472-.084-.756-.385-1.133-.576-.113-.058-.328-.12-.45-.209-.244-.178-.355-.142-.633-.432L31.02 6.402l.162-.137c-2.157-.232-.791 1.68-2.937 2.659-1.366.623-2.575 1.196-3.863 1.777-2.35 1.06-5.797 1.603-7.998 3.336-2.164 1.704-3.711 3.838-6.612 4.64-1.034.287-9.4 1.797-9.772 1.54.087-.119 4.968-1.312 5.534-1.43 2.141-.447 3.41-.52 5.387-1.562 1.5-.79 2.362-2.25 3.519-3.354 1.308-1.248 2.665-1.76 4.222-2.65 3.098-1.772 4.741-4.905 7.439-6.283 5.532-2.825 6.983 3.766 8.53 3.726.319-.285 1.217-1.881 1.878-2.573.643-.672 1.767-1.49 2.54-1.908 2.025-1.096 3.975-1.97 6.078-2.912 3.772-1.69 2.85-1.816 6.132.36 1.75 1.159 3.377 2.622 5.103 3.796 1.597 1.088 3.079 2.982 4.502 4.398zM6.671 27.253h3.362c-.321 1.126-1.387 1.573-2.499 1.573-.837 0-1.543-.304-1.973-.636l-.814 1.48c.501.425 1.613.8 2.822.8 2.74 0 4.474-1.501 4.474-3.965 0-2.381-1.795-3.96-4.223-3.96-1.424 0-2.453.439-3.013.886l.729 1.312a3.266 3.266 0 011.818-.555c1.268 0 2.237.49 2.607 1.424H6.67v1.641zm5.348 4.398h1.795v-1.315h5.192v1.315H20.8v-2.954h-1.137v-6.023h-5.467l-.071 1.535c-.12 2.507-.874 4.093-1.208 4.488h-.898v2.954zm3.901-6.04l.13-1.294h1.7v4.38h-2.728c.288-.338.766-1.762.898-3.085zm5.788 4.725h5.085v-1.639h-3.17v-1.393h2.692v-1.638h-2.692v-1.349h3.05v-1.643h-4.965v7.662zm11.174 0h1.914v-7.662h-5.551l-.12 1.535c-.334 4.248-1.052 4.488-1.746 4.377l-.035 1.75c1.962.297 3.014-.533 3.516-4.575l.18-1.444h1.842v6.02zm6.15-3.668c.705 0 1.304.254 1.304.99 0 .777-.54 1.061-1.317 1.061-.18 0-.348-.022-.563-.043v-1.952c.239-.03.42-.056.576-.056zm-.576-3.994h-1.913v7.662c.489 0 1.388.026 2.249.026 2.333 0 3.576-1.109 3.576-2.748 0-1.565-.992-2.584-3.17-2.584-.18 0-.442.009-.742.044v-2.4zm5.06 7.64c.491.048 1.604.069 2.406.069 1.818 0 3.18-.757 3.18-2.365 0-.988-.586-1.542-1.196-1.753v-.022c.623-.37.958-.907.958-1.706 0-1.063-.813-1.905-2.811-1.905-.91 0-2.069.042-2.537.064v7.618zm2.656-3.073c.623 0 1.017.206 1.017.687 0 .516-.37.813-1.112.813-.359 0-.514-.034-.646-.064V27.24h.74zm-.143-2.968c.466 0 .922.233.922.693 0 .554-.395.744-.887.744h-.633v-1.393c.216-.022.358-.044.598-.044zm4.461 6.063h5.085v-1.639h-3.169v-1.393h2.69v-1.638h-2.69v-1.349h3.05v-1.643H50.49v7.662zm8.146 0l3.71-4.76v4.76h1.913v-7.662h-1.674l-3.709 4.764v-4.764h-1.913v7.662h1.673zm-.359-9.631c0 1.054.922 1.75 2.537 1.75 1.497 0 2.513-.687 2.488-1.75h-1.794c0 .473-.24.546-.694.546-.525 0-.742-.128-.742-.546h-1.795zm13.52 7.563a3.272 3.272 0 01-1.819.558c-1.507 0-2.536-.962-2.536-2.321 0-1.509 1.052-2.317 2.344-2.317.791 0 1.256.22 1.71.468l.85-1.311c-.501-.451-1.446-.8-2.56-.8-2.882 0-4.379 1.764-4.379 3.96 0 2.386 1.795 3.964 4.391 3.964 1.138 0 2.225-.374 2.727-.886l-.728-1.315z"/></symbol></svg>