<svg xmlns="http://www.w3.org/2000/svg" xmlns:xlink="http://www.w3.org/1999/xlink"><symbol id="arrow-down--big" viewBox="0 0 54 28"><path d="M53 1L27 27 1 1" stroke="#363636" stroke-width=".5"/></symbol><symbol id="arrow-left" viewBox="0 0 6 10"><path d="M5 9L1 5l4-4"/></symbol><symbol id="arrow-right" viewBox="0 0 6 10"><path d="M1 9l4-4-4-4"/></symbol><symbol id="arrow-up--big" viewBox="0 0 54 28"><path d="M53 27L27 1 1 27" stroke="#363636" stroke-width=".5"/></symbol><symbol id="call-text" viewBox="0 0 163 163"><path d="M161.665 89.047l-9.432-.583.115-1.86 7.653.473.206-3.328-7.653-.473.114-1.86L162.1 82l-.435 7.047zm-10 9.801c-.736-1.123-.969-2.355-.697-3.696.272-1.34.965-2.384 2.081-3.132 1.123-.736 2.359-.968 3.708-.694 1.35.273 2.394.967 3.132 2.08.746 1.125.983 2.358.711 3.698-.272 1.341-.97 2.384-2.094 3.13-1.116.747-2.348.984-3.698.71-1.35-.273-2.397-.972-3.143-2.096zm2.368-5.292c-.681.459-1.107 1.112-1.279 1.958-.172.847-.033 1.614.415 2.302.457.69 1.127 1.124 2.009 1.303.882.178 1.668.04 2.357-.418.69-.457 1.121-1.11 1.292-1.956.172-.847.029-1.615-.428-2.304-.457-.69-1.127-1.124-2.009-1.303-.882-.179-1.668-.04-2.357.418zm-1.192 13.716c-.74.701-1.591.888-2.555.563-.802-.27-1.348-.791-1.638-1.563-.291-.773-.275-1.636.047-2.591.56-1.664 1.639-2.539 3.236-2.628l.344 1.811c-.962-.02-1.601.439-1.917 1.377-.164.486-.187.892-.068 1.217.118.324.352.546.702.664s.67.083.961-.104c.288-.178.511-.502.669-.971l.375-1.113 1.574.531-.285.844c-.149.443-.172.82-.068 1.131.113.313.336.526.668.638.333.112.629.093.888-.056.269-.148.473-.43.614-.848.259-.768.064-1.431-.583-1.991l1.375-1.204c1.067 1.034 1.353 2.284.858 3.751-.299.887-.782 1.532-1.449 1.934-.668.401-1.394.47-2.178.206-.802-.271-1.325-.803-1.57-1.598zm-3.442 8.011c-.783.548-1.61.618-2.483.21-.725-.339-1.2-.874-1.425-1.605-.224-.731-.161-1.472.19-2.222l1.698-3.632 8.56 4.003-1.578 3.375c-.343.734-.859 1.243-1.548 1.527-.685.295-1.378.279-2.079-.048-.71-.332-1.154-.868-1.335-1.608zm3.384-.608l.79-1.688-1.884-.881-.789 1.688a.948.948 0 00-.034.774c.096.263.278.458.547.583.269.126.533.146.793.058a.959.959 0 00.577-.534zm-5.525-2.271c-.133.285-.15.565-.05.841.108.279.308.487.602.624.285.133.565.15.841.05.283-.096.491-.286.625-.572l.909-1.944-2.018-.944-.909 1.945zm-6.646 10.523c-.286-1.312-.061-2.545.673-3.7.735-1.154 1.757-1.88 3.066-2.177 1.312-.285 2.549-.058 3.711.681 1.162.739 1.888 1.761 2.178 3.065.292 1.317.072 2.553-.663 3.707-.734 1.154-1.76 1.878-3.077 2.171-1.309.297-2.545.076-3.707-.663-1.161-.739-1.889-1.767-2.181-3.084zm4.107-4.091c-.8.184-1.432.641-1.896 1.37-.464.729-.61 1.495-.438 2.297.18.808.649 1.453 1.409 1.936.759.484 1.542.635 2.35.456.808-.18 1.443-.634 1.907-1.363.464-.729.606-1.497.426-2.305-.179-.807-.648-1.453-1.408-1.936-.759-.483-1.543-.635-2.35-.455zm-2.848 15.64l-1.2 1.408-7.194-6.127 1.199-1.408 2.981 2.538 2.275-2.672-2.98-2.539 1.208-1.418 7.194 6.127-1.208 1.418-2.857-2.433-2.276 2.672 2.858 2.434zm-13.864.504l3.879 4.264-.883-6.989 1.048-.954 6.359 6.99-1.378 1.254-3.888-4.274.893 6.999-1.049.954-6.359-6.99 1.378-1.254zm-2.676 13.905l-1.032-1.452 2.079-1.478-4.442-6.25 1.518-1.08 4.443 6.25 2.068-1.47 1.033 1.452-5.667 4.028zm-6.47.213c-.795.442-1.612.546-2.452.314-.84-.233-1.477-.739-1.91-1.517-.434-.779-.528-1.587-.283-2.423.245-.837.765-1.477 1.559-1.919l3.079-1.713 4.595 8.258-1.628.906-1.509-2.714-1.451.808zm-2.239-4.023a1.317 1.317 0 00-.664.833c-.097.363-.045.725.157 1.087.197.354.475.586.834.695.364.117.719.079 1.065-.114l1.451-.807-1.392-2.501-1.451.807zm-14.299 4.28l1.091 1.423 3.56-1.23-.02-1.793 1.902-.657-.041 10.012-2.181.754-6.225-7.848 1.914-.661zm4.658 2.033l-2.45.846 2.486 3.226-.036-4.072zm-14.556 2.129l-.993.201-.713-3.52 1.826-.37.36 1.773 5.12-1.037-.36-1.773 1.826-.37.714 3.519-.9.183c-.367.818-.41 1.915-.132 3.291l.887 4.379-6.112 1.239-1.523-7.515zm4.922-.998l-3.096.628 1.177 5.808 2.46-.498-.546-2.7c-.272-1.34-.27-2.42.005-3.238zm-15.992 9.57l-.51-9.436 1.847-.1.33 6.12 2.42-4.525.215-.012 2.892 4.224-.33-6.106 1.86-.101.51 9.436-1.914.104-2.951-4.315-2.455 4.607-1.914.104zm-8.307-9.98l-.51 5.742 4.544-5.383 1.412.126-.837 9.413-1.855-.165.511-5.756-4.546 5.397-1.411-.126.837-9.413 1.855.165zm-11.176 7.599l-1.804-.409 2.088-9.216 1.804.408-.865 3.819 3.423.775.865-3.818 1.817.412-2.088 9.216-1.817-.412.83-3.66-3.424-.775-.83 3.66zm-6.905-12.061l-1.984 5.412 5.787-4.018 1.33.488-3.253 8.872-1.749-.641 1.99-5.425-5.792 4.031-1.331-.488 3.253-8.873 1.75.642zm-7.447-3.661c1.254.668 2.069 1.637 2.443 2.907.374 1.27.235 2.517-.416 3.74-.656 1.231-1.613 2.042-2.87 2.433-1.263.398-2.522.263-3.777-.405a4.737 4.737 0 01-1.8-1.647 4.336 4.336 0 01-.74-2.229l1.856-.067c.008.483.147.929.419 1.339a2.92 2.92 0 001.115 1.007c.81.431 1.601.526 2.372.284.764-.246 1.361-.774 1.792-1.584.428-.803.53-1.589.309-2.36-.23-.775-.75-1.378-1.56-1.809a3.016 3.016 0 00-1.452-.376 2.455 2.455 0 00-1.345.4l-.98-1.577a4.463 4.463 0 012.257-.648 4.84 4.84 0 012.376.592zm-15.753 1.354l1.027-1.457 2.085 1.471 4.42-6.266 1.522 1.073-4.42 6.267 2.075 1.463-1.027 1.456-5.682-4.007zm-4.439-3.752c-.679-.604-1.047-1.342-1.104-2.212-.057-.87.21-1.638.803-2.303.592-.666 1.324-1.021 2.195-1.065.87-.044 1.645.236 2.324.84l1.24 1.104 2.065-2.319 1.392 1.238-6.283 7.059-2.632-2.342zm3.06-3.439a1.315 1.315 0 00-1.005-.353c-.38.035-.705.204-.974.507-.276.309-.406.651-.39 1.026.015.375.171.695.467.958l1.24 1.104 1.903-2.138-1.24-1.104zm-4.35-11.394l-.9 1.551 2.494 2.823 1.65-.701 1.332 1.507-9.271 3.778-1.529-1.73 4.883-8.745 1.341 1.517zm-.104 5.082l-1.716-1.943-2.035 3.528 3.751-1.585zm-13.369-7.515l1.468-1.011 1.447 2.101 6.314-4.351 1.058 1.534-6.315 4.351 1.44 2.09-1.467 1.011-3.945-5.725zm2.404-12.679c1.28.407 2.236 1.217 2.87 2.429.634 1.212.754 2.46.358 3.743-.407 1.28-1.22 2.239-2.441 2.877-1.22.638-2.468.757-3.743.358-1.288-.403-2.249-1.211-2.883-2.423-.634-1.212-.75-2.462-.346-3.75.395-1.283 1.203-2.244 2.423-2.882 1.22-.638 2.474-.756 3.762-.352zm1.497 5.6c.24-.785.159-1.561-.242-2.326-.4-.766-.991-1.274-1.773-1.526-.79-.247-1.583-.162-2.38.255-.798.417-1.32 1.02-1.567 1.81-.248.789-.171 1.567.23 2.333.4.765.995 1.272 1.784 1.519.79.247 1.583.162 2.38-.255.798-.417 1.32-1.02 1.568-1.81zm-11.51-8.541c-.31-.855-.283-1.678.08-2.471.365-.792.965-1.34 1.803-1.643.838-.304 1.65-.268 2.437.107.787.375 1.335.99 1.645 1.845l.566 1.561 2.919-1.058.635 1.752-8.885 3.22-1.2-3.313zm4.328-1.569a1.312 1.312 0 00-.717-.788 1.443 1.443 0 00-1.098-.019c-.39.141-.666.381-.831.718-.165.337-.18.692-.045 1.065l.566 1.561 2.69-.976-.565-1.561zm-7.416-9.13l-.425-1.814 7.31 1.197c1.961.317 3.09 1.327 3.389 3.032l-1.696.398c-.071-.501-.23-.88-.475-1.136-.255-.264-.609-.45-1.059-.556l-5.72 4.517-.426-1.813 3.97-3.053-4.868-.772zM.381 73.666l9.436.51-.1 1.86-7.657-.414-.18 3.33 7.657.414-.1 1.86L0 80.716l.381-7.05zm9.849-9.571c.75 1.115.996 2.344.74 3.687-.257 1.344-.938 2.396-2.045 3.156-1.114.75-2.348.995-3.7.737-1.353-.258-2.405-.94-3.156-2.045-.758-1.115-1.01-2.345-.753-3.69.256-1.343.942-2.394 2.058-3.152 1.107-.76 2.337-1.011 3.69-.753 1.352.258 2.408.945 3.166 2.06zm-2.306 5.319c.675-.467 1.094-1.124 1.256-1.973.162-.849.014-1.615-.442-2.297-.465-.684-1.14-1.11-2.023-1.28-.885-.168-1.669-.02-2.353.445-.684.465-1.107 1.122-1.27 1.97-.161.85-.01 1.616.456 2.3.465.684 1.14 1.11 2.023 1.28.884.168 1.668.02 2.353-.445zm1.02-13.712c.731-.709 1.58-.906 2.548-.593.805.262 1.357.777 1.656 1.546.3.769.293 1.632-.018 2.591-.542 1.67-1.61 2.557-3.206 2.664l-.365-1.807c.962.01 1.596-.457 1.902-1.399.158-.487.176-.893.054-1.217-.122-.323-.359-.542-.71-.656-.35-.114-.67-.076-.96.114-.285.182-.505.508-.657.98l-.363 1.116-1.58-.512.276-.848c.144-.445.163-.822.055-1.132a1.012 1.012 0 00-.675-.63c-.334-.109-.63-.086-.888.067-.266.15-.468.434-.604.854-.25.77-.048 1.432.605 1.984l-1.36 1.22c-1.079-1.022-1.379-2.27-.901-3.742.289-.89.765-1.54 1.427-1.95.663-.409 1.388-.486 2.176-.23.805.261 1.334.788 1.588 1.58zm3.343-8.059c.776-.556 1.603-.636 2.48-.237.73.33 1.21.86 1.443 1.589.233.728.178 1.47-.165 2.223l-1.657 3.651-8.605-3.907 1.54-3.393c.336-.737.846-1.252 1.532-1.543.681-.304 1.374-.295 2.08.025.712.323 1.163.854 1.352 1.592zm-3.378.646l-.77 1.697 1.893.86.77-1.697a.947.947 0 00.026-.774 1.007 1.007 0 00-.553-.578 1.033 1.033 0 00-.794-.049.963.963 0 00-.572.541zm5.55 2.21a1.06 1.06 0 00.042-.842 1.125 1.125 0 00-.61-.618 1.062 1.062 0 00-.84-.04c-.283.098-.49.291-.62.578l-.887 1.955 2.028.92.888-1.954zm6.663-10.813c.295 1.31.08 2.544-.646 3.704-.726 1.16-1.743 1.893-3.05 2.2-1.31.295-2.549.077-3.716-.654-1.167-.73-1.9-1.747-2.2-3.05-.302-1.314-.09-2.551.635-3.71.726-1.16 1.746-1.891 3.061-2.194 1.307-.307 2.545-.095 3.712.635 1.167.731 1.902 1.754 2.204 3.069zm-4.077 4.12c.799-.19 1.427-.65 1.886-1.383.458-.732.598-1.5.42-2.3-.185-.807-.659-1.449-1.422-1.926-.763-.478-1.547-.624-2.353-.439-.807.186-1.44.645-1.898 1.377-.458.732-.595 1.502-.409 2.308.185.806.66 1.448 1.422 1.926.763.477 1.548.623 2.354.438zm2.524-15.442l1.183-1.42 7.262 6.048-1.184 1.42-3.008-2.505-2.247 2.697 3.008 2.506-1.192 1.431-7.261-6.048 1.192-1.432 2.884 2.402 2.246-2.697-2.883-2.401zm13.951-.758l-3.91-4.236.934 6.983-1.042.962-6.41-6.944 1.37-1.264 3.919 4.246-.944-6.993 1.042-.961 6.41 6.944-1.37 1.263zm2.419-13.863l1.048 1.442-2.063 1.5 4.51 6.201-1.506 1.096-4.51-6.2-2.053 1.492-1.048-1.44 5.622-4.09zm6.343-.227c.79-.45 1.605-.564 2.448-.34.843.223 1.485.722 1.927 1.495.442.774.545 1.58.309 2.42-.236.84-.748 1.485-1.538 1.935l-3.06 1.747-4.686-8.206 1.618-.924 1.54 2.697 1.442-.824zm2.283 3.998c.343-.196.562-.477.654-.84.093-.364.037-.726-.168-1.086-.201-.351-.482-.58-.842-.685a1.293 1.293 0 00-1.064.126l-1.442.823 1.42 2.485 1.442-.823zm14.392-4.527l-1.102-1.415-3.55 1.257.033 1.793-1.897.671-.035-10.012 2.177-.77 6.283 7.8-1.909.676zm-4.674-1.998l2.444-.865-2.51-3.207.066 4.072zm14.65-2.307l.991-.209.74 3.514-1.823.384-.373-1.77-5.112 1.077.373 1.77-1.823.384-.74-3.514.898-.19c.36-.82.396-1.918.107-3.292l-.92-4.372 6.102-1.286 1.58 7.504zM64.02 9.717l3.091-.651-1.22-5.8-2.458.518L64 6.479c.282 1.339.289 2.418.02 3.238zM79.64 0l.62 9.43-1.845.12-.402-6.115-2.366 4.552-.216.015-2.94-4.19.4 6.102-1.859.122-.619-9.43L72.326.48l3 4.281L77.729.126 79.64 0zm8.548 9.875l.466-5.746-4.503 5.418-1.413-.115.765-9.419 1.857.151-.468 5.76L89.397.491l1.412.114-.764 9.42-1.857-.151zm11.045-7.748l1.808.388-1.983 9.24-1.808-.389.821-3.828-3.432-.736-.821 3.828-1.822-.391L93.98.999l1.822.391-.788 3.67 3.432.736.788-3.67zm7.162 12.014l1.943-5.427-5.756 4.062-1.335-.478 3.187-8.897 1.754.628-1.949 5.44 5.762-4.074 1.334.478-3.187 8.896-1.753-.628zm7.498 3.576c-1.26-.659-2.082-1.622-2.466-2.889-.383-1.267-.253-2.514.389-3.743.646-1.236 1.597-2.054 2.853-2.453 1.259-.408 2.519-.283 3.779.377a4.74 4.74 0 011.812 1.633c.462.689.714 1.43.756 2.224l-1.855.08a2.451 2.451 0 00-.429-1.336 2.917 2.917 0 00-1.123-.998c-.813-.426-1.605-.515-2.374-.267-.761.252-1.355.784-1.78 1.598-.422.805-.518 1.592-.291 2.361.235.773.76 1.373 1.573 1.798.479.25.964.372 1.455.365.503-.01.951-.148 1.342-.41l.992 1.57a4.463 4.463 0 01-2.253.665 4.846 4.846 0 01-2.38-.575zm15.433-1.735l-1.011 1.467-2.101-1.448-4.351 6.315-1.534-1.057 4.351-6.315-2.09-1.44 1.011-1.467 5.725 3.945zm4.738 3.873c.685.596 1.061 1.33 1.128 2.199.066.87-.193 1.64-.778 2.312-.585.672-1.313 1.035-2.183 1.089-.87.054-1.648-.218-2.334-.815l-1.252-1.09-2.039 2.342-1.405-1.224 6.205-7.127 2.658 2.314zm-3.023 3.472c.299.26.635.373 1.009.341.38-.039.703-.211.969-.517.272-.312.398-.655.378-1.03a1.31 1.31 0 00-.477-.953l-1.252-1.09-1.88 2.158 1.253 1.09zm4.54 11.417l.888-1.558-2.515-2.804-1.645.713-1.342-1.497 9.244-3.846 1.541 1.719-4.82 8.78-1.351-1.507zm.067-5.082l1.73 1.93 2.01-3.543-3.74 1.613zm13.367 7.271l-1.456 1.028-1.471-2.085-6.266 4.42-1.074-1.523 6.266-4.42-1.462-2.074 1.456-1.027 4.007 5.681zm-2.169 12.887c-1.283-.397-2.245-1.2-2.888-2.407-.643-1.208-.772-2.455-.386-3.741.398-1.282 1.204-2.247 2.42-2.895 1.215-.647 2.462-.776 3.74-.386 1.291.394 2.257 1.195 2.9 2.402.643 1.208.768 2.457.374 3.747-.385 1.286-1.186 2.253-2.401 2.9-1.216.647-2.469.774-3.759.38zm-1.539-5.589c-.233.787-.147 1.562.259 2.325.406.763 1.001 1.267 1.784 1.512.792.242 1.585.15 2.379-.272.794-.423 1.312-1.03 1.554-1.822.241-.791.159-1.568-.247-2.33-.407-.763-1.005-1.265-1.797-1.507-.791-.241-1.584-.15-2.378.273-.795.423-1.312 1.03-1.554 1.821zm11.509 8.234c.32.852.302 1.675-.053 2.472-.355.796-.949 1.35-1.783 1.664-.835.313-1.647.286-2.438-.08-.792-.367-1.347-.975-1.666-1.827l-.583-1.554-2.908 1.09-.654-1.744 8.848-3.32 1.237 3.3zm-4.31 1.618c.139.37.381.63.726.78.353.147.719.148 1.098.006.388-.145.662-.388.823-.727.161-.339.172-.694.033-1.065l-.583-1.554-2.68 1.005.583 1.555zm7.514 9.002l.447 1.81-7.325-1.114c-1.963-.294-3.104-1.292-3.422-2.994l1.691-.417c.077.5.24.878.488 1.131.259.261.614.442 1.065.544l5.669-4.583.447 1.81-3.936 3.097 4.876.716z" fill="#363636"/></symbol><symbol id="footer-bg" viewBox="0 0 1440 691"><path d="M1521.44 106.793v.001c1.86 2.183 3.45 4.585 4.96 7.032.56.901 1.11 1.805 1.65 2.706.94 1.558 1.88 3.108 2.86 4.623l.22.341-.34.217c-.46.287-.92.581-1.39.875v.003c-.47.294-.93.588-1.39.876l-.28.177-.23-.246c-.41-.452-.59-.918-.62-1.385-.04-.445.05-.877.13-1.247v-.005c.16-.771.28-1.349-.25-1.984v-.002c-36.98-44.745-78.33-83.862-124.35-116.724l-1.01-.725h7.67l.11.078c41.06 30.259 78.39 65.651 112.26 105.389zm4 300.486h0c2.42 49.864-3.36 98.882-11.28 147.876-7.29 45.296-15.26 90.418-25.78 134.966l-.07.308h-6.3l.12-.494a1828.033 1828.033 0 0034.49-184.72c13.05-97.775 2.78-192.294-36.26-283.043-35.89-83.394-92.69-150.657-162.43-207.78h0c-5.13-4.212-10.32-8.32-15.54-12.377l-.92-.716h7.1l.11.086c26.42 20.825 51.53 43.433 74.88 68.453 88.77 95.082 135.56 207.672 141.88 337.441zm.94-218.018v.001c1.06 2.489 1.82 5.098 2.48 7.726.26.996.5 1.992.74 2.985.39 1.638.78 3.27 1.23 4.89l.12.415-.43.084c-.39.079-.78.151-1.16.223l-.01.001c-.38.072-.77.143-1.16.221l-.3.061-.14-.279c-2.64-5.49-4.42-11.019-6.18-16.501-.09-.287-.19-.573-.28-.859-1.86-5.771-3.75-11.488-6.67-17.11v-.001c-32.23-62.273-83.87-105.505-141.09-143.48h0c-6.43-4.273-13.73-8.535-21.05-12.797l-.37-.212c-7.19-4.189-14.39-8.379-20.74-12.57l-1.12-.733h9.63l.1.062c16.6 10.525 33.18 21.104 49.52 32.025l-.23.332.23-.332c59.32 39.667 108.29 88.968 136.88 155.848z" stroke="#896441" stroke-width=".8"/><path d="M1413.81 690.192l-.1.236h-6.33l.22-.547c.56-1.417 1.57-2.82 2.55-4.163l.13-.182c.95-1.299 1.87-2.543 2.41-3.761 33.51-75.945 51.15-160.506 51.23-267.618v-.006c1.65-108.785-47.35-220.786-146.73-309.89-40.06-35.912-80.93-68.973-123.35-102.22l-.91-.715h8.08l.11.081c51.41 39.165 102.78 78.455 147.38 125.792l-.29.275.29-.275c64.03 67.97 104.43 147.296 116.79 240.277 14.98 112.768-5.3 219.767-51.48 322.716z" stroke="#896441" stroke-width=".8"/><path d="M1389.05 518.883c.1-13.576.2-27.176 1.19-40.742-.63-11.012-1.13-22.026-1.63-33.029-2.32-51.47-4.63-102.677-20.28-152.079-33.92-107.143-99.77-189.136-199.42-242.651-16.7-8.965-32.66-20.077-43.12-35.578a152.298 152.298 0 00-9.76-12.873l-.55-.658h8.06l.12.164a99.67 99.67 0 012.69 3.836c12.85 19.09 30.43 32.012 50.68 43.466 98.29 55.528 164.04 138.004 196.5 245.943 17.42 57.927 19.61 117.946 21.8 177.912.11 2.918.21 5.837.32 8.755v.038c-.47 8.36-.86 16.732-1.25 25.106-.85 18.488-1.71 36.986-3.5 55.39l-.39-.038.39.039c-4.64 47.46-17.14 90.293-37.75 128.308l-.11.209h-7.11l.33-.594c19.41-34.974 35.1-74.117 40.36-117.303 1.9-15.619 2.23-31.334 2.38-47.091.02-2.176.03-4.353.05-6.53z" stroke="#896441" stroke-width=".8"/><path d="M1257.63 674.014l-.35-.192.35.192a195.487 195.487 0 01-9.93 16.239l-.12.175h-7.98l.37-.608c34.48-56.553 67.78-113.817 84.2-178.629 25.9-102.277 6.45-196.966-49.66-284.721-43.91-68.637-106.26-121.146-169.8-170.837-22.7-17.752-45.28-35.66-67.83-53.647l-.9-.713h8.84l.1.084c5.93 4.6 11.85 9.194 17.78 13.789 26.93 20.873 53.86 41.75 80.32 63.189l-.25.31.25-.31c63.9 51.803 121.06 109.811 158.09 184.605 38.06 76.863 50.5 157.412 31.02 241.658-13.36 57.832-41.55 109.27-69.74 160.711-1.59 2.901-3.17 5.802-4.76 8.705z" stroke="#896441" stroke-width=".8"/><path d="M1113.1 114.903h0c19.2 14.711 36.72 31.76 54.1 48.676 1.3 1.258 2.59 2.514 3.88 3.769 117.87 114.545 145.43 326.789 31.89 471.69-14.43 18.416-29.68 35.766-46.48 51.258l-.11.105h-9.61l.8-.7c23.99-21.133 46.36-46.112 65.25-73.235l.33.228-.33-.228c94.54-135.741 72.88-340.803-53.75-455.472l.27-.297-.27.297-5.88-5.333c-18.93-17.174-37.87-34.36-57.92-50.127-38.46-30.257-74.69-65.519-104.737-103.613l-.511-.648h8.355l.12.145c34.363 41.64 71.313 80.364 114.603 113.485zM-4.37 240.276v.001c4.537 19.506 9.174 39.098 15.513 58.033 19.45 58.055 7.165 110.416-26.796 159.275l-.329-.228.329.228c-1.98 2.845-3.896 5.758-5.817 8.676-3.727 5.664-7.47 11.351-11.716 16.612l-.311-.251.31.251C-73.515 532.83-77.631 588.34-57.32 646.777c5.239 15.066 11.185 29.398 17.838 43.05l.28.575H-46.1l-.109-.228c-7.192-15.149-13.518-31.189-18.95-48.039-18.602-57.582-11.535-112.181 27.362-161.359h0c10.298-13.003 20.672-27.363 29.393-41.511C16.21 399.333 21.65 357.012 7.994 310.934c-5.812-19.59-10.151-39.345-14.514-59.207a3206.262 3206.262 0 00-3.611-16.299c-11.068-49.099-18.666-98.635-5.976-148.529h0C-8.125 55.571 4.452 27.177 20.94 1.432l.118-.185h8.045l-.412.622C12.718 25.949.071 52.537-8.307 82.159h0c-14.997 52.97-8.277 105.697 3.937 158.117z" stroke="#896441" stroke-width=".8"/><path d="M1058.73 690.401l.08-.046c11.08-5.843 21.95-12.159 32.52-19.052l-.21-.335.21.335c71.6-46.706 105.95-113.932 110.1-197.957 0 0 0 0 0 0l-.4-.02-142.3 217.075zm0 0h-.1m.1 0h-.1m0 0h-12.25l-.17-.758c12.41-6.148 24.59-12.844 36.49-20.245 69.16-43.103 105.23-105.323 111.83-186.286 6.07-74.494-14.38-142.388-44.36-208.545-31.71-69.959-74.96-129.328-138.5-174.415l.23-.326-.23.326c-35.985-25.545-63.524-61.491-86.426-98.268l-.381-.611h7.367l.118.19c22.334 36.147 46.816 70.595 82.062 95.392l-.23.327 44.45 593.219z" stroke="#896441" stroke-width=".8"/><path d="M1106.27 490.591l.39.042-.39-.042c7.25-69.374-.74-138.124-20.89-205.234-16.78-55.923-47.6-100.66-89.694-140.05h0a870.618 870.618 0 01-7.23-6.88c-5.623-5.392-11.238-10.776-17.166-15.779h-.001c-41.354-34.978-77.98-76.632-108.99-120.719l-.443-.63h8.45l.12.169.002.003a49.84 49.84 0 011.316 1.919c23.436 34.446 47.981 67.372 79.379 94.905l-.263.3.263-.3c7.43 6.518 14.651 13.288 21.869 20.055 4.324 4.053 8.646 8.105 13.011 12.101 47.987 43.902 88.367 92.921 106.857 156.957 13.76 47.617 18.74 96.327 18.58 145.679 0 2.454 0 4.909.01 7.366 0 7.371.01 14.751-.03 22.116v.001c-.03 2.623-.19 5.246-.35 7.857-.03.372-.05.745-.07 1.117-4.55 82.733-42.06 145.149-115.983 183.861l-.185-.354.185.354c-23.92 12.518-48.341 24.41-73.237 34.992l-.075.032h-14.87l-.154-.77c32.317-13.425 64.005-28.656 94.589-45.51 60.08-33.114 97.85-85.158 105-153.558zM30.126 681.546l-.248.313.248-.313c3.41 2.697 6.82 5.421 10.204 8.171l.875.711H31.107l-.107-.081c-.759-.575-1.522-1.153-2.285-1.758-25.158-19.372-41.9-43.568-47.268-75.284l.395-.067-.395.067c-7.226-42.818-.05-83.638 18.125-122.424 7.164-15.312 15.302-30.171 23.438-45.027 4.79-8.748 9.58-17.494 14.17-26.331 6.58-12.668 16.11-32.809 16.658-53.812.87-33.3-9.034-68.783-12.168-80.01-.35-1.257-.617-2.21-.773-2.822l.388-.099-.388.099C13.888 177.208 30.579 82.318 101.212 1.409l.12-.136h5.589l-.6.667C33.607 82.911 15.219 178.12 44.607 285.87l-.386.105.386-.105c.597 2.192 1.2 4.388 1.804 6.588 5.808 21.164 11.708 42.66 13.47 64.331l-.4.032.4-.032c1.213 14.989-2.74 29.039-8.623 42.595-3.742 8.623-8.283 17.079-12.778 25.452-2.561 4.769-5.107 9.512-7.484 14.243-15.441 30.757-29.8 61.579-40.857 93.992-10.639 31.242-9.101 64.478 2.045 96.741 7.339 21.175 20.476 37.924 37.942 51.735z" stroke="#896441" stroke-width=".8"/><path d="M86.05 249.452l.387-.105-.386.105c-11.912-43.584-3.65-83.916 21.186-121.44h0c1.897-2.862 3.753-5.758 5.611-8.657 3.907-6.097 7.821-12.204 12.127-18.013h0c27.204-36.645 56.3-69.68 89.938-99.966l.115-.103h8.796l-.802.701c-39.805 34.8-75.05 74.177-105.499 118.291-28.992 42.011-38.295 86.238-23.702 135.644 5.515 18.639 8.919 37.939 12.303 57.132l.529 2.998c4.369 24.726.445 48.581-10.073 71.371-3.74 8.102-7.55 16.172-11.361 24.242-10.039 21.258-20.074 42.507-28.775 64.284-13.405 33.54-18.957 68.849-5.27 103.381l-.371.148.371-.147c7.048 17.814 16.697 36.648 30.395 49.283 22.522 20.786 45.38 41.438 68.971 61.093l.849.707h-9.93l-.112-.094c-10.236-8.649-19.5-17.44-28.727-26.256l-1.668-1.595c-8.671-8.289-17.358-16.594-26.849-24.829-9.79-8.492-21.13-19.914-27.85-31.254-25.157-42.46-19.453-87.112-2.652-131.173 11.359-29.833 24.08-58.512 37.718-87.447 12.462-26.452 13.669-53.638 7.182-82.08-1.596-6.995-3.03-14.017-4.463-21.034-2.409-11.8-4.815-23.583-7.987-35.187zm843.489 371.54l-.154-.37.154.37c-36.888 15.335-73.704 30.845-110.53 46.359a52514.108 52514.108 0 01-54.765 23.047l-.074.031h-6.19l-.155-.769c61.435-25.814 125.67-53.171 186.181-81.182 33.244-15.389 56.384-36.856 71.904-63.309 15.52-26.46 23.43-57.93 26.17-93.341 5.76-74.562-9.35-140.856-55.301-201.113-32.435-42.527-64.529-86.278-96.531-129.902-20.876-28.458-41.713-56.863-62.579-84.84h0c-8.673-11.641-17.844-22.97-27.357-34.013l-.57-.66h8.558l.12.142a677.806 677.806 0 0124.059 30.336h0c30.905 41.423 60.995 83.474 91.084 125.525 23.593 32.973 47.186 65.945 71.172 98.614 38.815 52.831 55.985 111.564 54.775 176.549-.81 43.64-9.76 82.024-29.04 113.878-19.27 31.859-48.869 57.156-90.931 74.648z" stroke="#896441" stroke-width=".8"/><path d="M139.295 376.257l-.39-.088.39.088-1.573 6.974c-5.76 25.563-11.526 51.152-18.307 76.455-15.983 59.63-.924 112.31 36.296 159.274 23.668 29.855 51.946 52.861 83.449 70.694l1.322.748h-11.777l-.095-.057c-23.48-14.134-43.541-31.256-63.148-52.301-46.242-49.607-69.174-107.311-52.931-175.544l.389.093-.389-.093c2.377-9.979 5.534-19.967 8.73-29.931l.6-1.871c2.998-9.342 5.989-18.661 8.37-27.95 15.513-60.492 21.403-121.09 8.989-183.483v-.001c-2.953-14.9-.923-32.968 5.137-47.307l.369.156-.369-.156c7.609-17.989 21.903-35.202 34.516-50.392l1.284-1.546h0c41.804-50.31 89.594-88.41 146.484-118.725l.089-.047h11.637l.186.755a655.366 655.366 0 00-16.824 9.131C268.922 40.885 220.667 76.646 181.743 123.62c-9.998 12.073-18.717 25.406-26.682 38.957-12.271 20.908-15.64 43.216-10.416 67.496 10.558 49.039 5.538 97.826-5.35 146.185zm687.852 197.59l-.233-.325.233.325c-67.682 48.537-140.842 85.729-217.192 116.552l-.072.029h-13.739l-.145-.772c76.123-29.707 150.562-66.714 218.706-113.375l.226.331-.226-.331c42.514-29.102 83.029-62.396 111.988-105.716l.332.222-.332-.222c16.871-25.23 25.788-52.49 26.573-82.939.024-.949.05-1.902.076-2.857.421-15.414.862-31.573-4.586-45.712C896.576 203.871 812.479 89.315 693.95 3.883l-.001-.001a158.356 158.356 0 00-2.59-1.828l-1.046-.728h11.421l.105.076.005.003c1.807 1.308 3.618 2.618 5.429 3.98h0C819.486 89.95 897.01 200.707 949.264 329.967c18.199 45.008 11.799 87.969-11.744 129.316-27.074 47.591-66.668 83.211-110.373 114.565z" stroke="#896441" stroke-width=".8"/><path d="M696.413 63.068l.304-.26c-34.47-40.293-78.214-59.943-123.611-57.083-83.656 1.808-151.462 15.352-215.601 55.722-79.127 49.806-126.899 123.123-153.719 210.796-9.075 29.672-17.494 60.6-24.497 90.928-1.454 6.286-3.131 12.549-4.809 18.818-3.179 11.873-6.362 23.764-8.046 35.857-15.365 110.696 45.494 213.426 150.266 252.607 15.492 5.794 42.704 13.182 57.83 17.135 7.481 1.946 15.177 2.868 22.903 2.552 32.035-1.337 63.623-8.128 93.451-19.978 6.525-2.591 13.045-5.048 19.536-7.139 5.365-1.728 10.742-3.437 16.121-5.147 25.157-7.995 50.364-16.006 74.661-26.151 3.88-1.618 7.787-3.211 11.699-4.806 22.886-9.329 45.953-18.733 65.012-33.84 11.299-8.944 23.217-15.738 35.294-22.235 2.18-1.173 4.366-2.337 6.555-3.502 9.926-5.283 19.905-10.594 29.652-16.943 71.281-46.4 113.63-110.025 118.83-196.46 0 0 0 0 0 0l-.399-.024L696.413 63.068zm0 0l.304-.26c17.169 20.079 31.393 41.542 45.111 64.039l-.341.208-45.074-63.987zM434.245 678.597l.117.383-.117-.383c15.689-4.765 31.328-8.793 46.913-12.807 3.049-.785 6.096-1.57 9.14-2.36 18.613-4.826 37.151-9.837 55.633-16.272 8.961-3.118 17.956-6.029 26.928-8.933 22.095-7.15 44.045-14.253 64.987-24.299 13.518-6.496 25.575-16 37.681-25.544 3.465-2.732 6.935-5.467 10.444-8.135a136.062 136.062 0 0122.379-13.838c61.427-30.34 110.457-73.06 138.492-137.462 34.726-79.745 17.254-158.188-45.794-217.795l.275-.291-.275.29c-15.938-15.07-29.052-33.234-42.087-51.289-3.998-5.539-7.989-11.067-12.052-16.492-7.399-9.881-14.419-20.069-21.432-30.247a4135.074 4135.074 0 00-5.489-7.95c-8.872-12.801-17.89-25.46-27.815-37.372h-.001C656.875 25.4 611.009 5.437 561.887 10.266l-.011.001h-.012c-85.088 3.612-158.579 22.37-222.92 69.304-70.29 51.252-112.358 121.857-135.465 203.946-13.135 46.673-24.719 94.199-31.507 142.085-12.718 89.601 33.89 177.364 112.527 222.635 36.563 21.052 76.716 34.662 117.006 34.453 10.525-.052 22.464-.968 32.74-4.093z" stroke="#896441" stroke-width=".8"/><path d="M248.692 296.393l-.004-.019-.001-.02c-1.979-21.649 5.702-40.271 20.222-55.243 14.19-14.64 29.237-29.089 46-40.606h0c64.814-44.462 136.966-72.779 212.136-94.699 35.977-10.492 68.755-10.266 98.794-1.035 30.035 9.229 57.308 27.455 82.292 52.925l-.286.281.286-.28c54.577 55.648 85.864 123.56 99.721 199.918 6.971 38.402-3.084 71.601-30.053 99.107l-.285-.28.285.28c-14.9 15.192-30.704 29.95-47.984 42.327-70.554 50.563-149.469 84.326-231.721 110.305l-1.962.62c-24.862 7.854-51.044 16.126-76.614 15.998-111.216-.525-194.595-100.525-177.489-210.199.698-4.476 1.421-8.947 2.143-13.414 5.689-35.182 11.346-70.173 4.52-105.966zm465.375 205.773l.228.328-.228-.328c20.193-14.017 39.055-30.443 56.691-47.634 28.139-27.444 38.092-60.818 30.277-100.224-16.007-80.672-51.237-150.624-112.965-205.799-44.744-39.973-96.628-54.278-155.537-38.137l-.106-.385.106.385c-80.073 21.932-155.83 53.306-223.483 102.202-7.219 5.224-13.997 11.129-20.71 17.072l-.265-.3.265.3c-23.254 20.555-37.936 44.617-32.175 77.232v.001c.085.488.176 1.022.273 1.591.326 1.908.718 4.205 1.142 6.44v.003c1.371 7.501 1.609 15.161.659 22.716-.791 6.258-1.597 12.513-2.403 18.768-2.959 22.958-5.917 45.91-8.162 68.928-12.689 130.119 100.039 205.318 188.338 193.253 32.482-4.439 64.257-15.961 95.645-27.343 4.844-1.756 9.68-3.51 14.507-5.233 59.235-21.146 116.127-47.862 167.903-83.836z" stroke="#896441" stroke-width=".8"/><path d="M563.861 167.286h-.014c-46.597-.84-88.554 11.437-127.039 38.217-16.165 11.226-34.12 20.002-52.002 28.742-2.852 1.395-5.702 2.788-8.543 4.19l.177.359-.177-.359c-34.237 16.909-57.33 43.933-69.32 79.113-17.503 51.277-26.404 104.429-21.731 158.717 4.977 58.185 63.022 100.621 120.587 90.239 83.921-15.109 166.373-35.433 243.798-72.266 0 0 0 0 0 0l-.172-.361-85.564-326.591zm0 0l.014.001m-.014-.001l.014.001m0 0c5.179.45 10.388.779 15.602 1.109m-15.602-1.109l15.602 1.109m0 0c11.455.725 22.933 1.452 34.174 3.451m-34.174-3.451l34.174 3.451m0 0c20.604 3.656 36.381 9.046 47.557 18.952m-47.557-18.952l47.557 18.952m0 0c11.19 9.918 17.714 24.315 19.923 45.859l-19.923-45.859zm-19.004 300.097l.168.363-.168-.363c19.641-9.074 38.604-20.293 56.312-32.743l.23.327-.23-.327c22.27-15.652 36.25-32.333 42.884-51.616 6.635-19.285 5.942-41.229-1.243-67.442-7.211-26.27-21.758-46.195-44.235-61.801-4.059-2.817-7.383-6.858-10.274-11.316-2.68-4.133-5.002-8.648-7.194-12.909l-.515-1.002h-.001c-1.524-2.963-2.305-6.318-2.819-9.758-.257-1.721-.448-3.47-.63-5.206l-.067-.648c-.159-1.518-.316-3.022-.51-4.495-2.376-17.999-8.919-29.753-18.431-37.704-9.525-7.963-22.07-12.149-36.521-14.92-12.342-2.356-24.908-3.536-37.492-4.717-5.703-.535-11.409-1.07-17.1-1.716-45.043-.048-85.807 11.477-123.092 37.289-18.487 12.822-38.832 23.332-59.293 32.787-40.836 18.873-65.171 51.78-74.481 93.505-9.2 41.352-16.038 84.051-16.772 126.296-.575 33.299 13.249 60.479 35.428 77.77 22.182 17.294 52.748 24.716 85.683 18.439 79.124-15.078 156.989-34.183 230.363-68.093z" stroke="#896441" stroke-width=".8"/><path d="M408.353 475.811c29.806 13.039 60.478 18.36 93.366 11.443 45.082-9.48 88.916-19.389 126.358-47.448 36.381-27.27 51.625-65.076 41.489-109.473h-.001c-1.556-6.866-5.665-14.377-10.013-19.654-12.504-15.166-19.158-32.612-25.79-50.777h0c-7.536-20.659-20.509-36.222-36.735-44.736-16.222-8.512-35.73-9.997-56.386-2.44l-.138-.376.138.376c-29.859 10.916-59.361 24.857-88.508 38.631-9.842 4.65-19.643 9.282-29.404 13.771v.001c-14.247 6.544-26.738 17.698-38.751 28.426l-1.137 1.015h0c-29.065 25.843-31.986 61.244-33.455 103.333-.049 35.577 22.458 61.901 58.967 77.908zm0 0l-.16.367m.16-.367v.001l-.16.366m0 0c29.865 13.064 60.622 18.405 93.608 11.467 45.074-9.477 88.994-19.4 126.516-47.519l-220.124 36.052zm14.874-217.584h0c40.058-19.698 80.454-35.595 122.573-50.574h0c32.984-11.715 65.907.298 83.756 30.57 15.823 26.831 29.046 55.544 41.894 83.791l-.364.166.364-.166c18.607 40.922 1.377 88.524-35.987 117.981-36.258 28.596-78.994 41.545-123.19 51.209-32.572 7.107-64.275 6.876-95.907-5.096-24.49-9.262-42.413-21.911-54.098-39.467-11.682-17.55-17.1-39.958-16.669-68.683-3.966-50.486 24.768-93.708 77.628-119.731z" stroke="#896441" stroke-width=".8"/><path d="M492.782 450.944a54.761 54.761 0 01-25.146.445c-6.512-1.421-13.01-2.267-19.428-3.102-10.845-1.412-21.464-2.794-31.545-6.873-52.259-21.18-65.657-77.051-31.492-121.742l107.611 131.272zm0 0c3.572-.907 7.102-1.542 10.583-2.169m-10.583 2.169l10.583-2.169m16.293-4.01c28.057-10.734 53.36-27.804 76.644-47.178 31.701-26.338 28.712-72.417 16.807-96.504-2.977-6.047-13.565-11.016-20.233-14.146l-.429-.201-1.978-.931c-14.03-6.606-28.647-13.489-43.122-18.914l-27.689 177.874zm0 0c-5.29 2.03-10.729 3.009-16.293 4.01m16.293-4.01l-16.293 4.01m101.096-161.842h.001c3.101 1.662 5.883 4.462 8.227 7.677 2.346 3.218 4.268 6.874 5.642 10.276 8.337 20.602 10.177 39.783 5.644 57.348-4.532 17.565-15.425 33.473-32.479 47.547-4.285 3.544-8.778 6.85-13.318 10.047-48.897 34.506-100.772 49.119-159.616 26.122l.146-.373-.146.373c-29.755-11.638-48.986-32.71-55.596-57.016-6.61-24.308-.579-51.787 20.064-76.197 30.918-36.566 71.825-53.831 118.69-57.215a48.178 48.178 0 016.185-.079c35.201 1.732 66.416 15.408 96.556 31.49zm-150.71-16.116c-29.094 11.417-53.968 30.429-68.262 49.098-17.017 22.26-22.171 47.277-16.593 69.347 5.577 22.067 21.895 41.235 47.917 51.782 7.977 3.227 16.301 4.76 24.842 5.963 2.182.308 4.381.594 6.591.881 6.423.836 12.945 1.685 19.475 3.111a54.38 54.38 0 0024.962-.442v-.001c3.588-.91 7.136-1.549 10.62-2.176 1.039-.187 2.072-.373 3.099-.565 4.479-.837 8.848-1.787 13.113-3.423h0c28.001-10.713 53.266-27.754 76.531-47.112v-.001c15.751-13.086 22.894-31.083 24.613-48.827 1.721-17.75-1.99-35.217-7.908-47.192h0c-1.467-2.979-4.885-5.737-8.835-8.158-3.768-2.31-7.95-4.273-11.215-5.805l-.424-.199h0l-1.973-.929c-14.034-6.608-28.639-13.484-43.097-18.904h0c-31.098-11.672-64.365-7.864-93.456 3.552z" stroke="#896441" stroke-width=".8"/><path d="M502.735 284.913h0c8.195-2.468 15.943-2.506 22.955-.183 7.011 2.324 13.256 6.999 18.463 13.914a347.55 347.55 0 003.318 4.291c2.217 2.837 4.474 5.724 6.511 8.675 3.079 4.461 5.692 9.114 6.968 14.063 3.049 11.784 4.459 25.985.7 37.246l-.001.001c-11.207 33.439-49.794 58.396-88.562 58.159h-.012c-24.759-.921-48.947-11.808-68.964-31.321v-.001c-9.312-9.114-14.09-16.911-14.083-24.749.007-7.84 4.8-15.579 14.244-24.576 28.031-26.729 61.574-44.403 98.463-55.519zm39.68 21.808v-.001c-6.913-9.006-12.925-14.721-19.812-17.272-6.873-2.546-14.692-1.966-25.282 1.802-32.83 11.694-63.031 26.385-88.566 50.287l-.001.001c-8.303 7.756-12.294 15.616-12.259 23.439.035 7.826 4.101 15.715 12.134 23.527 19.092 18.567 43.954 27.849 67.112 28.031 33.396.234 68.464-23.567 80.989-54.573 4.984-12.336 3.354-25.828-2.45-37.159-3.261-6.357-7.466-12.357-11.865-18.082z" stroke="#896441" stroke-width=".8"/></symbol><symbol id="instagram" viewBox="0 0 34 34"><path fill-rule="evenodd" clip-rule="evenodd" d="M0 17C0 7.611 7.611 0 17 0s17 7.611 17 17-7.611 17-17 17S0 26.389 0 17zm17-9.067c-2.461 0-2.77.011-3.738.055-.965.044-1.624.197-2.2.421a4.44 4.44 0 00-1.606 1.046 4.451 4.451 0 00-1.047 1.606c-.225.576-.378 1.236-.421 2.2-.043.968-.055 1.277-.055 3.74 0 2.461.011 2.77.055 3.737.045.965.197 1.624.421 2.2a4.443 4.443 0 001.046 1.606 4.44 4.44 0 001.606 1.047c.576.224 1.236.377 2.2.421.968.044 1.277.055 3.739.055 2.462 0 2.77-.01 3.738-.055.965-.044 1.624-.197 2.201-.421a4.436 4.436 0 001.605-1.047 4.452 4.452 0 001.047-1.606c.223-.576.376-1.235.42-2.2.044-.967.056-1.276.056-3.738 0-2.462-.012-2.771-.055-3.738-.045-.966-.198-1.625-.421-2.201a4.452 4.452 0 00-1.047-1.606 4.43 4.43 0 00-1.605-1.046c-.578-.224-1.238-.377-2.203-.42-.967-.045-1.275-.056-3.738-.056h.003z"/><path fill-rule="evenodd" clip-rule="evenodd" d="M16.188 9.567H17c2.42 0 2.708.009 3.664.052.884.04 1.363.189 1.683.313.423.164.725.36 1.042.678.317.317.514.62.678 1.042.124.32.272.8.313 1.683.043.956.052 1.243.052 3.663s-.009 2.707-.052 3.663c-.04.884-.189 1.363-.313 1.683a2.804 2.804 0 01-.678 1.041 2.804 2.804 0 01-1.042.678c-.32.125-.8.272-1.683.313-.956.043-1.243.053-3.664.053-2.421 0-2.708-.01-3.664-.053-.884-.041-1.364-.189-1.684-.313a2.808 2.808 0 01-1.042-.678 2.81 2.81 0 01-.679-1.042c-.124-.32-.272-.8-.312-1.683-.043-.956-.052-1.243-.052-3.664 0-2.421.009-2.707.052-3.663.04-.884.188-1.364.312-1.683a2.81 2.81 0 01.679-1.043c.317-.317.62-.514 1.042-.678.32-.125.8-.272 1.684-.313.837-.038 1.16-.05 2.85-.051v.002zm5.653 1.506a1.088 1.088 0 100 2.175 1.088 1.088 0 000-2.175zM17 12.343a4.656 4.656 0 100 9.314 4.656 4.656 0 000-9.313z"/><path fill-rule="evenodd" clip-rule="evenodd" d="M17 13.978a3.022 3.022 0 110 6.044 3.022 3.022 0 010-6.044z"/></symbol><symbol id="logo" viewBox="0 0 78 32"><path fill-rule="evenodd" clip-rule="evenodd" d="M60.864 9.825c1.862 1.853 2.747 2.513 4.96 3.963 2.178 1.428 3.009 2.683 4.803 4.123.542.435 6.51 1.944 6.464 2.458-.158.113-5.433-1.053-5.957-1.197-1.34-.366-5.03-.726-6.511-.804-3.951-.208-6.8-2.381-9.368-5.038-1.273-1.317-1.754-2.87-3.477-3.662-1.548-.712-3.708 1.22-4.679 2.292-.953 1.052-1.663 2.897-2.827 4.277-.63.746-4.012 2.724-4.716 2.395l2.688-2.083c.087-.29 1.227-1.55.403-1.974-.333-.172-1.989.177-2.544.196-1.8.062-2.903.52-4.485 1.229-1.03.462-7.595 3.446-7.893 3.468-.13-.44 4.134-2.87 4.725-3.217.713-.418 1.985-.794 2.825-1.163.727-.32 1.509-.903 1.281-1.28a.82.82 0 00-.053-.066c-.138-.137-.44-.238-.97-.274-1.522-.104-5.453.596-6.966 1.066-2.221.691-3.7 1.758-5.602 2.397l-8.19 2.431c.086-.364 6.104-2.224 7.127-2.625 2.37-.927 3.874-2.244 6.69-3.114 2.854-.882 5.518-1.3 8.49-1.184 4.408.172 4.284-.473 7.865-1.97l.451-.312c.09-.046.113-.04.18-.075.12-.065.201-.146.322-.193.065-.025.133-.043.183-.069l.09-.053c.175-.112.05-.05.155-.158l1.043-.721c.865-.412 1.52-1.33 2.806-1.618 1.268-.283 2.483-.156 3.634.52.92.54 4.215 3.71 4.387 4.414l.463.441c1.378 1.257 2.911 2.675 4.741 3.313.811.282 5.88 2.056 6.255 1.79.026-.818-7.444-5.288-8.574-6.326-1.324-1.216-2.479-2.578-3.707-3.726-1.283-1.198-2.717-2.123-4.233-3.195-.498-.353-4.127-3.233-4.216-3.26-.829-.247-1.456 1.023-2.254 1.442-.977.512-1.471.648-2.418 1.332-2.049 1.481-3.957.96-4.97 2.538-2.556 3.984.137 4.41.202 4.87l-.037.127-2.935-.822c-.472-.084-.756-.385-1.133-.576-.113-.058-.328-.12-.45-.209-.244-.178-.355-.142-.633-.432L31.02 6.402l.162-.137c-2.157-.232-.791 1.68-2.937 2.659-1.366.623-2.575 1.196-3.863 1.777-2.35 1.06-5.797 1.603-7.998 3.336-2.164 1.704-3.711 3.838-6.612 4.64-1.034.287-9.4 1.797-9.772 1.54.087-.119 4.968-1.312 5.534-1.43 2.141-.447 3.41-.52 5.387-1.562 1.5-.79 2.362-2.25 3.519-3.354 1.308-1.248 2.665-1.76 4.222-2.65 3.098-1.772 4.741-4.905 7.439-6.283 5.532-2.825 6.983 3.766 8.53 3.726.319-.285 1.217-1.881 1.878-2.573.643-.672 1.767-1.49 2.54-1.908 2.025-1.096 3.975-1.97 6.078-2.912 3.772-1.69 2.85-1.816 6.132.36 1.75 1.159 3.377 2.622 5.103 3.796 1.597 1.088 3.079 2.982 4.502 4.398zM6.671 27.253h3.362c-.321 1.126-1.387 1.573-2.499 1.573-.837 0-1.543-.304-1.973-.636l-.814 1.48c.501.425 1.613.8 2.822.8 2.74 0 4.474-1.501 4.474-3.965 0-2.381-1.795-3.96-4.223-3.96-1.424 0-2.453.439-3.013.886l.729 1.312a3.266 3.266 0 011.818-.555c1.268 0 2.237.49 2.607 1.424H6.67v1.641zm5.348 4.398h1.795v-1.315h5.192v1.315H20.8v-2.954h-1.137v-6.023h-5.467l-.071 1.535c-.12 2.507-.874 4.093-1.208 4.488h-.898v2.954zm3.901-6.04l.13-1.294h1.7v4.38h-2.728c.288-.338.766-1.762.898-3.085zm5.788 4.725h5.085v-1.639h-3.17v-1.393h2.692v-1.638h-2.692v-1.349h3.05v-1.643h-4.965v7.662zm11.174 0h1.914v-7.662h-5.551l-.12 1.535c-.334 4.248-1.052 4.488-1.746 4.377l-.035 1.75c1.962.297 3.014-.533 3.516-4.575l.18-1.444h1.842v6.02zm6.15-3.668c.705 0 1.304.254 1.304.99 0 .777-.54 1.061-1.317 1.061-.18 0-.348-.022-.563-.043v-1.952c.239-.03.42-.056.576-.056zm-.576-3.994h-1.913v7.662c.489 0 1.388.026 2.249.026 2.333 0 3.576-1.109 3.576-2.748 0-1.565-.992-2.584-3.17-2.584-.18 0-.442.009-.742.044v-2.4zm5.06 7.64c.491.048 1.604.069 2.406.069 1.818 0 3.18-.757 3.18-2.365 0-.988-.586-1.542-1.196-1.753v-.022c.623-.37.958-.907.958-1.706 0-1.063-.813-1.905-2.811-1.905-.91 0-2.069.042-2.537.064v7.618zm2.656-3.073c.623 0 1.017.206 1.017.687 0 .516-.37.813-1.112.813-.359 0-.514-.034-.646-.064V27.24h.74zm-.143-2.968c.466 0 .922.233.922.693 0 .554-.395.744-.887.744h-.633v-1.393c.216-.022.358-.044.598-.044zm4.461 6.063h5.085v-1.639h-3.169v-1.393h2.69v-1.638h-2.69v-1.349h3.05v-1.643H50.49v7.662zm8.146 0l3.71-4.76v4.76h1.913v-7.662h-1.674l-3.709 4.764v-4.764h-1.913v7.662h1.673zm-.359-9.631c0 1.054.922 1.75 2.537 1.75 1.497 0 2.513-.687 2.488-1.75h-1.794c0 .473-.24.546-.694.546-.525 0-.742-.128-.742-.546h-1.795zm13.52 7.563a3.272 3.272 0 01-1.819.558c-1.507 0-2.536-.962-2.536-2.321 0-1.509 1.052-2.317 2.344-2.317.791 0 1.256.22 1.71.468l.85-1.311c-.501-.451-1.446-.8-2.56-.8-2.882 0-4.379 1.764-4.379 3.96 0 2.386 1.795 3.964 4.391 3.964 1.138 0 2.225-.374 2.727-.886l-.728-1.315z"/></symbol><symbol id="viber-black" viewBox="0 0 34 34"><path fill-rule="evenodd" clip-rule="evenodd" d="M17 0c9.389 0 17 7.611 17 17s-7.611 17-17 17S0 26.389 0 17 7.611 0 17 0zm4.53 14.845c-.084-.671-.29-1.199-.657-1.666-.476-.601-1.084-.962-1.985-1.175-.587-.143-.824-.126-1.037.068-.197.181-.236.546-.085.781.107.172.23.233.57.3.454.083.768.192 1.054.355.606.35.888.898.918 1.784.014.416.05.544.195.692.27.27.75.217.953-.106.074-.122.086-.175.094-.457a4.498 4.498 0 00-.02-.575zm.007-4.12c1.44 1.164 2.246 2.82 2.365 4.878.05.81-.016 1.074-.302 1.225a.61.61 0 01-.751-.116c-.133-.137-.184-.323-.182-.654.006-.913-.205-1.934-.547-2.642a5.102 5.102 0 00-1.778-2.037c-.675-.45-1.568-.755-2.433-.83-.562-.05-.762-.145-.87-.414-.067-.161-.05-.44.029-.564a.764.764 0 01.357-.276c.125-.036.85.027 1.244.106a6.665 6.665 0 012.868 1.323zm4.992 12.803a2.265 2.265 0 00-.202-.403c-.422-.638-2.694-2.416-3.828-2.997-.647-.333-1.127-.444-1.483-.34-.382.108-.584.286-1.224 1.082-.259.32-.524.619-.594.666-.175.12-.517.218-.759.218-.56-.003-1.576-.366-2.358-.843-.607-.37-1.386-1.032-1.983-1.687-.705-.77-1.184-1.448-1.564-2.215-.49-.984-.614-1.586-.409-2.026.05-.11.117-.228.148-.265.03-.034.345-.293.694-.575.685-.544.795-.669.923-1.042.16-.473.117-.957-.131-1.445-.191-.37-.691-1.176-1.053-1.696-.48-.686-1.675-2.15-1.913-2.35-.43-.349-.98-.41-1.587-.174-.64.249-1.842 1.216-2.355 1.892-.463.611-.641 1.045-.668 1.616-.023.47.017.665.265 1.267 1.943 4.718 4.842 8.484 8.824 11.475 2.08 1.563 4.238 2.752 6.476 3.565 1.305.474 1.872.498 2.54.108.281-.168.98-.884 1.368-1.405.645-.867.883-1.267.95-1.586.047-.218.01-.598-.077-.84zm-.858-10.636a9.373 9.373 0 01.648 3.184c.006.23.003.65-.012.936-.03.547-.06.656-.218.8-.253.238-.747.182-.934-.105-.098-.153-.111-.266-.092-.905.054-1.89-.328-3.371-1.25-4.852-1.1-1.776-2.747-2.972-4.889-3.558a12.154 12.154 0 00-1.722-.336c-.466-.06-.568-.087-.683-.157-.347-.223-.352-.787-.006-1.013.18-.12.311-.124.894-.05 1.709.214 3.234.722 4.487 1.49.898.55 1.465 1.045 2.194 1.911.771.925 1.18 1.608 1.583 2.655z"/></symbol><symbol id="vk" viewBox="0 0 34 34"><path fill-rule="evenodd" clip-rule="evenodd" d="M0 17C0 7.611 7.611 0 17 0s17 7.611 17 17-7.611 17-17 17S0 26.389 0 17zm17.89 5.579s.327-.036.494-.213c.154-.162.148-.467.148-.467s-.02-1.427.655-1.638c.665-.207 1.52 1.38 2.425 1.99.685.462 1.205.361 1.205.361l2.422-.033s1.267-.077.666-1.054c-.05-.08-.35-.724-1.8-2.045-1.52-1.384-1.316-1.16.513-3.553 1.114-1.458 1.56-2.347 1.42-2.728-.132-.364-.951-.267-.951-.267l-2.727.016s-.202-.026-.352.061c-.146.087-.241.288-.241.288s-.431 1.127-1.007 2.087c-1.214 2.023-1.7 2.13-1.898 2.005-.462-.294-.346-1.177-.346-1.805 0-1.962.303-2.78-.59-2.99-.297-.071-.515-.117-1.273-.125-.973-.01-1.796.003-2.262.227-.31.149-.55.482-.404.5.18.024.588.109.804.398.28.373.27 1.21.27 1.21s.16 2.31-.375 2.596c-.367.197-.871-.205-1.954-2.04-.554-.941-.973-1.98-.973-1.98s-.08-.195-.225-.3c-.175-.125-.419-.165-.419-.165l-2.59.017s-.39.01-.533.177c-.126.147-.01.452-.01.452s2.029 4.659 4.326 7.007c2.106 2.152 4.497 2.01 4.497 2.01h1.084z"/></symbol><symbol id="whatsapp-black" viewBox="0 0 34 34"><path fill-rule="evenodd" clip-rule="evenodd" d="M17 34C7.611 34 0 26.389 0 17S7.611 0 17 0s17 7.611 17 17-7.611 17-17 17zm.56-7.542c5.574-.002 10.107-4.536 10.109-10.109a10.047 10.047 0 00-2.958-7.151 10.043 10.043 0 00-7.15-2.965c-5.573 0-10.107 4.535-10.11 10.108 0 1.782.465 3.521 1.35 5.054l-1.434 5.238 5.359-1.405a10.099 10.099 0 004.83 1.23h.004z"/><path fill-rule="evenodd" clip-rule="evenodd" d="M12.974 23.398l-3.18.834.849-3.1-.2-.319a8.382 8.382 0 01-1.285-4.471c.002-4.632 3.771-8.401 8.406-8.401 2.244 0 4.353.876 5.94 2.464a8.351 8.351 0 012.458 5.944c-.002 4.633-3.77 8.402-8.402 8.402h-.003a8.39 8.39 0 01-4.276-1.171l-.307-.182zm9.68-4.645c-.064-.105-.232-.168-.485-.295-.253-.126-1.494-.737-1.726-.822-.231-.084-.4-.126-.568.127-.169.253-.653.822-.8.99-.147.169-.295.19-.547.063-.253-.126-1.067-.393-2.031-1.253-.751-.67-1.258-1.497-1.406-1.75-.147-.253-.015-.39.111-.516.114-.113.253-.295.38-.442.125-.148.167-.253.252-.421.084-.169.042-.316-.021-.443-.064-.126-.569-1.37-.78-1.875-.204-.493-.412-.426-.567-.434a10.016 10.016 0 00-.485-.009.928.928 0 00-.673.316c-.232.253-.884.864-.884 2.107 0 1.244.905 2.445 1.031 2.613.127.169 1.781 2.72 4.315 3.814.603.26 1.073.416 1.44.532.605.192 1.156.165 1.59.1.486-.072 1.495-.61 1.706-1.2.21-.59.21-1.096.147-1.202z"/></symbol></svg>