<svg xmlns="http://www.w3.org/2000/svg" xmlns:xlink="http://www.w3.org/1999/xlink"><symbol id="arrow-down--big" viewBox="0 0 54 28"><path d="M53 1L27 27 1 1" stroke="#363636" stroke-width=".5"/></symbol><symbol id="arrow-left" viewBox="0 0 6 10"><path d="M5 9L1 5l4-4" stroke="#000"/></symbol><symbol id="arrow-right" viewBox="0 0 6 10"><path d="M1 9l4-4-4-4" stroke="#000"/></symbol><symbol id="arrow-up--big" viewBox="0 0 54 28"><path d="M53 27L27 1 1 27" stroke="#363636" stroke-width=".5"/></symbol><symbol id="call-text" viewBox="0 0 163 163"><path d="M161.665 89.047l-9.432-.583.115-1.86 7.653.473.206-3.328-7.653-.473.114-1.86L162.1 82l-.435 7.047zm-10 9.801c-.736-1.123-.969-2.355-.697-3.696.272-1.34.965-2.384 2.081-3.132 1.123-.736 2.359-.968 3.708-.694 1.35.273 2.394.967 3.132 2.08.746 1.125.983 2.358.711 3.698-.272 1.341-.97 2.384-2.094 3.13-1.116.747-2.348.984-3.698.71-1.35-.273-2.397-.972-3.143-2.096zm2.368-5.292c-.681.459-1.107 1.112-1.279 1.958-.172.847-.033 1.614.415 2.302.457.69 1.127 1.124 2.009 1.303.882.178 1.668.04 2.357-.418.69-.457 1.121-1.11 1.292-1.956.172-.847.029-1.615-.428-2.304-.457-.69-1.127-1.124-2.009-1.303-.882-.179-1.668-.04-2.357.418zm-1.192 13.716c-.74.701-1.591.888-2.555.563-.802-.27-1.348-.791-1.638-1.563-.291-.773-.275-1.636.047-2.591.56-1.664 1.639-2.539 3.236-2.628l.344 1.811c-.962-.02-1.601.439-1.917 1.377-.164.486-.187.892-.068 1.217.118.324.352.546.702.664s.67.083.961-.104c.288-.178.511-.502.669-.971l.375-1.113 1.574.531-.285.844c-.149.443-.172.82-.068 1.131.113.313.336.526.668.638.333.112.629.093.888-.056.269-.148.473-.43.614-.848.259-.768.064-1.431-.583-1.991l1.375-1.204c1.067 1.034 1.353 2.284.858 3.751-.299.887-.782 1.532-1.449 1.934-.668.401-1.394.47-2.178.206-.802-.271-1.325-.803-1.57-1.598zm-3.442 8.011c-.783.548-1.61.618-2.483.21-.725-.339-1.2-.874-1.425-1.605-.224-.731-.161-1.472.19-2.222l1.698-3.632 8.56 4.003-1.578 3.375c-.343.734-.859 1.243-1.548 1.527-.685.295-1.378.279-2.079-.048-.71-.332-1.154-.868-1.335-1.608zm3.384-.608l.79-1.688-1.884-.881-.789 1.688a.948.948 0 00-.034.774c.096.263.278.458.547.583.269.126.533.146.793.058a.959.959 0 00.577-.534zm-5.525-2.271c-.133.285-.15.565-.05.841.108.279.308.487.602.624.285.133.565.15.841.05.283-.096.491-.286.625-.572l.909-1.944-2.018-.944-.909 1.945zm-6.646 10.523c-.286-1.312-.061-2.545.673-3.7.735-1.154 1.757-1.88 3.066-2.177 1.312-.285 2.549-.058 3.711.681 1.162.739 1.888 1.761 2.178 3.065.292 1.317.072 2.553-.663 3.707-.734 1.154-1.76 1.878-3.077 2.171-1.309.297-2.545.076-3.707-.663-1.161-.739-1.889-1.767-2.181-3.084zm4.107-4.091c-.8.184-1.432.641-1.896 1.37-.464.729-.61 1.495-.438 2.297.18.808.649 1.453 1.409 1.936.759.484 1.542.635 2.35.456.808-.18 1.443-.634 1.907-1.363.464-.729.606-1.497.426-2.305-.179-.807-.648-1.453-1.408-1.936-.759-.483-1.543-.635-2.35-.455zm-2.848 15.64l-1.2 1.408-7.194-6.127 1.199-1.408 2.981 2.538 2.275-2.672-2.98-2.539 1.208-1.418 7.194 6.127-1.208 1.418-2.857-2.433-2.276 2.672 2.858 2.434zm-13.864.504l3.879 4.264-.883-6.989 1.048-.954 6.359 6.99-1.378 1.254-3.888-4.274.893 6.999-1.049.954-6.359-6.99 1.378-1.254zm-2.676 13.905l-1.032-1.452 2.079-1.478-4.442-6.25 1.518-1.08 4.443 6.25 2.068-1.47 1.033 1.452-5.667 4.028zm-6.47.213c-.795.442-1.612.546-2.452.314-.84-.233-1.477-.739-1.91-1.517-.434-.779-.528-1.587-.283-2.423.245-.837.765-1.477 1.559-1.919l3.079-1.713 4.595 8.258-1.628.906-1.509-2.714-1.451.808zm-2.239-4.023a1.317 1.317 0 00-.664.833c-.097.363-.045.725.157 1.087.197.354.475.586.834.695.364.117.719.079 1.065-.114l1.451-.807-1.392-2.501-1.451.807zm-14.299 4.28l1.091 1.423 3.56-1.23-.02-1.793 1.902-.657-.041 10.012-2.181.754-6.225-7.848 1.914-.661zm4.658 2.033l-2.45.846 2.486 3.226-.036-4.072zm-14.556 2.129l-.993.201-.713-3.52 1.826-.37.36 1.773 5.12-1.037-.36-1.773 1.826-.37.714 3.519-.9.183c-.367.818-.41 1.915-.132 3.291l.887 4.379-6.112 1.239-1.523-7.515zm4.922-.998l-3.096.628 1.177 5.808 2.46-.498-.546-2.7c-.272-1.34-.27-2.42.005-3.238zm-15.992 9.57l-.51-9.436 1.847-.1.33 6.12 2.42-4.525.215-.012 2.892 4.224-.33-6.106 1.86-.101.51 9.436-1.914.104-2.951-4.315-2.455 4.607-1.914.104zm-8.307-9.98l-.51 5.742 4.544-5.383 1.412.126-.837 9.413-1.855-.165.511-5.756-4.546 5.397-1.411-.126.837-9.413 1.855.165zm-11.176 7.599l-1.804-.409 2.088-9.216 1.804.408-.865 3.819 3.423.775.865-3.818 1.817.412-2.088 9.216-1.817-.412.83-3.66-3.424-.775-.83 3.66zm-6.905-12.061l-1.984 5.412 5.787-4.018 1.33.488-3.253 8.872-1.749-.641 1.99-5.425-5.792 4.031-1.331-.488 3.253-8.873 1.75.642zm-7.447-3.661c1.254.668 2.069 1.637 2.443 2.907.374 1.27.235 2.517-.416 3.74-.656 1.231-1.613 2.042-2.87 2.433-1.263.398-2.522.263-3.777-.405a4.737 4.737 0 01-1.8-1.647 4.336 4.336 0 01-.74-2.229l1.856-.067c.008.483.147.929.419 1.339a2.92 2.92 0 001.115 1.007c.81.431 1.601.526 2.372.284.764-.246 1.361-.774 1.792-1.584.428-.803.53-1.589.309-2.36-.23-.775-.75-1.378-1.56-1.809a3.016 3.016 0 00-1.452-.376 2.455 2.455 0 00-1.345.4l-.98-1.577a4.463 4.463 0 012.257-.648 4.84 4.84 0 012.376.592zm-15.753 1.354l1.027-1.457 2.085 1.471 4.42-6.266 1.522 1.073-4.42 6.267 2.075 1.463-1.027 1.456-5.682-4.007zm-4.439-3.752c-.679-.604-1.047-1.342-1.104-2.212-.057-.87.21-1.638.803-2.303.592-.666 1.324-1.021 2.195-1.065.87-.044 1.645.236 2.324.84l1.24 1.104 2.065-2.319 1.392 1.238-6.283 7.059-2.632-2.342zm3.06-3.439a1.315 1.315 0 00-1.005-.353c-.38.035-.705.204-.974.507-.276.309-.406.651-.39 1.026.015.375.171.695.467.958l1.24 1.104 1.903-2.138-1.24-1.104zm-4.35-11.394l-.9 1.551 2.494 2.823 1.65-.701 1.332 1.507-9.271 3.778-1.529-1.73 4.883-8.745 1.341 1.517zm-.104 5.082l-1.716-1.943-2.035 3.528 3.751-1.585zm-13.369-7.515l1.468-1.011 1.447 2.101 6.314-4.351 1.058 1.534-6.315 4.351 1.44 2.09-1.467 1.011-3.945-5.725zm2.404-12.679c1.28.407 2.236 1.217 2.87 2.429.634 1.212.754 2.46.358 3.743-.407 1.28-1.22 2.239-2.441 2.877-1.22.638-2.468.757-3.743.358-1.288-.403-2.249-1.211-2.883-2.423-.634-1.212-.75-2.462-.346-3.75.395-1.283 1.203-2.244 2.423-2.882 1.22-.638 2.474-.756 3.762-.352zm1.497 5.6c.24-.785.159-1.561-.242-2.326-.4-.766-.991-1.274-1.773-1.526-.79-.247-1.583-.162-2.38.255-.798.417-1.32 1.02-1.567 1.81-.248.789-.171 1.567.23 2.333.4.765.995 1.272 1.784 1.519.79.247 1.583.162 2.38-.255.798-.417 1.32-1.02 1.568-1.81zm-11.51-8.541c-.31-.855-.283-1.678.08-2.471.365-.792.965-1.34 1.803-1.643.838-.304 1.65-.268 2.437.107.787.375 1.335.99 1.645 1.845l.566 1.561 2.919-1.058.635 1.752-8.885 3.22-1.2-3.313zm4.328-1.569a1.312 1.312 0 00-.717-.788 1.443 1.443 0 00-1.098-.019c-.39.141-.666.381-.831.718-.165.337-.18.692-.045 1.065l.566 1.561 2.69-.976-.565-1.561zm-7.416-9.13l-.425-1.814 7.31 1.197c1.961.317 3.09 1.327 3.389 3.032l-1.696.398c-.071-.501-.23-.88-.475-1.136-.255-.264-.609-.45-1.059-.556l-5.72 4.517-.426-1.813 3.97-3.053-4.868-.772zM.381 73.666l9.436.51-.1 1.86-7.657-.414-.18 3.33 7.657.414-.1 1.86L0 80.716l.381-7.05zm9.849-9.571c.75 1.115.996 2.344.74 3.687-.257 1.344-.938 2.396-2.045 3.156-1.114.75-2.348.995-3.7.737-1.353-.258-2.405-.94-3.156-2.045-.758-1.115-1.01-2.345-.753-3.69.256-1.343.942-2.394 2.058-3.152 1.107-.76 2.337-1.011 3.69-.753 1.352.258 2.408.945 3.166 2.06zm-2.306 5.319c.675-.467 1.094-1.124 1.256-1.973.162-.849.014-1.615-.442-2.297-.465-.684-1.14-1.11-2.023-1.28-.885-.168-1.669-.02-2.353.445-.684.465-1.107 1.122-1.27 1.97-.161.85-.01 1.616.456 2.3.465.684 1.14 1.11 2.023 1.28.884.168 1.668.02 2.353-.445zm1.02-13.712c.731-.709 1.58-.906 2.548-.593.805.262 1.357.777 1.656 1.546.3.769.293 1.632-.018 2.591-.542 1.67-1.61 2.557-3.206 2.664l-.365-1.807c.962.01 1.596-.457 1.902-1.399.158-.487.176-.893.054-1.217-.122-.323-.359-.542-.71-.656-.35-.114-.67-.076-.96.114-.285.182-.505.508-.657.98l-.363 1.116-1.58-.512.276-.848c.144-.445.163-.822.055-1.132a1.012 1.012 0 00-.675-.63c-.334-.109-.63-.086-.888.067-.266.15-.468.434-.604.854-.25.77-.048 1.432.605 1.984l-1.36 1.22c-1.079-1.022-1.379-2.27-.901-3.742.289-.89.765-1.54 1.427-1.95.663-.409 1.388-.486 2.176-.23.805.261 1.334.788 1.588 1.58zm3.343-8.059c.776-.556 1.603-.636 2.48-.237.73.33 1.21.86 1.443 1.589.233.728.178 1.47-.165 2.223l-1.657 3.651-8.605-3.907 1.54-3.393c.336-.737.846-1.252 1.532-1.543.681-.304 1.374-.295 2.08.025.712.323 1.163.854 1.352 1.592zm-3.378.646l-.77 1.697 1.893.86.77-1.697a.947.947 0 00.026-.774 1.007 1.007 0 00-.553-.578 1.033 1.033 0 00-.794-.049.963.963 0 00-.572.541zm5.55 2.21a1.06 1.06 0 00.042-.842 1.125 1.125 0 00-.61-.618 1.062 1.062 0 00-.84-.04c-.283.098-.49.291-.62.578l-.887 1.955 2.028.92.888-1.954zm6.663-10.813c.295 1.31.08 2.544-.646 3.704-.726 1.16-1.743 1.893-3.05 2.2-1.31.295-2.549.077-3.716-.654-1.167-.73-1.9-1.747-2.2-3.05-.302-1.314-.09-2.551.635-3.71.726-1.16 1.746-1.891 3.061-2.194 1.307-.307 2.545-.095 3.712.635 1.167.731 1.902 1.754 2.204 3.069zm-4.077 4.12c.799-.19 1.427-.65 1.886-1.383.458-.732.598-1.5.42-2.3-.185-.807-.659-1.449-1.422-1.926-.763-.478-1.547-.624-2.353-.439-.807.186-1.44.645-1.898 1.377-.458.732-.595 1.502-.409 2.308.185.806.66 1.448 1.422 1.926.763.477 1.548.623 2.354.438zm2.524-15.442l1.183-1.42 7.262 6.048-1.184 1.42-3.008-2.505-2.247 2.697 3.008 2.506-1.192 1.431-7.261-6.048 1.192-1.432 2.884 2.402 2.246-2.697-2.883-2.401zm13.951-.758l-3.91-4.236.934 6.983-1.042.962-6.41-6.944 1.37-1.264 3.919 4.246-.944-6.993 1.042-.961 6.41 6.944-1.37 1.263zm2.419-13.863l1.048 1.442-2.063 1.5 4.51 6.201-1.506 1.096-4.51-6.2-2.053 1.492-1.048-1.44 5.622-4.09zm6.343-.227c.79-.45 1.605-.564 2.448-.34.843.223 1.485.722 1.927 1.495.442.774.545 1.58.309 2.42-.236.84-.748 1.485-1.538 1.935l-3.06 1.747-4.686-8.206 1.618-.924 1.54 2.697 1.442-.824zm2.283 3.998c.343-.196.562-.477.654-.84.093-.364.037-.726-.168-1.086-.201-.351-.482-.58-.842-.685a1.293 1.293 0 00-1.064.126l-1.442.823 1.42 2.485 1.442-.823zm14.392-4.527l-1.102-1.415-3.55 1.257.033 1.793-1.897.671-.035-10.012 2.177-.77 6.283 7.8-1.909.676zm-4.674-1.998l2.444-.865-2.51-3.207.066 4.072zm14.65-2.307l.991-.209.74 3.514-1.823.384-.373-1.77-5.112 1.077.373 1.77-1.823.384-.74-3.514.898-.19c.36-.82.396-1.918.107-3.292l-.92-4.372 6.102-1.286 1.58 7.504zM64.02 9.717l3.091-.651-1.22-5.8-2.458.518L64 6.479c.282 1.339.289 2.418.02 3.238zM79.64 0l.62 9.43-1.845.12-.402-6.115-2.366 4.552-.216.015-2.94-4.19.4 6.102-1.859.122-.619-9.43L72.326.48l3 4.281L77.729.126 79.64 0zm8.548 9.875l.466-5.746-4.503 5.418-1.413-.115.765-9.419 1.857.151-.468 5.76L89.397.491l1.412.114-.764 9.42-1.857-.151zm11.045-7.748l1.808.388-1.983 9.24-1.808-.389.821-3.828-3.432-.736-.821 3.828-1.822-.391L93.98.999l1.822.391-.788 3.67 3.432.736.788-3.67zm7.162 12.014l1.943-5.427-5.756 4.062-1.335-.478 3.187-8.897 1.754.628-1.949 5.44 5.762-4.074 1.334.478-3.187 8.896-1.753-.628zm7.498 3.576c-1.26-.659-2.082-1.622-2.466-2.889-.383-1.267-.253-2.514.389-3.743.646-1.236 1.597-2.054 2.853-2.453 1.259-.408 2.519-.283 3.779.377a4.74 4.74 0 011.812 1.633c.462.689.714 1.43.756 2.224l-1.855.08a2.451 2.451 0 00-.429-1.336 2.917 2.917 0 00-1.123-.998c-.813-.426-1.605-.515-2.374-.267-.761.252-1.355.784-1.78 1.598-.422.805-.518 1.592-.291 2.361.235.773.76 1.373 1.573 1.798.479.25.964.372 1.455.365.503-.01.951-.148 1.342-.41l.992 1.57a4.463 4.463 0 01-2.253.665 4.846 4.846 0 01-2.38-.575zm15.433-1.735l-1.011 1.467-2.101-1.448-4.351 6.315-1.534-1.057 4.351-6.315-2.09-1.44 1.011-1.467 5.725 3.945zm4.738 3.873c.685.596 1.061 1.33 1.128 2.199.066.87-.193 1.64-.778 2.312-.585.672-1.313 1.035-2.183 1.089-.87.054-1.648-.218-2.334-.815l-1.252-1.09-2.039 2.342-1.405-1.224 6.205-7.127 2.658 2.314zm-3.023 3.472c.299.26.635.373 1.009.341.38-.039.703-.211.969-.517.272-.312.398-.655.378-1.03a1.31 1.31 0 00-.477-.953l-1.252-1.09-1.88 2.158 1.253 1.09zm4.54 11.417l.888-1.558-2.515-2.804-1.645.713-1.342-1.497 9.244-3.846 1.541 1.719-4.82 8.78-1.351-1.507zm.067-5.082l1.73 1.93 2.01-3.543-3.74 1.613zm13.367 7.271l-1.456 1.028-1.471-2.085-6.266 4.42-1.074-1.523 6.266-4.42-1.462-2.074 1.456-1.027 4.007 5.681zm-2.169 12.887c-1.283-.397-2.245-1.2-2.888-2.407-.643-1.208-.772-2.455-.386-3.741.398-1.282 1.204-2.247 2.42-2.895 1.215-.647 2.462-.776 3.74-.386 1.291.394 2.257 1.195 2.9 2.402.643 1.208.768 2.457.374 3.747-.385 1.286-1.186 2.253-2.401 2.9-1.216.647-2.469.774-3.759.38zm-1.539-5.589c-.233.787-.147 1.562.259 2.325.406.763 1.001 1.267 1.784 1.512.792.242 1.585.15 2.379-.272.794-.423 1.312-1.03 1.554-1.822.241-.791.159-1.568-.247-2.33-.407-.763-1.005-1.265-1.797-1.507-.791-.241-1.584-.15-2.378.273-.795.423-1.312 1.03-1.554 1.821zm11.509 8.234c.32.852.302 1.675-.053 2.472-.355.796-.949 1.35-1.783 1.664-.835.313-1.647.286-2.438-.08-.792-.367-1.347-.975-1.666-1.827l-.583-1.554-2.908 1.09-.654-1.744 8.848-3.32 1.237 3.3zm-4.31 1.618c.139.37.381.63.726.78.353.147.719.148 1.098.006.388-.145.662-.388.823-.727.161-.339.172-.694.033-1.065l-.583-1.554-2.68 1.005.583 1.555zm7.514 9.002l.447 1.81-7.325-1.114c-1.963-.294-3.104-1.292-3.422-2.994l1.691-.417c.077.5.24.878.488 1.131.259.261.614.442 1.065.544l5.669-4.583.447 1.81-3.936 3.097 4.876.716z" fill="#363636"/></symbol><symbol id="instagram" viewBox="0 0 34 34"><path fill-rule="evenodd" clip-rule="evenodd" d="M0 17C0 7.611 7.611 0 17 0s17 7.611 17 17-7.611 17-17 17S0 26.389 0 17zm17-9.067c-2.461 0-2.77.011-3.738.055-.965.044-1.624.197-2.2.421a4.44 4.44 0 00-1.606 1.046 4.451 4.451 0 00-1.047 1.606c-.225.576-.378 1.236-.421 2.2-.043.968-.055 1.277-.055 3.74 0 2.461.011 2.77.055 3.737.045.965.197 1.624.421 2.2a4.443 4.443 0 001.046 1.606 4.44 4.44 0 001.606 1.047c.576.224 1.236.377 2.2.421.968.044 1.277.055 3.739.055 2.462 0 2.77-.01 3.738-.055.965-.044 1.624-.197 2.201-.421a4.436 4.436 0 001.605-1.047 4.452 4.452 0 001.047-1.606c.223-.576.376-1.235.42-2.2.044-.967.056-1.276.056-3.738 0-2.462-.012-2.771-.055-3.738-.045-.966-.198-1.625-.421-2.201a4.452 4.452 0 00-1.047-1.606 4.43 4.43 0 00-1.605-1.046c-.578-.224-1.238-.377-2.203-.42-.967-.045-1.275-.056-3.738-.056h.003z" fill="#363636"/><path fill-rule="evenodd" clip-rule="evenodd" d="M16.188 9.567H17c2.42 0 2.708.009 3.664.052.884.04 1.363.189 1.683.313.423.164.725.36 1.042.678.317.317.514.62.678 1.042.124.32.272.8.313 1.683.043.956.052 1.243.052 3.663s-.009 2.707-.052 3.663c-.04.884-.189 1.363-.313 1.683a2.804 2.804 0 01-.678 1.041 2.804 2.804 0 01-1.042.678c-.32.125-.8.272-1.683.313-.956.043-1.243.053-3.664.053-2.421 0-2.708-.01-3.664-.053-.884-.041-1.364-.189-1.684-.313a2.808 2.808 0 01-1.042-.678 2.81 2.81 0 01-.679-1.042c-.124-.32-.272-.8-.312-1.683-.043-.956-.052-1.243-.052-3.664 0-2.421.009-2.707.052-3.663.04-.884.188-1.364.312-1.683a2.81 2.81 0 01.679-1.043c.317-.317.62-.514 1.042-.678.32-.125.8-.272 1.684-.313.837-.038 1.16-.05 2.85-.051v.002zm5.653 1.506a1.088 1.088 0 100 2.175 1.088 1.088 0 000-2.175zM17 12.343a4.656 4.656 0 100 9.314 4.656 4.656 0 000-9.313z" fill="#363636"/><path fill-rule="evenodd" clip-rule="evenodd" d="M17 13.978a3.022 3.022 0 110 6.044 3.022 3.022 0 010-6.044z" fill="#363636"/></symbol><symbol id="logo" viewBox="0 0 78 32"><path fill-rule="evenodd" clip-rule="evenodd" d="M60.864 9.825c1.862 1.853 2.747 2.513 4.96 3.963 2.178 1.428 3.009 2.683 4.803 4.123.542.435 6.51 1.944 6.464 2.458-.158.113-5.433-1.053-5.957-1.197-1.34-.366-5.03-.726-6.511-.804-3.951-.208-6.8-2.381-9.368-5.038-1.273-1.317-1.754-2.87-3.477-3.662-1.548-.712-3.708 1.22-4.679 2.292-.953 1.052-1.663 2.897-2.827 4.277-.63.746-4.012 2.724-4.716 2.395l2.688-2.083c.087-.29 1.227-1.55.403-1.974-.333-.172-1.989.177-2.544.196-1.8.062-2.903.52-4.485 1.229-1.03.462-7.595 3.446-7.893 3.468-.13-.44 4.134-2.87 4.725-3.217.713-.418 1.985-.794 2.825-1.163.727-.32 1.509-.903 1.281-1.28a.82.82 0 00-.053-.066c-.138-.137-.44-.238-.97-.274-1.522-.104-5.453.596-6.966 1.066-2.221.691-3.7 1.758-5.602 2.397l-8.19 2.431c.086-.364 6.104-2.224 7.127-2.625 2.37-.927 3.874-2.244 6.69-3.114 2.854-.882 5.518-1.3 8.49-1.184 4.408.172 4.284-.473 7.865-1.97l.451-.312c.09-.046.113-.04.18-.075.12-.065.201-.146.322-.193.065-.025.133-.043.183-.069l.09-.053c.175-.112.05-.05.155-.158l1.043-.721c.865-.412 1.52-1.33 2.806-1.618 1.268-.283 2.483-.156 3.634.52.92.54 4.215 3.71 4.387 4.414l.463.441c1.378 1.257 2.911 2.675 4.741 3.313.811.282 5.88 2.056 6.255 1.79.026-.818-7.444-5.288-8.574-6.326-1.324-1.216-2.479-2.578-3.707-3.726-1.283-1.198-2.717-2.123-4.233-3.195-.498-.353-4.127-3.233-4.216-3.26-.829-.247-1.456 1.023-2.254 1.442-.977.512-1.471.648-2.418 1.332-2.049 1.481-3.957.96-4.97 2.538-2.556 3.984.137 4.41.202 4.87l-.037.127-2.935-.822c-.472-.084-.756-.385-1.133-.576-.113-.058-.328-.12-.45-.209-.244-.178-.355-.142-.633-.432L31.02 6.402l.162-.137c-2.157-.232-.791 1.68-2.937 2.659-1.366.623-2.575 1.196-3.863 1.777-2.35 1.06-5.797 1.603-7.998 3.336-2.164 1.704-3.711 3.838-6.612 4.64-1.034.287-9.4 1.797-9.772 1.54.087-.119 4.968-1.312 5.534-1.43 2.141-.447 3.41-.52 5.387-1.562 1.5-.79 2.362-2.25 3.519-3.354 1.308-1.248 2.665-1.76 4.222-2.65 3.098-1.772 4.741-4.905 7.439-6.283 5.532-2.825 6.983 3.766 8.53 3.726.319-.285 1.217-1.881 1.878-2.573.643-.672 1.767-1.49 2.54-1.908 2.025-1.096 3.975-1.97 6.078-2.912 3.772-1.69 2.85-1.816 6.132.36 1.75 1.159 3.377 2.622 5.103 3.796 1.597 1.088 3.079 2.982 4.502 4.398zM6.671 27.253h3.362c-.321 1.126-1.387 1.573-2.499 1.573-.837 0-1.543-.304-1.973-.636l-.814 1.48c.501.425 1.613.8 2.822.8 2.74 0 4.474-1.501 4.474-3.965 0-2.381-1.795-3.96-4.223-3.96-1.424 0-2.453.439-3.013.886l.729 1.312a3.266 3.266 0 011.818-.555c1.268 0 2.237.49 2.607 1.424H6.67v1.641zm5.348 4.398h1.795v-1.315h5.192v1.315H20.8v-2.954h-1.137v-6.023h-5.467l-.071 1.535c-.12 2.507-.874 4.093-1.208 4.488h-.898v2.954zm3.901-6.04l.13-1.294h1.7v4.38h-2.728c.288-.338.766-1.762.898-3.085zm5.788 4.725h5.085v-1.639h-3.17v-1.393h2.692v-1.638h-2.692v-1.349h3.05v-1.643h-4.965v7.662zm11.174 0h1.914v-7.662h-5.551l-.12 1.535c-.334 4.248-1.052 4.488-1.746 4.377l-.035 1.75c1.962.297 3.014-.533 3.516-4.575l.18-1.444h1.842v6.02zm6.15-3.668c.705 0 1.304.254 1.304.99 0 .777-.54 1.061-1.317 1.061-.18 0-.348-.022-.563-.043v-1.952c.239-.03.42-.056.576-.056zm-.576-3.994h-1.913v7.662c.489 0 1.388.026 2.249.026 2.333 0 3.576-1.109 3.576-2.748 0-1.565-.992-2.584-3.17-2.584-.18 0-.442.009-.742.044v-2.4zm5.06 7.64c.491.048 1.604.069 2.406.069 1.818 0 3.18-.757 3.18-2.365 0-.988-.586-1.542-1.196-1.753v-.022c.623-.37.958-.907.958-1.706 0-1.063-.813-1.905-2.811-1.905-.91 0-2.069.042-2.537.064v7.618zm2.656-3.073c.623 0 1.017.206 1.017.687 0 .516-.37.813-1.112.813-.359 0-.514-.034-.646-.064V27.24h.74zm-.143-2.968c.466 0 .922.233.922.693 0 .554-.395.744-.887.744h-.633v-1.393c.216-.022.358-.044.598-.044zm4.461 6.063h5.085v-1.639h-3.169v-1.393h2.69v-1.638h-2.69v-1.349h3.05v-1.643H50.49v7.662zm8.146 0l3.71-4.76v4.76h1.913v-7.662h-1.674l-3.709 4.764v-4.764h-1.913v7.662h1.673zm-.359-9.631c0 1.054.922 1.75 2.537 1.75 1.497 0 2.513-.687 2.488-1.75h-1.794c0 .473-.24.546-.694.546-.525 0-.742-.128-.742-.546h-1.795zm13.52 7.563a3.272 3.272 0 01-1.819.558c-1.507 0-2.536-.962-2.536-2.321 0-1.509 1.052-2.317 2.344-2.317.791 0 1.256.22 1.71.468l.85-1.311c-.501-.451-1.446-.8-2.56-.8-2.882 0-4.379 1.764-4.379 3.96 0 2.386 1.795 3.964 4.391 3.964 1.138 0 2.225-.374 2.727-.886l-.728-1.315z"/></symbol><symbol id="viber-black" viewBox="0 0 34 34"><path fill-rule="evenodd" clip-rule="evenodd" d="M17 0c9.389 0 17 7.611 17 17s-7.611 17-17 17S0 26.389 0 17 7.611 0 17 0zm4.53 14.845c-.084-.671-.29-1.199-.657-1.666-.476-.601-1.084-.962-1.985-1.175-.587-.143-.824-.126-1.037.068-.197.181-.236.546-.085.781.107.172.23.233.57.3.454.083.768.192 1.054.355.606.35.888.898.918 1.784.014.416.05.544.195.692.27.27.75.217.953-.106.074-.122.086-.175.094-.457a4.498 4.498 0 00-.02-.575zm.007-4.12c1.44 1.164 2.246 2.82 2.365 4.878.05.81-.016 1.074-.302 1.225a.61.61 0 01-.751-.116c-.133-.137-.184-.323-.182-.654.006-.913-.205-1.934-.547-2.642a5.102 5.102 0 00-1.778-2.037c-.675-.45-1.568-.755-2.433-.83-.562-.05-.762-.145-.87-.414-.067-.161-.05-.44.029-.564a.764.764 0 01.357-.276c.125-.036.85.027 1.244.106a6.665 6.665 0 012.868 1.323zm4.992 12.803a2.265 2.265 0 00-.202-.403c-.422-.638-2.694-2.416-3.828-2.997-.647-.333-1.127-.444-1.483-.34-.382.108-.584.286-1.224 1.082-.259.32-.524.619-.594.666-.175.12-.517.218-.759.218-.56-.003-1.576-.366-2.358-.843-.607-.37-1.386-1.032-1.983-1.687-.705-.77-1.184-1.448-1.564-2.215-.49-.984-.614-1.586-.409-2.026.05-.11.117-.228.148-.265.03-.034.345-.293.694-.575.685-.544.795-.669.923-1.042.16-.473.117-.957-.131-1.445-.191-.37-.691-1.176-1.053-1.696-.48-.686-1.675-2.15-1.913-2.35-.43-.349-.98-.41-1.587-.174-.64.249-1.842 1.216-2.355 1.892-.463.611-.641 1.045-.668 1.616-.023.47.017.665.265 1.267 1.943 4.718 4.842 8.484 8.824 11.475 2.08 1.563 4.238 2.752 6.476 3.565 1.305.474 1.872.498 2.54.108.281-.168.98-.884 1.368-1.405.645-.867.883-1.267.95-1.586.047-.218.01-.598-.077-.84zm-.858-10.636a9.373 9.373 0 01.648 3.184c.006.23.003.65-.012.936-.03.547-.06.656-.218.8-.253.238-.747.182-.934-.105-.098-.153-.111-.266-.092-.905.054-1.89-.328-3.371-1.25-4.852-1.1-1.776-2.747-2.972-4.889-3.558a12.154 12.154 0 00-1.722-.336c-.466-.06-.568-.087-.683-.157-.347-.223-.352-.787-.006-1.013.18-.12.311-.124.894-.05 1.709.214 3.234.722 4.487 1.49.898.55 1.465 1.045 2.194 1.911.771.925 1.18 1.608 1.583 2.655z" fill="#363636"/></symbol><symbol id="vk" viewBox="0 0 34 34"><path fill-rule="evenodd" clip-rule="evenodd" d="M0 17C0 7.611 7.611 0 17 0s17 7.611 17 17-7.611 17-17 17S0 26.389 0 17zm17.89 5.579s.327-.036.494-.213c.154-.162.148-.467.148-.467s-.02-1.427.655-1.638c.665-.207 1.52 1.38 2.425 1.99.685.462 1.205.361 1.205.361l2.422-.033s1.267-.077.666-1.054c-.05-.08-.35-.724-1.8-2.045-1.52-1.384-1.316-1.16.513-3.553 1.114-1.458 1.56-2.347 1.42-2.728-.132-.364-.951-.267-.951-.267l-2.727.016s-.202-.026-.352.061c-.146.087-.241.288-.241.288s-.431 1.127-1.007 2.087c-1.214 2.023-1.7 2.13-1.898 2.005-.462-.294-.346-1.177-.346-1.805 0-1.962.303-2.78-.59-2.99-.297-.071-.515-.117-1.273-.125-.973-.01-1.796.003-2.262.227-.31.149-.55.482-.404.5.18.024.588.109.804.398.28.373.27 1.21.27 1.21s.16 2.31-.375 2.596c-.367.197-.871-.205-1.954-2.04-.554-.941-.973-1.98-.973-1.98s-.08-.195-.225-.3c-.175-.125-.419-.165-.419-.165l-2.59.017s-.39.01-.533.177c-.126.147-.01.452-.01.452s2.029 4.659 4.326 7.007c2.106 2.152 4.497 2.01 4.497 2.01h1.084z" fill="#363636"/></symbol><symbol id="whatsapp-black" viewBox="0 0 34 34"><path fill-rule="evenodd" clip-rule="evenodd" d="M17 34C7.611 34 0 26.389 0 17S7.611 0 17 0s17 7.611 17 17-7.611 17-17 17zm.56-7.542c5.574-.002 10.107-4.536 10.109-10.109a10.047 10.047 0 00-2.958-7.151 10.043 10.043 0 00-7.15-2.965c-5.573 0-10.107 4.535-10.11 10.108 0 1.782.465 3.521 1.35 5.054l-1.434 5.238 5.359-1.405a10.099 10.099 0 004.83 1.23h.004z" fill="#363636"/><path fill-rule="evenodd" clip-rule="evenodd" d="M12.974 23.398l-3.18.834.849-3.1-.2-.319a8.382 8.382 0 01-1.285-4.471c.002-4.632 3.771-8.401 8.406-8.401 2.244 0 4.353.876 5.94 2.464a8.351 8.351 0 012.458 5.944c-.002 4.633-3.77 8.402-8.402 8.402h-.003a8.39 8.39 0 01-4.276-1.171l-.307-.182zm9.68-4.645c-.064-.105-.232-.168-.485-.295-.253-.126-1.494-.737-1.726-.822-.231-.084-.4-.126-.568.127-.169.253-.653.822-.8.99-.147.169-.295.19-.547.063-.253-.126-1.067-.393-2.031-1.253-.751-.67-1.258-1.497-1.406-1.75-.147-.253-.015-.39.111-.516.114-.113.253-.295.38-.442.125-.148.167-.253.252-.421.084-.169.042-.316-.021-.443-.064-.126-.569-1.37-.78-1.875-.204-.493-.412-.426-.567-.434a10.016 10.016 0 00-.485-.009.928.928 0 00-.673.316c-.232.253-.884.864-.884 2.107 0 1.244.905 2.445 1.031 2.613.127.169 1.781 2.72 4.315 3.814.603.26 1.073.416 1.44.532.605.192 1.156.165 1.59.1.486-.072 1.495-.61 1.706-1.2.21-.59.21-1.096.147-1.202z" fill="#363636"/></symbol></svg>